<?xml version="1.0" encoding="utf-8"?>
<!-- Generator: Adobe Illustrator 27.5.0, SVG Export Plug-In . SVG Version: 6.00 Build 0)  -->
<svg version="1.1" id="Layer_1" xmlns="http://www.w3.org/2000/svg" xmlns:xlink="http://www.w3.org/1999/xlink" x="0px" y="0px"
	 viewBox="0 0 2000 2000" style="enable-background:new 0 0 2000 2000;" xml:space="preserve">
<rect style="fill:#FFFFFF;" width="2000" height="2000"/>
<g>
	<path style="fill:#231F20;" d="M1178.053,1540.665c-80.205,0.4-158.34-18.86-237.09-31.29
		c-36.606-4.931-73.194-10.68-110.107-12.694c-42.689-1.207-85.425,1.244-127.726,7.07c-63.185,8.281-126.578,15.095-190.183,19.141
		c-63.557,4.711-127.489,6.052-190.468-5.212c-58.152-9.906-116.943-26.051-166.18-59.587
		c-24.335-18.684-70.127-36.422-58.437-74.334c9.303-20.685,102.111-21.358,126.52-27.029c-0.271,0.041-0.538,0.077-0.81,0.117
		c11.963-1.687,23.949-3.193,35.912-4.867c-0.276,0.036-0.552,0.077-0.828,0.113c53.694-6.841,107.584-11.9,161.396-17.431
		c-0.044,0.006-0.088,0.012-0.132,0.018c4.251-0.597,8.494-1.303,12.759-1.778c8.668-0.405,7.564,12.521-0.005,13.586
		c-7.072,1.198-14.248,1.704-21.365,2.651c-67.303,5.153-134.485,12.282-201.418,21.212c-33.656,4.447-69.16,4.154-101.11,16.455
		c-4.086,28.363,30.623,39.361,48.671,54.068c30.54,21.891,65.527,35.441,101.011,47.062c44.496,12.19,90.45,19.047,136.41,22.613
		c74.723,3.131,149.322-5.295,223.698-11.353c59.924-5.96,119.403-17.578,179.785-17.974
		c152.474-3.015,300.202,60.12,453.252,41.134c91.587-8.307,176.236-45.739,262.82-73.719c33.265-9.699,67.613-15.29,102.155-17.778
		c69.036-7.147,141.572,0.65,207.229-25.41c19.895-9.492,53.499-26.409,45.528-52.303c0.208,0.217,0.421,0.434,0.629,0.651
		c-0.657-0.732-1.379-1.391-2.168-1.976c0.173,0.126,0.347,0.253,0.517,0.38c-0.243-0.189-0.494-0.363-0.742-0.543
		c0.056,0.041,0.112,0.081,0.167,0.122c-0.789-0.549-1.625-1.012-2.515-1.393c0.271,0.136,0.547,0.271,0.823,0.412
		c-22.861-9.198-48.062-8.869-72.317-8.883c0.33,0,0.665,0,1,0c-14.346-2.409-307.154,15.75-266.196-10.053
		c36.299-1.67,72.909,2.363,109.328-0.375c63.738-0.725,127.502-6.42,191.241-3.404c17.859,2.557,41.616,2.497,52.72,18.837
		c9.096,33.697-28.85,56.814-55.256,68.27c-41.377,17.434-86.89,19.365-131.142,21.71c-48.057,3.213-96.75,3.792-143.927,14.319
		c-61.706,13.133-118.682,41.665-178.953,59.603C1309.627,1530.332,1244.057,1541.725,1178.053,1540.665z"/>
	<path style="fill:#231F20;" d="M1250.425,1457.992c-6.811-2.967,11.285-20.789,13.635-25.238
		c9.814-3.388-0.695,10.441-2.559,13.157C1257.892,1449.484,1256.488,1458.782,1250.425,1457.992z"/>
	<path style="fill:#231F20;" d="M1272.333,1454.433c-4.933-3.175,1.969-8.363,3.523-11.741c1.888-1.817,3.261-8.288,6.595-6.246
		c0.003-0.003,0.006-0.006,0.009-0.009c1.18,3.965-2.825,8.091-3.88,11.92C1277.538,1451.104,1276.183,1455.73,1272.333,1454.433z"
		/>
	<path style="fill:#231F20;" d="M1319.265,1445.304c-3.104-2.372,0.829-5.437,2.364-7.453c1.6-1.609,2.067-4.227,3.81-5.569
		c0.002,0.002,0.005,0.004,0.008,0.006c4.299-0.943,1.075,4.709,0.264,6.534C1324.279,1441.359,1323.312,1447.113,1319.265,1445.304
		z"/>
	<path style="fill:#231F20;" d="M1621.927,1390.266c-1.558-3.576,3.357-4.79,5.729-5.982c-0.053,0.022-0.105,0.045-0.157,0.066
		c4.503-0.914,17.208-10.193,19.01-3.05c0.131,1.878-1.334,3.9-3.229,4.207C1637.989,1385.044,1623.937,1393.409,1621.927,1390.266z
		"/>
	<path style="fill:#231F20;" d="M1647.345,1403.836c-0.73-3.683,18.719-14.636,19.308-8.345c0.047,6.825-10.415,4.695-14.342,8.633
		C1651.447,1406.442,1647.562,1406.66,1647.345,1403.836z"/>
	<path style="fill:#231F20;" d="M258.569,1415.005c-2.514-4.98-3.772-10.472-6.278-15.46c-1.627-2.593-3.21-7.271,0.923-8.308
		c6.051,0.627,9.131,14.919,11.642,20.036C266.346,1414.785,260.744,1418.607,258.569,1415.005z"/>
	<path style="fill:#231F20;" d="M280.667,1402.015c-1.539-3.727-2.533-7.652-3.709-11.502c0.008,0.024,0.015,0.049,0.022,0.073
		c-0.312-1.448-0.934-2.711-1.533-4.03c-0.807-3.432,4.544-5.945,5.952-2.257c0.57,5.286,9.263,15.666,4.248,18.932
		C283.965,1404.391,281.544,1404.069,280.667,1402.015z"/>
	<path style="fill:#F7941D;" d="M1364.168,1264.69c-2.091-0.623-3.606-2.557-3.971-4.663c-18.963,5.956-39.847,3.28-59.503,3.249
		c-33.332-2.216-65.882-9.452-98.771-14.626c-66.652-9.052-133.535-15.316-200.301-23.269c-9.225,2.741-8.944-9.894-10.606-15.785
		c-2.08-14.097-5.884-27.926-7.047-42.149c-14.853-7.11-35.959-17.421-36.464-36.206c-0.013,0.095-0.027,0.185-0.041,0.276
		c-0.947-8.377-1.041-16.819-0.642-25.278c0,0.023,0,0.045,0,0.068c0.014-2.176,0.027-4.351,0.041-6.526
		c0,0.348-0.004,0.701-0.004,1.049c0.004-0.905,0.009-1.814,0.013-2.718c0,0.353-0.005,0.701-0.005,1.054
		c0.023-4.69,0.095-9.38,0.145-14.071c0,0.353-0.005,0.706-0.005,1.058c2.131-51.844-1.352-103.574-2.719-155.379
		c1.696-9.574-11.01-48.748-1.678-49.801c3.276-4,6.882-2.699,10.932-1.949c4.366,0.185,9.564-0.819,12.904,2.727
		c7.745,13.31,12.357,28.459,22.277,40.646c18.693,23.915,36.915,48.116,54.837,72.612c14.077,15.849,29.505,30.271,44.719,44.97
		c18.565-42.865,53.964-75.438,78.064-115.077c26.212-38.254,76.28-93.905,52.464-142.823
		c-13.817-21.962-42.812-20.971-62.631-33.703c-4.038-3.781-5.111-10.64-1.541-15.067c5.566-5.354,14.685-4.218,21.773-6.265
		c59.003-7.874,150.038,0.402,202.038,30.239c41.709,24.55,61.154,45.789,66.249,95.282c6.241,20.371-19.75,22.997-31.654,32.578
		c-19.994,12.916-38.014,28.115-53.871,45.894c-10.58,12.493-23.028,24.39-30.527,39.013c2.918,13.167,2.957,26.766,4.664,40.146
		c4.918,39.845,18.422,77.942,29.407,116.379c3.948,8.403,9.924,16.359,9.834,26.052c-0.422,9.637,2.792,18.906,2.741,28.539
		c1.683-0.971,3.662,0.566,3.36,2.393c0.009-0.036,0.018-0.072,0.027-0.104c-3.121,20.642-1.106,41.785-4.154,62.552
		C1373.536,1252.775,1374.455,1266.463,1364.168,1264.69z M1359.538,1250.248c0.342-0.074,0.684-0.148,1.025-0.221
		c0.001-0.031,0.002-0.061,0.003-0.092L1359.538,1250.248z M1107.625,1029.233l-0.109,0.194c0.585-0.989,1.186-1.986,1.804-2.993
		C1108.751,1027.364,1108.176,1028.292,1107.625,1029.233z"/>
	<path style="fill:#F7941D;" d="M865.682,957.961c-27.507-2.154-54.887-6.504-82.484-7.301c-8.823-1.561-24.562,4.569-27.396-7.348
		c-1.922-50.758,10.568-101.72,61.543-123.291c1.814-7.241,11.225-9.969,15.844-3.618c5.9,5.226,12.195,10.106,16.459,16.861
		c8.094,10.974,13.564,23.614,19.49,35.83c6.825,18.182,6.041,37.863,6.617,56.971C874.496,935.584,878.593,956.235,865.682,957.961
		z"/>
	<path style="fill:#F7941D;" d="M1090.318,1349.103c-13.369-0.381-26.658-2.067-40.038-2.064c-9.628-0.691-42.949,2.81-44.528-9.148
		c-0.399-5.223,0.523-10.497,1.413-15.646c-0.359-9.304-3.128-18.37-3.366-27.658c0.008,0.003,0.014,0.007,0.022,0.01
		c0.05-4.859,6.031-9.377,10.404-6.325c1.909-0.642,4.327,0.248,5.452,1.828c0.002-0.009,0.005-0.018,0.007-0.028
		c1.639,2.317,1.031,5.329,0.844,7.98c19.648,5.979,37.187,17.175,56.497,24.069c10.616,3.831,23.983,1.635,33.138,8.7
		C1127.521,1320.553,1126.421,1355.093,1090.318,1349.103z"/>
	<path style="fill:#F7941D;" d="M1153.112,1357.14c-11.616-1.292-25.212-0.582-35.28-6.937c-2.519-4.056,2.117-7.793,6.13-6.54
		c10.571,2.466,29.464-4.782,36.865,3.158C1163.386,1351.814,1158.675,1358.232,1153.112,1357.14z"/>
	<path style="fill:#F7941D;" d="M1170.743,1362.009c-10.799-0.967-21.594-0.896-32.339-3.036c-2.951-0.521-6.118-0.416-8.915-1.577
		c-2.588-1.342-1.342-5.522,1.342-5.859c-0.001-0.004-0.002-0.008-0.003-0.012c8.914-1.047,17.86,0.252,26.777,0.089
		c8.208-2.359,16.278-0.524,24.255,1.979c2.148,0.542,3.021,3.079,2.623,5.047
		C1183.04,1364.988,1175.351,1362.471,1170.743,1362.009z"/>
	<path style="fill:#F7941D;" d="M885.935,801.112c-20.303-11.087,13.251-33.318,25.961-26.061
		C927.54,788.347,899.188,805.959,885.935,801.112z"/>
	<path style="fill:#F7941D;" d="M1001.586,755.783c-27.271-9.492-1.356-31.231,14.551-35.92c14.264-6.292,34.37,6.473,19.651,20.67
		C1026.423,748.601,1014.614,757.393,1001.586,755.783z"/>
	<path style="fill:#231F20;" d="M1014.53,904.328c-5.765-10.607-8.708-22.531-14.442-33.162
		c-62.676,29.663-96.883-3.803-128.889-55.767c0.004,0.005,0.009,0.014,0.014,0.018c-26.442-40.462-53.765-81.155-71.598-126.279
		c-11.504-20.345-19.598-42.307-22.537-65.632c0.005,0.086,0.009,0.176,0.014,0.262c-0.013-0.215-0.024-0.42-0.036-0.638
		c0.005,0.068,0.009,0.131,0.013,0.199c-0.367-4.534,0-9.073,0.344-13.596c-0.005,0.032-0.005,0.068-0.009,0.104
		c0.015-0.217,0.036-0.434,0.045-0.651c0,0.005,0,0.005,0,0.009c3.787-80.38,76.061-139.161,148.717-159.997
		c-19.745-38.307-33.6-142.96,9.275-168.822c11.255-7.161,25.488-12.282,37.849-4.748c30.353,18.605,30.392,63.842,26.867,95.4
		c-2.426,26.561-19.38,48.985-23.792,74.751c33.541,3.926,60.555,26.571,80.508,52.461c21.241,25.19,40.234,52.463,52.945,83.008
		c-0.095-0.204-0.194-0.407-0.289-0.615c3.9,7.651,6.627,15.785,9.231,23.949c-0.032-0.095-0.068-0.195-0.099-0.289
		c0.402,1.23,0.805,2.46,1.199,3.695c-0.068-0.213-0.136-0.425-0.204-0.638c0.403,1.248,0.801,2.497,1.199,3.749
		c41.68,2.359,37.048,37.158,17.562,63.312c5.579,26.265,14.753,52.162,27.11,76.034c-0.023-0.05-0.045-0.095-0.068-0.145
		c1.253,2.641,2.501,5.283,3.736,7.933c-0.099-0.208-0.199-0.412-0.298-0.62c5.248,10.084,10.566,21.165,20.688,27.155
		c5.149,6.17-1.991,11.33-7.801,5.73c-10.83-7.128-16.68-19.566-22.267-30.845l0.005,0.005c-0.038-0.079-0.079-0.154-0.109-0.235
		c-0.048-0.095-0.098-0.199-0.145-0.299c0,0,0,0,0,0c-0.002-0.004-0.003-0.009-0.005-0.014c0,0.002,0,0.003,0,0.005
		c-0.007-0.015-0.014-0.029-0.021-0.044c0.004,0.007,0.007,0.014,0.012,0.022c-11.976-21.501-20.161-44.722-26.703-68.386
		c-6.379-16.686-1.831-21.981,7.313-35.717c-0.018,0.023-0.032,0.05-0.05,0.072c11.52-17.824,3.511-34.8-18.155-35.233
		c-7.663,8.19-14.301,17.924-16.875,29.01c-6.398,14.422-14.189-8.998-16.997-14.514c-3.253-7.667-7.028-15.103-11.321-22.244
		c-50.585-96.018-154.013-67.051-225.122-12.185l0.005-0.005c-19.271,12.979-36.484,29.364-48.291,49.494
		c0.09-0.131,0.181-0.267,0.271-0.403c-3.92,6.168-7.708,13.013-7.571,20.498c8.502,13.606,15.171,28.092,22.062,42.593
		c18.927,32.296,37.852,64.678,58.672,95.794c0-0.005,0-0.005,0-0.005c19.918,30.541,45.052,73.359,87.282,68.007
		c12.645-1.024,23.999-6.873,35.871-10.756c1.311-1.496,3.813-1.263,5.061,0.213c4.915-1.597,5.759,5.066,7.363,8.236
		c3.615,7.943,7.444,15.798,10.588,23.949C1026.896,903.137,1018.728,911.326,1014.53,904.328z"/>
	<path style="fill:#231F20;" d="M934.02,809.082c-8.712-2.634-6.884-15.431-9.123-22.62c-4.121-21.068-7.383-42.675-16.168-62.419
		c-1.391-2.272-3.143-7.509,1.086-7.585c6.868,4.088,9.34,13.701,12.737,20.656c7.583,20.431,13.01,41.821,15.113,63.534
		c5.683-2.264,10.177-8.982,11.771-14.781c-0.032,0.158-0.063,0.317-0.095,0.475c1.518-4.665-0.114-9.68,0.849-14.188
		c1.717-3.231,6.217-1.115,5.541,2.253C956.984,788.192,949.945,808.22,934.02,809.082z"/>
	<path style="fill:#231F20;" d="M953.286,844.151c-0.991-0.126-1.77-0.83-2.207-1.705c-1.066,0.712-2.849-2.266-1.644-2.667
		c-2.636-32.665,44.624-26.661,33.157-9.875C973.095,834.884,963.172,840.151,953.286,844.151z M955.38,832.165
		c-0.059,1.883,0.009,3.779,0.029,5.665c6.986-2.638,13.243-6.825,20.156-9.649c-0.099,0.045-0.199,0.09-0.299,0.136
		c1.257-0.601,2.56-1.135,3.692-1.948c-7.587-2.535-19.441-3.223-23.64,5.123C955.369,831.713,955.39,831.94,955.38,832.165z"/>
	<path style="fill:#231F20;" d="M884.995,805.355c-0.92-3.151-6-21.871-2.335-22.438c3.284,2.276,3.463,14.028,5.768,18.467
		c-0.036-0.109-0.072-0.222-0.109-0.33C890.298,803.621,887.82,808.759,884.995,805.355z"/>
	<path style="fill:#231F20;" d="M898.058,799.719c-5.221-4.377-3.565-13.834-5.253-20.131c-0.052-2.396,3.36-2.602,3.335-0.109
		c-0.009-0.091-0.014-0.185-0.018-0.276c0.014,0.106,0.032,0.21,0.05,0.313c-0.003-0.02-0.007-0.04-0.01-0.06
		C895.629,783.871,904.107,800.449,898.058,799.719z"/>
	<path style="fill:#231F20;" d="M910.091,790.163c-1.211-4.925-0.657-10.187-2.017-15.111c0.018,0.045,0.032,0.095,0.05,0.145
		c-0.382-0.735-0.726-2.075,0.461-2.216c3.627,2.846,2.888,9.376,4.805,13.516C915.337,789.18,912.454,793.871,910.091,790.163z"/>
	<path style="fill:#231F20;" d="M993.572,748.66c-0.071-3.974-4.411-20.582-0.513-21.479c2.188-0.716,3.573,2.069,2.369,3.746
		c0.135,1.275,0.37,2.545,0.581,3.812c-0.023-0.109-0.041-0.217-0.063-0.326C996.49,737.306,1000.748,755.072,993.572,748.66z"/>
	<path style="fill:#231F20;" d="M1008.807,740.307c-3.554-3.58-0.911-9.798-1.827-14.353c-0.432-0.35-0.649-0.963-0.569-1.526
		c-0.004,0.051-0.007,0.101-0.01,0.153c-0.152-1.369,0.859-3.442,2.406-2.234c2.213,3.052,1.823,7.225,2.637,10.779
		C1012.236,735.733,1013.398,741.569,1008.807,740.307z"/>
	<path style="fill:#231F20;" d="M1028.93,731.052c-0.506-2.323-0.779-4.684-0.855-7.06c0.009,0.145,0.018,0.285,0.027,0.43
		c0.524-4.399-2.538-10.549,0.673-14.008c4.993-1.431,2.85,8.78,4.287,11.758c0.262,3.421,3.444,8.846-0.631,10.957
		C1030.94,733.688,1029.225,732.633,1028.93,731.052z"/>
	<path style="fill:#231F20;" d="M861.754,764.409c-21.223-4.453-23.069-12.947-6.695-26.911
		c10.483-13.977,29.976-19.754,46.779-16.436c7.061,1.28,4.361,11.344,2.174,15.883
		C897.306,753.258,879.962,766.852,861.754,764.409z M869.551,754.808c14.284-2.041,27.818-12.349,30.808-26.854
		c-13.09,2.81-28.092,3.008-38.896,11.717c-1.136,4.378-5.981,7-7.892,11.185C858.474,753.272,863.996,755.439,869.551,754.808z"/>
	<path style="fill:#231F20;" d="M961.123,709.942c-26.199-2.194-4.923-30.111,4.541-40.123
		c12.806-10.438,30.531-17.822,47.151-17.528c34.405,3.757,23.742,18.042,5.116,35.892
		C1004.285,701.68,980.097,709.825,961.123,709.942z M970.195,700.347c22.655-5.083,50.342-14.467,60.583-36.913
		c-11.633-3.044-24.078-4.937-35.204,0.82c-16.559,5.61-33.673,15.896-39.071,33.454
		C960.349,700.639,965.574,700.614,970.195,700.347z"/>
	<path style="fill:#231F20;" d="M873.075,756.979c-10.388-6.333-0.54-27.314,11.23-22.537
		C899.471,739.984,885.383,761.39,873.075,756.979z"/>
	<path style="fill:#231F20;" d="M981.366,693.02c-9.918-13.108,13.536-27.691,21.547-13.867
		C1008.899,690.27,988.753,703.862,981.366,693.02z"/>
	<path style="fill:#231F20;" d="M849.255,746.19c-5.171-1.461-10.235-3.306-15.513-4.452c-1.638,0.457-2.699-1.748-1.835-3.046
		c0-0.001-0.001-0.001-0.001-0.002c0.339-2.059,14.802,1.94,18.159,1.618C853.416,740.851,852.595,746.615,849.255,746.19z"/>
	<path style="fill:#231F20;" d="M859.136,738.822c-7.531-1.51-19.176-2.321-24.578-7.633c-0.234-1.598,1.464-2.843,2.841-1.874
		c4.306,1.946,9.07,2.548,13.709,3.207c3.241,1.079,9.994-1.262,10.494,3.419C861.62,737.304,860.587,738.803,859.136,738.822z"/>
	<path style="fill:#231F20;" d="M868.878,731.019c-6.067-1.84-11.789-4.745-17.879-6.563c-1.99-0.587-5.171-1.618-4.066-4.302
		c0.617-1.65,2.973-1.984,3.67-0.231c6.544,2.954,14.323,3.536,20.691,6.105C872.773,727.819,871.382,731.406,868.878,731.019z"/>
	<path style="fill:#231F20;" d="M999.034,658.328c-1.621-1.928-0.465-4.734-0.312-6.979c0.65-4.586,0.601-9.24,0.633-13.84
		c0.215-2.217,3.347-2.559,3.701-0.215c0.32,1.614,0.28,3.326,0.433,4.978c-0.001-0.027-0.002-0.053-0.003-0.08
		C1003.139,645.731,1005.815,661.717,999.034,658.328z"/>
	<path style="fill:#231F20;" d="M1012.023,657.264c-4.627-2.196,0.228-9.038,0.188-12.883c1.321-4.106,0.702-9.747,3.366-13.033
		c2.201,0.791,0.628,4.736,0.895,6.644c0-0.009,0.001-0.018,0.001-0.026c-0.006,0.086-0.012,0.172-0.018,0.258
		c0.001-0.01,0.002-0.021,0.003-0.031c-0.009,0.13-0.018,0.259-0.03,0.388c0.009-0.086,0.014-0.172,0.023-0.258
		c-0.011,0.118-0.02,0.238-0.028,0.358c0-0.006,0.001-0.012,0.001-0.019c-0.016,0.206-0.031,0.409-0.044,0.612
		c0.001-0.007,0.001-0.013,0.002-0.02C1015.221,643.458,1017.124,656.644,1012.023,657.264z"/>
	<path style="fill:#231F20;" d="M1024.053,654.104c0.287-3.317,1.961-6.33,2.406-9.647c-0.032,0.136-0.059,0.267-0.086,0.403
		c0.406-2.333,0.73-4.664,0.873-7.029c-0.009,0.122-0.018,0.244-0.027,0.366c0.068-0.941,0.027-1.94,0.213-2.863
		c-0.004,0.046-0.006,0.092-0.009,0.138c0.016-1.697,2.093-3.082,3.442-1.73c1.622,3.978,0.186,9.057,0.163,13.374
		c0.009-0.145,0.018-0.285,0.027-0.43c-0.285,2.405-0.069,4.785,0.113,7.178C1031.347,658.958,1023.927,659.436,1024.053,654.104z"
		/>
	<path style="fill:#231F20;" d="M819.339,729.624c-7.95-2.712-0.868-12.879,2.43-16.96c-0.07,0.08-0.139,0.159-0.209,0.239
		c0.162-0.185,0.322-0.37,0.484-0.556c-0.088,0.103-0.178,0.206-0.268,0.31c7.547-9.339,16.621-17.218,23.507-27.049
		c3.664-3.471,5.853-9.716,10.786-11.254c3.5-0.085,4.977,4.376,3.316,7.048c-12.404,15.474-25.158,30.749-36.576,46.975
		c-0.001-0.003-0.002-0.005-0.003-0.008C821.901,729.273,820.627,729.809,819.339,729.624z"/>
	<path style="fill:#231F20;" d="M914.106,646.406c-5.9-0.803-6.824-9.663-2.293-12.8c9.468-4.128,19.823-6.266,29.762-9.13
		c18.993-4.731,37.632-10.776,56.688-15.29c11.521-2.578,23.508-3.633,35.156-1.49c4.774-1.057,7.644,4.171,2.28,5.811
		c-11.374,1.946-22.864,3.633-34.041,6.645c0.007-0.002,0.013-0.004,0.02-0.006c-0.172,0.048-0.344,0.096-0.516,0.145
		c0.068-0.018,0.136-0.037,0.204-0.056c-1.023,0.292-2.045,0.587-3.072,0.874c0.176-0.05,0.357-0.099,0.534-0.149
		C970.795,630.055,942.006,637.335,914.106,646.406z"/>
	<path style="fill:#231F20;" d="M822.615,721.729c-6.987-7.387,24.37-37.785,28.633-47.296c10.467-12.373,17.862-2.217,8.188,8.716
		c0.109-0.167,0.222-0.339,0.335-0.511c-8.275,11.586-16.609,23.16-26.075,33.802c-1,2.754-4.308,5.649-6.633,2.431
		C825.434,719.716,824.892,722.733,822.615,721.729z"/>
	<path style="fill:#231F20;" d="M847.31,616.501c-0.735-13.518-2.612-27.947-0.038-41.235c2.462-4.1,7.404,0.817,4.85,4.062
		c-0.072,2.391,0.041,4.798,0.096,7.182c0-0.024,0-0.049,0-0.073c0.28,9.394,0.835,18.772,1.583,28.137
		C854.396,618.435,848.401,620.906,847.31,616.501z"/>
	<path style="fill:#231F20;" d="M859.571,608.124c-1.843-9.61,0.466-19.515,0.167-29.228c0.415-2.689-1.928-7.308,1.646-8.362
		c0.801-0.135,1.588,0.253,1.981,0.964c0.92,9.482-0.381,19.376,0.667,28.967c0.395,3.032,3.008,7.301-0.776,9.156
		C861.883,610.252,860.046,609.676,859.571,608.124z"/>
	<path style="fill:#231F20;" d="M875.355,606.18c-3.807-5.76,0.154-16.076-0.626-23.062c0.917-5.053-0.821-21.503,5.491-22.104
		c1.426,0.394,1.869,2.163,1.272,3.393c-2.568,7.117-1.343,15.055-1.5,22.499c-0.002-0.062-0.003-0.124-0.006-0.187
		c0.004,0.139,0.008,0.277,0.009,0.416c0-0.04,0-0.079-0.001-0.118c0.01,0.371,0.018,0.742,0.028,1.113
		c-0.003-0.099-0.006-0.199-0.01-0.298c0.01,0.323,0.013,0.648,0.024,0.971c0-0.034-0.001-0.069-0.001-0.103
		C879.12,593.901,885.221,608.684,875.355,606.18z"/>
	<path style="fill:#231F20;" d="M797.326,562.691c-8.266-3.356,23.984-41.063-0.729-60.76c-27.85,21.96-35.457-24.202,0.203-6.515
		c3.066-5.839,5.109-13.171,3.674-19.723c-0.399-1.072,0.081-2.366,1.049-2.963c7.51-1.377,1.146,21.298-1.39,24.718
		c12.308,9.386,11.608,27.113,7.889,40.642c0.027-0.113,0.054-0.226,0.081-0.339c-1.596,7.278-5.584,13.682-7.954,20.652
		C801.785,560.23,799.698,563.71,797.326,562.691z M784.037,503.178c2.834-0.017,5.635-1.104,7.945-2.708
		c-0.043,0.03-0.087,0.06-0.129,0.089c0.302-0.221,0.599-0.446,0.89-0.676c-3.606-1.197-17.353-6.684-14.844,1.1
		c-0.022-0.034-0.045-0.068-0.068-0.103C779.43,502.525,781.816,503.067,784.037,503.178z"/>
	<path style="fill:#231F20;" d="M1048.33,510.015c-0.301-17.377,9.346-35.718,23.908-45.338c-0.972-3.31-6.458-8.383-2.479-11.176
		c3.803-1.026,3.262,5.265,5.012,7.422c-0.02-0.046-0.042-0.092-0.064-0.138c0.307,0.666,0.62,1.33,0.941,1.992
		c34.983-12.304,14.629,33.872-1.14,6.017c-10.279,5.891-16.44,16.549-20.583,27.313c0.004-0.012,0.008-0.024,0.013-0.037
		C1051.781,498.258,1051.98,513.774,1048.33,510.015z M1085.706,473.914c2.541-0.335,5.164-2.288,5.563-4.922
		c0.001,0.024,0.001,0.049,0.003,0.073c-0.004-0.08,0.007-0.16,0.014-0.24c-0.006,0.043-0.01,0.086-0.015,0.128
		c-0.001-0.044-0.003-0.088-0.005-0.132c0.007,0.105,0.001,0.207-0.016,0.312c0.026-0.317,0.005-0.639-0.1-0.94
		c0.011,0.037,0.021,0.074,0.032,0.112c-2.591-4.237-9.38-2.679-13.299-1.259c0.46,0.804,0.94,1.596,1.444,2.371
		c-0.045-0.072-0.091-0.14-0.136-0.213C1080.704,471.418,1082.704,474.156,1085.706,473.914z"/>
	<path style="fill:#231F20;" d="M749.816,625.776c-2.171-5.535,19.947-12.487,24.464-11.805c5.254,0.592,10.879,1.535,15.447,4.31
		c2.421,4.476-5.077,0.656-6.923,0.603c0.026,0.006,0.053,0.012,0.08,0.017c-0.378-0.078-0.752-0.15-1.132-0.225
		c0.021,0.004,0.043,0.008,0.064,0.012c-0.138-0.027-0.279-0.052-0.42-0.081c0.012,0.002,0.025,0.004,0.037,0.006
		c-5.153-1.094-10.552-1.261-15.476,0.863c0.001,0,0.001,0,0.002-0.001c-2.657,1.034-5.203,2.325-7.721,3.66
		c0.012-0.006,0.025-0.013,0.037-0.019C755.633,623.808,752.225,628.672,749.816,625.776z"/>
	<path style="fill:#231F20;" d="M971.817,456.741c0.14-1.524,0.516-3.062,1.058-4.491c-0.023,0.063-0.045,0.127-0.068,0.19
		c0.121-0.323,0.241-0.642,0.362-0.961c-0.011,0.028-0.022,0.055-0.033,0.082c0.64-1.686,1.312-3.364,1.957-5.05
		c-0.005,0.012-0.01,0.023-0.015,0.035c7.868-21.563,20.582-45.58,42.565-55.157c-0.081,0.032-0.158,0.059-0.24,0.09
		c3.092-0.45,9.374-5.506,11.262-1.733c0.267,1.177-0.448,2.584-1.642,2.923c-3.617,1.054-7.219,2.147-10.729,3.523
		c-11.657,4.483-19.01,15.262-26.024,25.03c0.041-0.059,0.081-0.118,0.118-0.176c-4.49,6.324-8.314,13.121-10.91,20.447
		c0.002-0.004,0.004-0.009,0.005-0.013c-0.168,0.444-0.336,0.887-0.503,1.331c0.002-0.005,0.004-0.01,0.006-0.014
		c-0.024,0.063-0.048,0.127-0.072,0.19c0-0.001,0.001-0.002,0.001-0.002c-0.352,0.924-0.702,1.847-1.051,2.767
		c0.012-0.03,0.024-0.061,0.037-0.092c-1.201,3.607-3.267,7.039-3.428,10.905C974.523,458.315,971.736,458.708,971.817,456.741z"/>
	<path style="fill:#231F20;" d="M801.043,1317.866c-5.278-16.946-5.059-35.429-7.125-53.031
		c-1.975-27.187-5.575-54.253-5.955-81.539c-1.826-54.561-4.917-109.056-6.975-163.611c-0.902-24.138-6.199-49.182-2.552-73.027
		c10.31-10.363,8.24,32.304,10.156,37.341c-0.027-0.267-0.059-0.534-0.086-0.796c11.677,105.847,8.021,212.847,18.82,318.832
		c-0.023-0.244-0.05-0.484-0.077-0.728c0.328,4.508,1.643,8.902,1.859,13.397C809.1,1318.677,803.571,1321.638,801.043,1317.866z"/>
	<path style="fill:#231F20;" d="M821.779,1321.062c-2.949-0.018-5.133-3.003-4.717-5.848c1.935-11.539,4.857-22.902,7.34-34.338
		c8.399-35.728,14.523-71.946,20.448-108.151c12.113-78.36,18.074-157.553,24.351-236.517c-0.142-18.76,0.246-38.215-6.243-56.08
		c-13.152-26.591-35.236-47.902-47.728-74.969c-6.681-14.734-15.668-29.361-15.618-46.034c-0.992-12.377,11.16-24.848,20.717-11.583
		c2.821-15.547,15.653-6.027,8.463-1.959c-3.063,15.996,6.548,31.58,12.932,45.708c2.62,5.7,12.065,20.858-0.442,20.299
		c-7.719-5.139-11.025-15.2-13.696-23.718c-2.156-5.483-11.383-46.877-19.448-34.198c0.09-0.208,0.176-0.416,0.267-0.62
		c-3.258,22.227,15.195,47.586,26.476,65.965c18.164,23.659,42.027,46.62,44.425,77.967c5.479,42.401-2.826,84.71-6.047,126.949
		c-6.534,98.341-23.942,195.59-45.835,291.564c0.001-0.007,0.002-0.014,0.003-0.021
		C827.101,1318.324,824.799,1321.071,821.779,1321.062z"/>
	<path style="fill:#231F20;" d="M398.648,1391.72c-1.719-0.906-2.635-2.759-2.429-4.681c-1.56-3.209-2.957-6.497-4.197-9.842
		c-0.63,0.161-1.31-0.245-1.438-0.873c-4.76-1.657-4.959-7.754-6.988-11.691c-4.155-10.759-8.017-21.642-12.578-32.244
		c-27.5-61.413-48.522-125.344-71.71-188.437c-4.56-12.685-9.527-25.22-12.949-38.282c-2.766-8.929-3.616-18.51-10.526-25.414
		c-3.763-12.174,15.74-11.698,23.464-13.008c17.197-2.868,34.522-4.725,51.946-5.662c69.984-4.065,140.091-2.7,210.115-5.481
		c36.061-1.623,72.236-2.073,108.278,0.04c6.31-0.178,13.182,1.604,19.195-0.22c4.3-2.009,7.785,2.47,9.692,5.816l-0.005-0.005
		c0.107,0.17,0.206,0.341,0.312,0.507c-0.003-0.003-0.005-0.006-0.007-0.009c0.019,0.031,0.038,0.066,0.057,0.094
		c0-0.001,0-0.002-0.001-0.003c25.724,57.439,35.472,120.465,51.856,180.918c6.847,23.035,14.933,45.661,22.289,68.531
		c0.974,6.91,11.894,20.033,2.474,23.894c0.497,1.845,0.977,3.7,1.447,5.55c71.751-1.743,143.611-8.444,215.367-4.138
		c-0.163-0.009-0.33-0.023-0.502-0.032c43.672,2.885,88.38,1.897,131.53,3.315c7.587-0.836,13.04,3.324,11.387,11.819
		c-0.196,7.429,1.451,14.807,0.866,22.202c-1.657,10.738-16.41,7.17-24.279,9.282c-46.725,3.454-93.599,2.895-140.409,2.346
		c-31.86,0.616-63.714,1.373-95.573,0.253c-65.735-1.035-131.45-0.081-197.175,0.771c-45.506,0.921-91.056-0.302-136.51,2.168
		C494.075,1391.328,445.885,1388.514,398.648,1391.72z M1033.052,1351.588c1.195,0.065,2.361,0.128,3.507,0.188
		C1035.39,1351.723,1034.221,1351.619,1033.052,1351.588z M318.155,1160.632c-0.427-1.052-0.849-2.108-1.269-3.167
		c0.396,1.004,0.793,2.008,1.196,3.01c-0.022-0.056-0.045-0.112-0.067-0.168C318.059,1160.415,318.104,1160.527,318.155,1160.632z
		 M377.337,1072.259l-0.371,0.032c1.596-0.116,3.183-0.226,4.775-0.331C380.274,1072.06,378.802,1072.138,377.337,1072.259z
		 M563.72,1067.248c1.023-0.081,2.008-0.155,2.961-0.221C565.696,1067.104,564.702,1067.137,563.72,1067.248z"/>
	<path style="fill:#231F20;" d="M776.892,1350.44c-0.43-0.275-0.766-0.625-1.047-1.018c-4.09-0.858-4.823-16.807-7.312-21.336
		c-0.737-0.315-1.211-1.066-1.199-1.949c-0.001,0.012-0.001,0.024-0.002,0.036c-2.752-4.032,6.164-9.058,7.447-1.323
		c2.215,6.268,3.841,12.705,6.586,18.783C783.741,1346.913,781.168,1352.652,776.892,1350.44z"/>
	<path style="fill:#231F20;" d="M808.954,1350.082c-8.642-13.165-10.664-35.505-11.26-51.235c0.482-5.181,8.127-5.762,8.432-0.166
		c-0.003-0.016-0.005-0.031-0.008-0.047c0.956,5.413,1.833,10.841,2.735,16.263c-0.003-0.018-0.006-0.035-0.008-0.053
		c1.407,9.146,3.354,18.183,5.97,27.06C817.044,1345.876,814.002,1352.96,808.954,1350.082z"/>
	<path style="fill:#231F20;" d="M822.957,1320.521c-6.286,0.108,0.42-17.481,3.957-16.193c2.013,1.513-0.017,4.726,0.521,6.911
		C827.086,1314.553,827.764,1320.646,822.957,1320.521z"/>
	<path style="fill:#231F20;" d="M1419.165,1383.767c0.231,0.009,0.457,0.014,0.688,0.023c-47.326-0.678-94.441-4.593-141.331-10.883
		c-40.393-4.314-80.69-9.85-120.259-19.203c-19.453-4.296-37.179-13.35-55.849-19.933c-32.467-11.024-64.059-23.772-94.803-38.906
		c-8.276,3.468-10.063,13.792-15.991,19.833c-10.133,12.141-18.256,3.973-14.34-9.337c-5.542,9.424-19.182,30.145-26.62,10.526
		c-2.934-13.654,2.924-27.484,8.476-39.735c-6.437,4.967-9.683,12.6-13.521,19.534c0.025-0.046,0.05-0.091,0.075-0.137
		c-5.417,10.151-11.865,32.853-22.796,12.347c-4.636-14.554,6.151-28.092,12.434-40.416c-0.005,0.011-0.011,0.021-0.016,0.032
		c1.743-3.34,3.578-6.675,4.669-10.296c-10.399,3.616-21.426,6.278-30.537,12.707c-8.015,5.253-20.552,26.908-26.913,8.394
		c0.374-19.051,18.428-33.997,33.261-43.709c26.862-17.354,59.633-15.514,90.17-13.653c26.089,1.775,51.467,8.79,77.45,11.365
		c13.107,2.507,26.37,3.326,39.679,3.83c13.992,1.193,27.672,4.571,41.706,5.536c46.496,6.692,93.164,12.793,140.103,15.393
		c24.39,0.32,48.776-0.571,73.088,1.039c-0.017,0.002-0.034,0.004-0.051,0.006c5.233-0.758,10.964-1.63,15.478-4.476
		c-2.599-18.599-12.374-35.301-16.853-53.462c-9.622-32.828-21.224-64.992-31.073-97.741c-7.867-32.978-12.297-66.582-16.39-100.182
		c0.045,0.28,0.091,0.556,0.136,0.837c-1.107-7.179-3.55-13.982-5.672-20.887c-1.872-6.223,7.9-12.026,10.932-5.129
		c6.007,14.781,7.881,30.778,9.525,46.531c3.5,28.544,8.464,57.241,16.289,84.937c7.017,22.015,15.729,43.44,21.53,65.831
		c-0.013-0.041-0.026-0.082-0.04-0.124c0.089,0.278,0.174,0.558,0.262,0.837c-0.063-0.205-0.126-0.407-0.19-0.611
		c6.273,26.417,20.397,51.481,22.188,78.649c-6.049,19.829-33.564,15.034-49.726,14.573c-19.356,0.374-38.739,0.693-58.094-0.172
		c-74.021-5.678-147.285-18.038-220.979-25.874c-58.4-7.134-150.71-33.382-184.615,31.939c0.05-0.208,0.099-0.412,0.145-0.615
		c-0.208,0.751-0.335,1.515-0.384,2.298c0.023-0.203,0.041-0.407,0.063-0.611c-0.015,0.811-0.021,1.899,0.72,2.395
		c0.307-0.332,0.607-0.67,0.909-1.006c-0.127,0.145-0.253,0.285-0.38,0.43c9.645-12.865,23.537-20.909,38.755-25.467
		c5.595-1.921,13.26-6.306,18.541-1.77c4.271,16.96-20.614,34.15-19.702,52.339c-0.005-0.186-0.009-0.371-0.018-0.556
		c-0.017,2.519,1.203,4.907,2.953,6.665c5.47-10.924,10.435-22.303,17.712-32.187c4.397-4.088,17.899-21.715,21.163-8.979
		c-1.213,15.021-20.59,35.491-10.122,49.775c8.768-4.973,23.124-46.86,30.772-37.744c3.204,9.249-10.232,23.752-8.512,35.167
		c6.874-4.582,9.116-13.339,14.109-19.612c11.102-16.698,28.025-3.046,42.448,1.288c22.57,10.946,46.861,17.476,70.136,26.713
		c15.857,5.592,30.697,13.75,47.151,17.679c40.962,10.706,83.109,15.521,125.067,20.53c48.384,6.886,97.049,10.912,145.908,12.196
		c31.191-0.808,75.324,6.728,91.161-27.685c4.09-18.221,0.96-37.475-0.987-55.846c-8.794-46.118-11.444-93.036-19.784-139.233
		c0.05,0.289,0.095,0.574,0.145,0.859c-10.35-68.437-24.63-136.257-43.831-202.739c0.086,0.276,0.172,0.552,0.258,0.828
		c-7.241-20.979-14.608-41.881-21.094-63.108c-0.884-5.35-4.626-11.225-2.199-16.476c7.382-8.582,10.63,5.644,12.333,11.203
		c6.852,18.594,12.91,37.444,20.169,55.898c24.85,75.585,37.645,154.414,49.786,232.876c5.655,38.829,8.529,77.974,15.608,116.612
		c2.064,19.415,4.481,39.536,0.198,58.793C1513.712,1389.28,1457.923,1383.876,1419.165,1383.767z"/>
	<path style="fill:#231F20;" d="M938.995,1225.372c0.885-56.722,2.098-113.78,2.796-170.626
		c0.699-34.116,6.287-68.152,3.201-102.303c-1.029-16.494-2.2-33.001-4.485-49.376c0.301-6.553-12.631-27.945-0.269-26.35
		c0,0,0-0.001,0-0.001c12.83,19.598,12.712,44.818,15.343,67.477c3.475,30.79,0.636,61.656-1.381,92.439
		c-2.559,60.734-2.421,121.569-5.534,182.293c0.011-0.106,0.022-0.212,0.035-0.319c-0.024,0.232-0.049,0.464-0.072,0.697
		c0.004-0.045,0.009-0.09,0.013-0.135C949.434,1224.959,942.716,1233.271,938.995,1225.372z"/>
	<path style="fill:#231F20;" d="M928.483,1340.259c-1.951-6.089,1.423-13.329,1.677-19.738c1.409-7.559,2.254-15.316,4.438-22.682
		c3.269-6.182,9.856-1.835,8.05,4.189C939.91,1308.49,939.743,1348.504,928.483,1340.259z"/>
	<path style="fill:#231F20;" d="M621.43,992.697c-13.265-1.477-22.039-16.447-12.886-27.555
		c-18.119,5.614-21.684-14.657-9.089-23.919c-30.711-11.184-5.403-38.489,18.298-28.848c-0.055-0.009-0.11-0.019-0.165-0.028
		c21.905,6.492,42.123-4.992,60.056-16.602c6.126-4.198,11.482-9.374,16.763-14.565c1.302-1.088,2.688-3.221,4.613-2.637
		c5.305,5.383-19.986,24.788-24.767,28.147c0.02-0.014,0.039-0.028,0.059-0.042c-46.284,34.305-59.436,1.354-80.243,16.198
		c-4.118,6.307,6.313,10.524,11.249,11.219c2.896,0.886,8.067-0.431,8.587,3.645c-0.025,6.546-14.498,6.217-15.506,16.624
		c-1.243,12.948,26.583-5.884,19.54,7.367c0.036-0.032,0.072-0.064,0.109-0.096c-3.682,4.334-9.101,10.418-6.857,16.457
		c4.563,7.797,15.396,10.742,20.964,2.335c14.119-22.935,33.999-41.224,59.096-51.452c-0.131,0.072-0.267,0.14-0.398,0.213
		c4.212-0.952,9.265-8.641,13.166-4.538c0.932,1.598,0.249,3.633-1.104,4.746c-12.976,9.365-29.146,13.681-40.479,25.465
		c0.071-0.064,0.141-0.128,0.212-0.191c-0.367,0.326-0.734,0.652-1.101,0.977c0.008-0.008,0.016-0.015,0.025-0.022
		c-0.129,0.115-0.259,0.229-0.389,0.344c0.039-0.033,0.077-0.066,0.115-0.099c-5.19,4.653-9.906,9.827-13.819,15.604
		c0.012-0.017,0.023-0.034,0.035-0.05c-0.092,0.131-0.185,0.263-0.277,0.394c0.011-0.017,0.023-0.033,0.035-0.05
		c-0.109,0.157-0.22,0.314-0.33,0.47c0.038-0.054,0.076-0.107,0.114-0.161c-0.625,0.896-1.249,1.788-1.874,2.685
		c0.109-0.158,0.217-0.317,0.33-0.475c-0.181,0.254-0.358,0.507-0.535,0.761c0.046-0.065,0.091-0.129,0.137-0.194
		C639.559,982.941,632.675,993.794,621.43,992.697z"/>
	<path style="fill:#231F20;" d="M645.176,942.952c2.962-4.431,8.777-6.211,13.157-9.01c11.343-6.744,22.068-14.495,33.818-20.556
		c1.148-0.507,2.501-0.1,2.985,1.117c1.07,3.247-3.002,4.257-5.111,5.541c0.011-0.006,0.022-0.012,0.033-0.019
		c-0.24,0.127-0.481,0.255-0.721,0.385c0.038-0.021,0.075-0.042,0.113-0.063c-13.63,7.537-27.034,15.704-40.125,24.062
		C648.263,947.005,644.176,945.769,645.176,942.952z"/>
	<path style="fill:#231F20;" d="M667.317,921.011c1.564-6.809,18.826-14.216,24.615-19.389c-0.063,0.045-0.127,0.09-0.19,0.136
		c7.656-5.302,15.38-10.49,22.913-15.97c-0.091,0.063-0.176,0.122-0.262,0.181c3.696-2.589,7.614-4.896,11.031-7.865
		c-0.099,0.091-0.199,0.181-0.298,0.267c3.397-4.148,7.816,1.372,3.636,4.193c-19.481,11.952-38.868,24.112-58.142,36.409
		c0.026-0.017,0.052-0.036,0.078-0.055c-0.606,0.423-1.203,0.852-1.765,1.339c0.014-0.012,0.027-0.023,0.041-0.035
		C668.485,920.593,667.813,922.284,667.317,921.011z"/>
	<path style="fill:#FFFFFF;" d="M833.139,554.566c0.408-6.349,0.386-14.027,4.683-19.086c2.777-2.548,5.569,2.038,2.874,4.071
		c-1.109,4.41-1.141,8.99-1.226,13.511c0-0.007,0-0.013,0-0.02C840.174,557.196,833.663,559.448,833.139,554.566z"/>
	<path style="fill:#FFFFFF;" d="M853.788,546.759c-2.506-1.12-0.662-19.563,3.165-18.078c3.06,1.052,1.098,5.551,1.534,8.014
		C858.51,540.251,859.977,549.177,853.788,546.759z"/>
	<path style="fill:#FFFFFF;" d="M872.597,536.296c-1.92-2.63,0.613-6.122,1.013-8.964c-0.027,0.091-0.05,0.181-0.077,0.271
		c0.519-1.266,1.59-10.236,3.193-5.817C876.256,525.602,880.185,539.656,872.597,536.296z"/>
	<path style="fill:#FFFFFF;" d="M998.364,512.004c-4.105-1.203-0.762-5.957-0.145-8.575c0.446-1.436,1.012-4.812,3.148-3.922
		C1002.719,502.185,1003.079,512.446,998.364,512.004z"/>
	<path style="fill:#FFFFFF;" d="M1013.116,518.067c-6.812-0.367-0.123-14.793,2.555-17.237c5.226-1.819,3.113,5.229,2.375,7.92
		C1017.048,512.044,1017.819,517.801,1013.116,518.067z"/>
	<path style="fill:#FFFFFF;" d="M1028.971,525.826c-4.43-1.121-1.521-6.185-0.719-9.01c0.619-2.22,0.121-5.903,3.316-6.029
		c1.798,0.009,2.58,1.954,2.093,3.486C1032.812,518.052,1034.747,525.824,1028.971,525.826z"/>
	<path style="fill:#FFFFFF;" d="M922.997,346.941c-3.051-2.563-0.489-8.254-0.888-11.89c0.177-8.166,1.265-16.432,5.732-23.469
		c2.948-7.817,12.493-6.52,7.671,1.231c-7.753,8.04-9.121,19.688-10.115,30.322C926.608,344.667,925.049,347.56,922.997,346.941z"/>
	<path style="fill:#FFFFFF;" d="M937.304,336.487c0.121-1.377,0.501-2.712,0.862-4.041c-0.012,0.043-0.023,0.086-0.034,0.129
		c0.021-0.08,0.043-0.161,0.064-0.241c-0.006,0.024-0.013,0.047-0.019,0.071c0.014-0.051,0.027-0.101,0.041-0.152
		c-0.005,0.02-0.011,0.04-0.016,0.06c0.07-0.259,0.139-0.518,0.211-0.778c-0.018,0.066-0.034,0.132-0.051,0.197
		c0.091-0.344,0.181-0.683,0.271-1.022c-0.005,0.022-0.011,0.043-0.016,0.065c2.296-8.134,4.736-18.777,12.236-23.485
		c3.01-0.382,3.802,3.681,1.815,5.392c-5.848,6.832-9.681,15.428-11.356,24.235C942.427,341.358,936.359,341.05,937.304,336.487z"/>
	<path style="fill:#FFFFFF;" d="M957.228,331.549c0.77-4.567,4.171-8.838,7.349-12.122c0.955-0.777,2.425-0.542,2.995,0.57
		c1.219,2.577-1.833,3.595-3.381,4.896C962.254,325.458,957.885,334.473,957.228,331.549z"/>
	<path style="fill:#FFFFFF;" d="M1211.059,754.405c-4.723-6.553-13.188-6.84-20.141-9.526c-0.418,0.129-0.836-0.061-1.032-0.428
		c-0.49-0.212-1.024-0.428-1.392-0.829c0.001,0,0.002,0,0.003,0c-4.285-7.639,22.396-1.664,24.552,1.035
		C1220.519,749.698,1216.733,757.893,1211.059,754.405z"/>
	<path style="fill:#FFFFFF;" d="M1243.451,797.758c0.66-4.837-2.352-18.813,2.328-20.837c4.724,0.5,0.651,9.49,1.437,12.823
		c-0.576,3.025,1.806,8.032-1.512,9.729C1244.611,799.787,1243.475,798.939,1243.451,797.758z"/>
	<path style="fill:#FFFFFF;" d="M1287.368,959.899c-3.271-0.978-19.623-6.831-13.217-11.054c0.903,0.166,2.489-0.391,2.269,1.139
		c3.898,2.91,15.56,1.273,14.648,7.702C1290.562,959.21,1288.949,960.364,1287.368,959.899z"/>
	<path style="fill:#FFFFFF;" d="M1295.612,933.663c-2.245-2.762-18.081-20.158-8.795-19.964c5.117,3.937,8.792,9.941,13.522,14.482
		C1303.219,931.018,1298.823,936.625,1295.612,933.663z"/>
	<path style="fill:#FFFFFF;" d="M1371.967,870.762c-5.091-3.727,14.366-18.171,16.883-22.656c5.942-3.592,7.866,4.464-0.004,8.005
		c-4.923,3.819-9.543,8.107-13.529,12.901C1374.69,870.235,1373.389,871.474,1371.967,870.762z"/>
	<path style="fill:#FFFFFF;" d="M774.135,918.402c-3.43-1.589-2.184-17.624,1.428-18.621c4.375-0.127,1.411,7.313,2.501,10.096
		C779.247,913.413,779.836,919.914,774.135,918.402z"/>
	<path style="fill:#FFFFFF;" d="M806.381,912.686c-5.553-0.974-1.218-7.252,0.016-10.267c0.972-1.579,0.16-4.931,2.703-4.899
		c3.065,2.354,0.549,8.092,0.815,11.583C809.778,910.918,808.294,912.691,806.381,912.686z"/>
	<path style="fill:#FFFFFF;" d="M1026.544,1183.86c-4.292-1.851-8.526-3.82-12.872-5.533c0.024,0.01,0.048,0.019,0.072,0.029
		c-2.923-1.595-25.041-6.424-15.876-10.746c5.882,4.198,35.322,5.966,32.68,14.554
		C1029.819,1183.668,1028.084,1184.544,1026.544,1183.86z"/>
	<path style="fill:#FFFFFF;" d="M1246.515,1174.412c-4.143-0.47-8.277-0.941-12.343-1.872c0.041,0.01,0.082,0.02,0.123,0.029
		c-0.22-0.049-0.438-0.099-0.657-0.15c0.043,0.01,0.087,0.02,0.131,0.03c-8.453-1.945-16.941-4.265-24.228-9.146
		c0.043,0.026,0.085,0.052,0.126,0.078c-3.613-2.725-9.393-4.416-10.932-8.964c-0.294-2.107,3.036-3.35,3.555-0.979
		c4.439,3.506,9.838,5.716,14.926,8.12c-0.095-0.036-0.194-0.077-0.294-0.113c9.931,3.767,20.703,4.552,31.149,6.002
		C1252.286,1168.255,1250.443,1175.012,1246.515,1174.412z"/>
	<path style="fill:#FFFFFF;" d="M1264.982,1165.078c-5.889-1.588-18.005-3.7-20.458-9.605c-0.339-2.616,3.899-3.616,3.947-0.63
		c2.57,1.244,5.388,1.811,8.149,2.483c-0.067-0.016-0.136-0.032-0.205-0.048c11.358,3.685,22.525,0.099,32.883-4.228
		c7.24,3.447-1.778,8.962-5.997,9.862c0.079-0.028,0.159-0.055,0.237-0.082C1277.656,1164.923,1271.204,1165.973,1264.982,1165.078z
		"/>
	<path style="fill:#FFFFFF;" d="M1322.573,1175.957c-2.792-2.718,1.823-5.246,3.191-7.393c0.675-2.303,3.715-3.511,3.385-0.192
		c0.042-0.134,0.068-0.272,0.086-0.411c-0.006,0.06-0.014,0.12-0.023,0.179c0-0.001,0-0.002,0.001-0.002
		C1327.982,1170.739,1326.402,1177.487,1322.573,1175.957z"/>
	<path style="fill:#FFFFFF;" d="M777.16,1362.271c-1.616-3.825-3.297-19.7,4.405-14.174c0,0,0,0,0-0.001
		c0.722,2.674,0.538,5.592,1.292,8.304c-0.002-0.011-0.005-0.021-0.007-0.032c0.031,0.145,0.06,0.29,0.09,0.434
		c-0.018-0.095-0.038-0.19-0.058-0.285c0.747,2.643,1.753,6.267-1.62,7.462C779.691,1364.598,777.735,1364.021,777.16,1362.271z"/>
	<path style="fill:#FFFFFF;" d="M410.886,1375.659c-2.679,0.307-10.57-0.24-5.269-3.804c14.54-1.474,29.259-1.432,43.877-1.989
		c-0.009,0.001-0.018,0.001-0.027,0.002c18.709-1.779,37.444-3.069,56.225-3.923c-0.094,0.005-0.187,0.01-0.281,0.014
		c0.241-0.012,0.482-0.02,0.724-0.033c-0.011,0-0.021,0.001-0.032,0.001c6.903-0.413,13.817-0.091,20.724-0.277
		c-0.064,0.003-0.127,0.006-0.19,0.01c0.52-0.023,1.045-0.045,1.565-0.068c-0.131,0.005-0.262,0.009-0.393,0.014
		c11.272-1.097,22.533-0.944,33.834-0.847c-0.033,0.002-0.065,0.003-0.097,0.005c0.142-0.006,0.283-0.013,0.425-0.018
		c-0.031,0.001-0.062,0.002-0.092,0.003c21.831-1.549,43.752-0.081,65.605-0.292c-0.036,0.001-0.071,0.003-0.107,0.004
		c34.525-0.316,69.105-1.022,103.669-1.877c-0.069,0.004-0.137,0.007-0.205,0.011c13.704-0.538,27.478,0.337,40.979-2.033
		c12.581,10.341-32.867,7.747-37.661,8.58c0.08-0.004,0.159-0.008,0.239-0.013c-0.163,0.009-0.326,0.017-0.489,0.023
		c0.059-0.002,0.118-0.004,0.178-0.007c-11.529,1.024-23.067,0.418-34.615,0.785c0.167-0.005,0.335-0.014,0.502-0.018
		c-53.363,2.841-106.749-0.294-160.148,0.408c0.061-0.003,0.122-0.006,0.183-0.01c-0.136,0.008-0.271,0.013-0.407,0.018
		c0.074-0.003,0.149-0.005,0.224-0.008c-11.634,1.015-23.295,0.493-34.946,0.849c0.127-0.004,0.253-0.009,0.38-0.014
		c-7.845,0.365-15.674,0.903-23.523,1.158c0.122-0.005,0.249-0.009,0.371-0.014c-0.891,0.036-1.786,0.077-2.682,0.113
		c0.127-0.005,0.249-0.009,0.375-0.014c-9.691,0.291-19.263,1.877-28.928,2.438c0.127-0.005,0.249-0.009,0.371-0.014
		C437.792,1375.164,424.337,1375.612,410.886,1375.659z"/>
	<path style="fill:#FFFFFF;" d="M833.347,1365.54c-2.531-5.551,9.296-4.625,12.541-5.302c3.874,0.141,2.835,5.664-0.529,5.79
		C841.483,1365.906,836.853,1367.45,833.347,1365.54z"/>
	<path style="fill:#FFFFFF;" d="M877.853,1364.258c-3.046-0.025-6.081-0.299-9.124-0.22c-1.523,0.346-3.62-0.385-3.056-2.294
		c2.676-3.848,9.291-3.47,13.591-3.461C883.158,1358.99,881.27,1364.581,877.853,1364.258z"/>
	<path style="fill:#FFFFFF;" d="M1054.177,1363.391c-1.726,0.173-4.262-0.358-3.605-2.628c3.076-4.493,11.282-1.97,16.128-3.751
		c-0.004,0.001-0.009,0.001-0.013,0.002c7.049-1.699,8.349,7.505-6.848,6.309c0.131-0.004,0.267-0.009,0.398-0.013
		C1058.217,1363.392,1056.199,1363.435,1054.177,1363.391z"/>
	<path style="fill:#FFFFFF;" d="M1100.826,1364.163c-3.922-0.253-7.837-0.89-11.778-0.593c-1.411,0-2.176-1.452-1.615-2.673
		c2.987-2.835,9.815-1.745,13.966-3.013C1106.205,1357.498,1105.022,1364.523,1100.826,1364.163z"/>
	<path style="fill:#FFFFFF;" d="M767.926,1337.037c-7.736-20.637-12.355-43.434-21.042-64.139
		c-9.171-30.012-15.68-60.769-25.132-90.703c0.027,0.09,0.054,0.176,0.081,0.267c-8.69-27.322-13.594-55.646-23.043-82.769
		c0.003,0.009,0.005,0.018,0.008,0.028c-0.464-2.796-12.511-31.861-5.363-27.681c0,0,0.001,0.001,0.001,0.001
		c-0.011-0.026-0.023-0.052-0.034-0.077c0.29,0.342,0.451,0.805,0.295,1.271c0.17,0.667,0.365,1.327,0.56,1.99
		c-0.003-0.008-0.005-0.016-0.007-0.023c1.956,7.943,5.223,15.433,7.732,23.189c-0.005-0.016-0.011-0.033-0.016-0.05
		c0.05,0.166,0.099,0.333,0.147,0.497c-0.023-0.081-0.05-0.167-0.072-0.249c0.16,0.541,0.317,1.079,0.479,1.619
		c-0.027-0.086-0.05-0.167-0.077-0.253c0.466,1.569,0.918,3.148,1.375,4.722c-0.027-0.086-0.05-0.172-0.077-0.253
		c7.717,20.964,11.947,42.871,17.591,64.42c10.166,30.901,18.243,62.425,27.238,93.668c-0.015-0.053-0.031-0.105-0.048-0.158
		c0.034,0.113,0.068,0.226,0.099,0.339c-0.013-0.047-0.026-0.094-0.04-0.141c6.19,18.096,12.71,36.085,18.271,54.411
		C767.086,1321.204,776.607,1338.588,767.926,1337.037z"/>
	<path style="fill:#FFFFFF;" d="M501.727,1249.423c-47.059-4.204-22.589-59.953,12.13-55.905
		C546.275,1199.98,532.185,1254.224,501.727,1249.423z M506.718,1241.819c13.857,0.24,22.196-18.049,16.528-29.566
		c-6.045-9.762-21.418-9.708-29.146-1.885c-2.985,3.455-6.543,6.987-8.312,11.171c-0.417,1.49-1.503,2.823-2.954,3.346
		C481.783,1237.332,496.926,1241.052,506.718,1241.819z"/>
</g>
</svg>
