<?xml version="1.0" encoding="utf-8"?>
<!-- Generator: Adobe Illustrator 27.5.0, SVG Export Plug-In . SVG Version: 6.00 Build 0)  -->
<svg version="1.1" id="Layer_1" xmlns="http://www.w3.org/2000/svg" xmlns:xlink="http://www.w3.org/1999/xlink" x="0px" y="0px"
	 viewBox="0 0 2000 2000" style="enable-background:new 0 0 2000 2000;" xml:space="preserve">
<rect style="fill:#FFFFFF;" width="2000" height="2000"/>
<g>
	<path style="fill:#231F20;" d="M1648.869,1543.27c1.81,0.144,3.619,0.282,5.428,0.415c-2.803,0.26-5.606,0.531-8.409,0.81
		C1646.88,1544.082,1647.873,1543.674,1648.869,1543.27z"/>
	<path style="fill:#F7941D;" d="M1151.832,1530.939c-21.815-1.804-43.643-3.358-65.563-3.356
		c-13.539-0.452-87.574,4.175-81.745-17.468c21.784-61.847,44.364-125.865,40.072-192.303c1.224-1.14,0.598-3.492-0.98-3.867
		c-0.307-0.431-0.725-0.775-1.204-0.974c-5.457-11.793-20.756-17.494-28.311-28.46c-29.019-35.039-3.102-77.786,0.511-116.44
		c-7.137-25.202-31.953-40.716-44.646-63.008c-15.296-4.978,36.164-56.787,42.059-64.946c-0.195,0.213-0.386,0.421-0.576,0.63
		c7.723-8.332,14.813-17.224,21.38-26.493c-0.004,0.009-0.013,0.018-0.018,0.031c4.932-5.588,7.901-15.171,15.88-16.68
		c13.408,1.168,27.091,1.62,40.494,3.902c6.58,0.739,9.555,3.964,11.334,10.038c3.883,8.466,9.526,15.776,15.332,22.979
		c13.637,18.997,12.809,43.774,14.457,66.117c2.625,25.862,7.694,51.729,15.951,76.41c48.971-47.893,100.833-93.393,144.256-146.571
		c10.961-15.17,15.57-33.612,23.248-50.502c2.171-6.285,4.133-12.662,5.418-19.194c-0.506-3.203,1.201-6.779,4.208-8.169
		c5.631-2.444,11.711,1.521,17.207,2.873c14.286,4.427,28.832,7.96,43.176,12.201c20.192,6.285,41.105,9.563,61.505,14.985
		c4.647,1.25,11.135,0.418,13.49,5.526c-23.369,41.165-40.337,86.777-49.852,133.213c-14.468,31.993-17.179,67.682-25.473,101.506
		c-3.543,21.947-10.495,42.889-16.852,64.206c-7.629,29.441-13.283,59.632-13.157,90.126c0.009-0.164,0.022-0.328,0.035-0.492
		c-0.013,0.191-0.027,0.381-0.04,0.572c0-0.027,0.005-0.053,0.005-0.08c-0.005,0.035-0.005,0.071-0.009,0.106
		c0.003-0.003,0.004-0.004,0.004-0.006c0,0.021-0.004,0.042-0.004,0.064c0-0.018,0-0.035,0-0.058
		c-0.723,10.754-2.137,21.455-2.426,32.236c0-0.027,0-0.058,0-0.084c-0.004,0.058-0.004,0.115-0.004,0.173
		c0-0.031,0.004-0.057,0.004-0.089c-0.005,0.233-0.016,0.463-0.018,0.692c0-0.022,0-0.049,0-0.071
		c-0.02,30.205,2.14,60.393,3.747,90.552c0-0.04-0.004-0.08-0.004-0.12c0.439,5.88,0.924,11.755,1.783,17.588
		c-33.532,2.64-67.08,4.664-100.681,6.088C1221.155,1526.436,1186.619,1531.272,1151.832,1530.939z"/>
	<path style="fill:#F7941D;" d="M1081.06,914.823c-13.946,0.381-15.237-17.083-3.245-21.562c7.427-2.653,20.486-2.826,21.13,7.593
		C1099.729,910.416,1089.543,915.881,1081.06,914.823z"/>
	<path style="fill:#F7941D;" d="M1167.809,907.481c-12.058,0.785-22.903-13.071-13.073-22.853
		c10.299-8.06,31.073-9.486,37.872,3.668C1198.392,902.554,1178.382,907.699,1167.809,907.481z"/>
	<path style="fill:#F7941D;" d="M1049.17,531.426c-0.185-7.823,5.6-15.174,10.673-20.706c6.917-6.804,16.94-5.277,25.494-7.581
		c4.561-2.763,9.482-9.35,15.133-4.431c8.524,11.804-11.595,19.676-20.989,19.902C1060.73,515.267,1056.376,543.637,1049.17,531.426
		z"/>
	<path style="fill:#F7941D;" d="M1052.131,543.696c-7.482-3.954-1.267-13.251,3.063-17.288c0.591-8.833,12.301-9.69,18.658-13.041
		c6.647-1.492,19.278-8.894,23.072-0.09c0.565-0.492,1.099-1.024,1.6-1.582c-1.09-2.877-3.961-4.832-4.84-7.804
		c0.012,0.005,0.024,0.011,0.036,0.016c0.658-13.635,19.677,6.082,12.074,12.556c-8.831,13.109-25.126,14.175-38.512,19.293
		C1062.213,538.236,1058.611,546.005,1052.131,543.696z"/>
	<path style="fill:#F7941D;" d="M1325.762,446.286c-13.256,0.19-21.634-12.578-33.543-16.477
		c-7.462-3.676-21.153,3.587-23.638-7.173c-1.647-17.3,20.374-20.964,33.451-21.988c9.502-0.33,16.76,5.968,23.227,12.087
		c6.614,5.075,14.73,7.576,21.96,11.618c-0.012-0.006-0.024-0.013-0.036-0.019C1361.037,432.029,1334.815,449.163,1325.762,446.286z
		"/>
	<path style="fill:#F7941D;" d="M565.982,664.309c-8.347-2.429-4.493-12.957-0.319-17.645c4.383-6.333,11.832-9.193,18.891-11.473
		c5.435-1.887,47.026-11.952,46.833-4.319c13.435,11.573-12.156,23.978-21.479,27.49c-7.875,3.268-16.365,1.687-24.596,2.295
		C578.831,661.54,572.667,665.577,565.982,664.309z"/>
	<path style="fill:#F7941D;" d="M878.151,433.056c-2.849-0.712-4.009-3.026-4.455-5.643c-6.042-5.402,7.093-43.318,13.061-48.332
		c8.763-8.013,16.659,0.491,14.959,10.418C900.516,401.172,892.81,433.864,878.151,433.056z"/>
	<path style="fill:#F7941D;" d="M670.799,938.199c-14.102-0.289-39-10.591-28.555-28.09c6.786-9.94,17.75-0.378,26.759-0.549
		c15.429,1.305,39.738-22.791,52.552-9.844c4.977-0.078,9.01,4.415,7.542,9.347c-1.803,7.436-10.899,8.132-16.467,11.678
		C699.871,929.273,687.454,941.239,670.799,938.199z"/>
	<path style="fill:#F7941D;" d="M1281.664,229.44c-16.772-8.15,7.612-24.825,15.264-30.6c9.454-5.265,20.862-2.604,30.669-6.579
		c4.922-1.544,8.287-7.551,13.936-6.166c7.38,2.451,6.233,12.795,3.774,18.533c-6.435,12.086-22.571,13.473-34.83,14.152
		C1294.855,219.023,1291.261,230.4,1281.664,229.44z"/>
	<path style="fill:#F7941D;" d="M1339.744,496.377c-11.937-1.732-20.573-10.986-11.704-22.042c-0.055-1.967,1.314-3.928,3.093-4.671
		c-0.043,0.011-0.086,0.023-0.13,0.034c0.602-0.29,1.19-0.418,1.8-0.473c-0.006,0.002-0.013,0.003-0.019,0.005
		c8.552,1.692,17.178,1.997,25.292-1.928c12.125-4.914,34.651-20.389,42.908-3.189c-0.034-0.075-0.068-0.15-0.102-0.224
		c7.56,14.684-18.716,20.013-28.518,22.884C1361.45,489.855,1351.841,499.114,1339.744,496.377z"/>
	<path style="fill:#F7941D;" d="M868.296,438.761c-6.39-1.84-12.418-7.435-13.185-14.253c-0.624-6.827,7.132-9.332,9.665-14.802
		c7.702-14.091,8.159-34.058,24.336-41.944c3.973-1.872,9.777-3.267,12.912,0.714c8.167-1.931,8.327,8.219,11.017,13.3
		c3.691,7.456-4.94,11.675-9.412,15.984c-5.759,7.167-6.119,17.362-11.45,24.978C887.03,430.586,878.889,441.139,868.296,438.761z
		 M873.299,424.717c13.783-9.633,11.347-30.431,25.754-39.512c-1.333-2.888-3.656-5.628-3.554-8.946
		c-15.161,10.511-10.453,34.666-24.337,47.021C871.793,423.861,872.508,424.378,873.299,424.717z"/>
	<path style="fill:#F7941D;" d="M960.516,390.928c-25.326-11.196-1.12-17.131,6.091-29.185c3.993-8.767,1.724-19.881,7.959-27.648
		c2.989-10.597,23.217-4.271,17.56,6.504c-4.497,9.784-1.435,21.088-6.088,30.746C981.289,380.358,972.308,394.212,960.516,390.928z
		 M965.966,378.849c3.222-2.184,5.816-5.275,7.53-8.764c-2.212,3.214-4.992,6.018-7.929,8.575
		C965.699,378.724,965.832,378.787,965.966,378.849z"/>
	<path style="fill:#F7941D;" d="M1677.694,627.906c-10.732-6.47-54.124-18.929-32.89-35.227c2.718-5.815,11.651-3.869,17.018-4.646
		c13.278,3,22.179,15.656,34.171,21.499C1701.485,616.805,1685.3,631.616,1677.694,627.906z M1672.533,608.549
		c-3.064-2.672-6.197-5.271-9.403-7.771c-0.496,0.686-1.096,1.284-1.766,1.772c2.33,1.231,4.646,2.487,6.977,3.719
		c-0.032-0.017-0.064-0.033-0.095-0.05C1669.685,606.976,1671.125,607.737,1672.533,608.549z"/>
	<path style="fill:#F7941D;" d="M1668.711,612.517c-3.379-3.039-7.753-5.799-9.464-10.151c-0.13-7.08,5.819-5.228,9.677-2.199
		c1.852,0.916,4.458,1.951,3.833,4.507C1678.75,607.19,1673.958,616.169,1668.711,612.517z"/>
	<path style="fill:#231F20;" d="M972.308,519.713c-10.164-9.764,8.067-12.862,12.924-18.311c6.846-7.08,10.569-27.442,23.488-22.823
		c5.081-3.393,12.613,3.842,10.562,9.155c-1.845,3.868-6.38,5.302-9.153,8.433C1000.306,506.715,989.843,528.623,972.308,519.713z
		 M1004.495,487.673c0.324-0.296,0.655-0.585,0.993-0.868c-0.033-0.077-0.064-0.155-0.093-0.235
		C1005.074,486.921,1004.758,487.277,1004.495,487.673z"/>
	<path style="fill:#231F20;" d="M1226.87,372.841c-2.665-0.093-4.639-2.532-4.767-5.06c0.732-8.451,11.659-11.282,18.745-12.435
		c6.261,0.858,18.187-6.321,20.524,0.296C1263.271,373.531,1238.506,370.416,1226.87,372.841z"/>
	<path style="fill:#231F20;" d="M1018.835,323.766c-2.448-0.602-4-2.9-4.104-5.372c-6.269-9.521-4.534-20.421-1.752-30.779
		c0.62-5.96,1.589-13.561-2.552-18.378c-1.826-1.638-2.584-3.876-2.644-6.226c0.007,0.002,0.014,0.005,0.02,0.007
		c-0.721-1.895,0.619-4.214,2.515-4.821c9.568-8.604,19.256,8.266,20.548,16.663c1.383,8.878-3.178,17.411-2.52,26.27
		c1.035,5.482,5.954,13.131-1.225,16.45C1026.817,321.422,1022.685,324.783,1018.835,323.766z"/>
	<path style="fill:#231F20;" d="M610.068,752.092c-16.408-6.318-5.875-14.371,2.233-22.154c4.746-8.729,15.396-42.397,29.229-35.343
		c4.718-1.994,10.187,2.339,8.029,7.376c-1.483,3.293-3.869,6.132-5.279,9.491C639.653,725.588,629,756.311,610.068,752.092z
		 M621.985,735.027c0.094-0.112,0.181-0.23,0.271-0.346c-0.018-0.009-0.036-0.017-0.054-0.026
		C622.131,734.779,622.058,734.903,621.985,735.027z"/>
	<path style="fill:#231F20;" d="M786.301,1000.935c-8.535-2.378-3.282-12.745-3.606-18.91c-1.049-11.728-3.213-34.288,8.39-41.025
		c2.259-3.142,6.747-3.546,9.518-0.891c4.673,6.602-0.916,15.922,1.607,23.561C803.522,976.629,804.252,1000.795,786.301,1000.935z"
		/>
	<path style="fill:#231F20;" d="M1597.698,765.553c-7.114-1.044-12.892-8.785-8.075-15.309c6.549-8.384,19.557-7.57,25.734-16.575
		c9.016-13.234,18.181-30.513,35.717-32.881c7.199-1.563,10.464,9.071,2.754,10.476c7.82,10.4-14.644,18.047-19.151,27.146
		C1626.165,750.616,1614.745,767.978,1597.698,765.553z"/>
	<path style="fill:#231F20;" d="M1734.78,533.488c-16.052,0.138-25.044-14.338-37.5-21.871c-5.755-2.995-13.561-3.631-17.268-9.521
		c-4.173-7.568,4.311-17.61,12.421-14.487c19.312-6.524,29.729,14.626,45.102,21.467c4.621,2.624,9.863,4.185,14.186,7.29
		C1760.445,526.673,1744.094,535.259,1734.78,533.488z"/>
	<path style="fill:#231F20;" d="M701.458,1729.558c-41.945,1.167-83.013-8.805-120.765-26.858
		c-23.832-9.53-39.571-36.151-67.176-35.608c-75.162-4.623-149.689,21.474-224.578,11.518c-22.141-4.813-43.624-12.582-64.937-20.17
		c-21.71-8-38.246-25.951-47.074-47.071c-4.405-13.745-28.275-60.495-7.177-65.845c42.941,2.764,85.293-8.264,128.324-7.88
		c53.52-1.606,106.829,8.085,160.11-0.943c4.335-0.878,7.714,3.924,4.442,7.356c-16.43,8.125-36.799,7.83-54.899,10.201
		c-30.627,1.686-61.236-2.483-91.887-1.492c-26.286,0.475-52.611,1.612-78.68,5.184c-20.069,2.685-40.325,5.868-60.612,3.947
		c8.711,36.812,24.005,76.801,64.785,86.512c-0.284-0.102-0.568-0.204-0.847-0.306c22.742,7.426,45.26,16.994,69.412,18.404
		c65.328,1.987,129.479-15.367,194.807-14.128c33.875-2.578,47.631,14.876,72.648,32.663c26.267,14.103,55.198,24.597,84.743,28.979
		c62.146,7.91,123.987-2.811,184.732-15.4c62.304-7.275,122.896-24.851,185.308-30.85c-0.275,0.022-0.55,0.049-0.825,0.071
		c34.516-2.733,69.087-6.499,103.75-5.717c35.292,1.437,70.262,7.127,105.284,11.441c70.121,11.075,143.894,33.497,213.49,8.218
		c-0.027,0.01-0.054,0.02-0.081,0.03c157.826-67.571,165.405-96.959,351.826-99.916c4.234-19.454,8.82-38.873,13.09-58.327
		c-77.011,2.222-154.033,1.476-231.077,1.609c-60.806,1.006-121.291,8.438-182.075,9.909c-51.492,1.315-103.003-1.148-154.465-0.024
		c-63.146,5.243-126.423,6.474-189.743,7.943c-10.396,0.1-20.793,0.221-31.189,0.054c-6.023,0.076-15.758,0.181-14.2-8.458
		c1.228-6.078,7.119-7.672,12.573-6.572c7.801,0.31,15.612,0.138,23.414,0.085c24.671,0.031,49.292-1.452,73.953-1.925
		c42.914,0.525,85.569-3.948,128.353-6.453c43.25-0.903,86.52,0.997,129.794,0.394c95.064-1.159,189.712-14.091,284.929-9.939
		c34.472,0.067,68.972,0.695,103.421-0.76c16.905-0.531,33.872-1.573,50.773-0.954c14.484,0.059,10.688,15.898,7.75,25.279
		c-5.513,18.333-6.913,38.23-14.365,55.802c-6.647,10.364-20.827,6.256-31.226,7.681c-74.369,1.039-149.602,10.6-216,46.233
		c-109.297,52.78-148.236,79.552-274.588,53.965c-53.978-10.457-108.664-18.755-163.595-21.72
		c-33.419-0.653-66.731,3.11-100.018,5.609c-59.75,5.545-117.627,22.737-177.296,29.299
		C803.357,1719.555,753.063,1732.013,701.458,1729.558z"/>
	<path style="fill:#231F20;" d="M1175.913,872.499c-8.379,0.178-16.131-5.704-18.173-13.841c0.049,0.155,0.093,0.315,0.142,0.47
		c-2.26-6.613-0.373-14.585,4.6-19.406c3.372-5.095,8.044-9.55,13.764-11.859c-0.142,0.062-0.284,0.129-0.426,0.191
		C1217.843,812.512,1219.997,872.075,1175.913,872.499z M1181.639,865.427c11.734-1.424,25.906-13.925,18.16-26.202
		c-9.4-13.095-30.639-4.444-35.469,8.734C1159.858,858.594,1171.412,868.036,1181.639,865.427z"/>
	<path style="fill:#231F20;" d="M1173.105,866.909c-12.671-1.66-1.364-19.717,7.271-15.529
		C1189.548,855.396,1182.009,870.976,1173.105,866.909z"/>
	<path style="fill:#231F20;" d="M1187.93,828.897c-2.515-4.836,6.437-9.133,8.69-13.023c1.752-1.434,3.427-5.878,6.127-3.808
		c0.945,0.936,0.852,2.532,0.062,3.53C1200.519,817.563,1189.748,831.102,1187.93,828.897z"/>
	<path style="fill:#231F20;" d="M1199.188,833.525c-1.776-4.33,5.144-7.906,6.575-11.867c1.87-4.81,8.432-2.683,5.061,1.965
		c0.019-0.029,0.038-0.057,0.057-0.086C1207.813,826.538,1203.061,832.717,1199.188,833.525z"/>
	<path style="fill:#231F20;" d="M1204.325,838.663c2.522-4.318,7.086-7.386,10.572-10.972c2.282-1.778,5.247,0.635,4.635,3.26
		c-0.403,2.459-2.956,3.525-4.81,4.786c0.013-0.008,0.026-0.016,0.038-0.023C1212.441,836.643,1204.516,844.309,1204.325,838.663z"
		/>
	<path style="fill:#231F20;" d="M1143.894,821.732c-5.946-10.469,15.494-31.298,25.773-33.287
		c11.415-4.529,28.687-6.609,35.927,5.676c0.758,1.273,0.337,3.082-0.692,4.071c-0.953,0.918-2.665,1.193-3.632,0.107
		c-12.473-10.034-36.293,0.003-46.076,10.555c0.133-0.151,0.27-0.297,0.403-0.448c-0.14,0.155-0.282,0.312-0.424,0.468
		c0.025-0.027,0.049-0.055,0.073-0.082c-0.089,0.097-0.176,0.195-0.265,0.292c0.029-0.031,0.057-0.062,0.086-0.094
		c-3.101,3.588-6.021,7.456-7.728,11.877c0-0.005,0-0.011,0.001-0.017C1146.748,822.092,1145.019,822.541,1143.894,821.732z"/>
	<path style="fill:#231F20;" d="M1101.377,915.198c-20.017-2.95,2.678-25.262,6.005-34.763c-0.022,0.043-0.045,0.085-0.067,0.128
		c3.835-8.273,6.074-17.522,5.614-26.666c0.004,0.129,0.009,0.253,0.013,0.381c-0.026-2.921-0.393-5.829-0.612-8.732c0,0,0,0,0,0
		c2.797-6.164,5.074,5.362,5.384,7.637c-0.009-0.061-0.018-0.122-0.027-0.182c0.018,0.122,0.038,0.245,0.058,0.368
		c0-0.002,0-0.003-0.001-0.005c0.023,0.146,0.047,0.292,0.072,0.44c-0.022-0.124-0.04-0.248-0.062-0.377
		c0.03,0.184,0.06,0.366,0.089,0.549c-0.002-0.01-0.003-0.02-0.005-0.03c3.312,19.672-7.998,37.106-17.425,53.344
		c14.206,3.279,18.356-15.245,25.935-23.148c8.339-2.616,3.277,11.243-0.165,13.322
		C1120.849,906.163,1112.882,916.843,1101.377,915.198z"/>
	<path style="fill:#231F20;" d="M1071.254,916.737c-2.603-3.731,1.246-9.868,3.582-13.184c0.71-0.86,1.992-1.157,2.848-0.31
		c2.047,2.662-1.99,5.114-2.752,7.602c0.007-0.014,0.014-0.027,0.021-0.041c-0.046,0.09-0.094,0.18-0.142,0.271
		c0.02-0.036,0.04-0.073,0.059-0.11c-0.719,1.5-1.504,3.031-1.864,4.66c-0.002-0.004-0.005-0.008-0.007-0.013
		C1072.926,916.389,1072.026,917.149,1071.254,916.737z"/>
	<path style="fill:#231F20;" d="M1078.472,917.318c-3.36-2.794,7.528-24.52,7.823-12.728
		C1083.76,907.063,1082.441,920.474,1078.472,917.318z"/>
	<path style="fill:#231F20;" d="M1087.734,913.715c-0.77-3.448,1.503-7.279,2.571-10.577c0.329-0.776,1.26-1.308,2.067-0.913
		c2.309,2.387-1.825,6.058-2.168,8.843c0.027-0.066,0.049-0.133,0.075-0.195c-0.149,0.413-0.295,0.827-0.426,1.247
		C1090.267,913.27,1088.704,914.857,1087.734,913.715z"/>
	<path style="fill:#231F20;" d="M1157.24,899.218c0.235-2.957,1.435-5.768,2.359-8.563c-0.004,0.012-0.009,0.024-0.013,0.035
		c0.043-0.117,0.085-0.234,0.129-0.35c-0.005,0.014-0.011,0.028-0.016,0.042c0.149-0.407,0.298-0.815,0.446-1.222
		c-0.011,0.034-0.023,0.068-0.035,0.102c1.47-2.519,1.921-8.852,5.858-7.93c1.193,0.59,1.477,2.174,0.958,3.305
		c-1.159,2.539-2.289,5.08-3.307,7.677c0.008-0.021,0.016-0.043,0.023-0.064c-0.03,0.078-0.057,0.157-0.087,0.237
		c0.001-0.002,0.001-0.003,0.002-0.005c-0.141,0.384-0.282,0.767-0.423,1.151c0.013-0.035,0.026-0.069,0.04-0.104
		c-1.559,2.458-0.466,6.898-3.476,8.045C1158.325,901.876,1157.168,900.583,1157.24,899.218z"/>
	<path style="fill:#231F20;" d="M1170.716,898.119c-1.171-0.128-1.689-1.565-1.247-2.543c-0.019,0.044-0.038,0.087-0.057,0.13
		c1.494-2.919,4.731-13.776,8.545-12.511c0.906,0.648,0.963,1.974,0.427,2.87C1175.903,888.656,1173.294,897.732,1170.716,898.119z"
		/>
	<path style="fill:#231F20;" d="M1184.262,891.144c-0.451-4.643,3.432-8.852,5.188-13.003c3.157-3.83,5.943,1.447,3.199,4.298
		c0.031-0.06,0.061-0.121,0.092-0.182c-0.124,0.244-0.253,0.488-0.377,0.732c0.035-0.067,0.068-0.134,0.102-0.2
		c-0.057,0.11-0.115,0.221-0.173,0.332c0.006-0.011,0.012-0.023,0.018-0.034C1190.125,885.463,1188.399,896.23,1184.262,891.144z"/>
	<path style="fill:#231F20;" d="M1266.139,1037.818c-3.635-29.966-0.282-60.471-0.263-90.614
		c0.184-15.314-0.012-30.637,0.573-45.935c1.035-6.025-2.484-13.26,1.358-18.462c-1.647-8.193,4.597-10.461,10.099-14.43
		c10.872-7.755,15.734-20.097-1.975-21.544c-0.827,2.874-3.406,5.696-6.621,5.388c-2.221,1.641-4.325,3.938-7.091,4.555
		c-3.726,6.296-5.728,20.943-11.597,24.187c-1.719,3.249-3.148,12.197-8.399,8.918c-6.086-0.63-1.564-9.033-1.176-12.732
		c2.595-8.644,4.088-17.531,5.584-26.413c-0.469-1.053-0.204-2.434,0.554-3.268c1.136-25.179,3.57-54.869-12.433-76.055
		c-25.958-27.42-72.002-24.704-102.528-6.616c0.004-0.004,0.013-0.009,0.018-0.013c-4.46,4.05-12.688,5.054-6.798-2.847
		c-1.716,0.554-3.37,1.277-5.02,2.018c0.093-0.04,0.186-0.08,0.279-0.124c-7.358,1.002-33.454,32.12-27.291,8.816
		c-11.232,13.241-23.146,28.053-28.165,44.844c7.988-8.298,22.328-7.686,31.26-1.189c3.15,2.576,9.51,7.562,5.948,11.867
		c-1.114,1.073-2.759,1.175-3.912,0.12c-8.865-9.18-26.089-9.376-33.624,1.592c0.033,8.895,0.575,17.788,0.364,26.683
		c10.584-20.747,38.735-15.182,39.845,8.471c1.732,19.642-26.446,30.304-39.526,16.886c2.277,42.777,4.259,98.929,62.197,91.661
		c17.339-5.429,9.617,19.584,10.866,29.18c-1.894,9.488,5.014,35.936-7.645,37.336c-10.032-0.521-5.857-12.47-5.376-18.888
		c1.279-11.884,2.466-23.78,3.729-35.664c-0.027,0.266-0.053,0.528-0.075,0.794c0.138-1.406,0.271-2.812,0.342-4.222
		c-23.088,4.063-52.375,0.548-61.802-24.342c0.022,0.053,0.049,0.106,0.071,0.16c-0.074-0.157-0.143-0.319-0.217-0.479
		c0.001,0.001,0.001,0.001,0.002,0.002c-0.002-0.007-0.005-0.014-0.009-0.02c0.002,0.003,0.004,0.007,0.006,0.009
		c0.002,0.021,0.015,0.034,0.022,0.053c-0.005-0.013-0.009-0.022-0.018-0.035c0.002,0,0.002,0,0.003,0.001
		c-11.562-27.706-10.251-58.797-10.363-88.283c-3.722,0.162-15.005,6.224-15.437,0.218c0.213-5.212,11.21-1.812,15.109-2.715
		c0.131-0.102,0.302-0.182,0.47-0.204c0.075-1.277,0.164-2.554,0.257-3.832c-4.317-0.827-15.435,0.611-13.473-6.488
		c2.483-4.835,7.332,0.716,10.826,1.374c-0.009,0-0.013-0.004-0.022-0.004c0.074,0.021,0.145,0.057,0.222,0.084
		c-0.044-0.018-0.089-0.035-0.133-0.053c0.958,0.364,1.925,0.723,2.883,1.091c0.095-1.33,0.195-2.66,0.266-3.991
		c-2.713-2.565-10.138-5.319-7.251-9.911c3.184-3.471,5.342,2.341,7.517,4.089c0.136-4.09,0.19-8.187,0.275-12.28
		c-0.208,0.08-0.43,0.133-0.67,0.155c0-0.004,0-0.009,0-0.013c-3.346-0.332-1.867-4.619-0.891-6.581
		c4.168-9.783,2.909-21.363,6.445-31.601c6.013-16.662,14.204-33.81,28.624-44.751c-0.133,0.111-0.27,0.226-0.403,0.337
		c0.932-0.786,1.868-1.568,2.796-2.354c-0.001,0.001-0.003,0.002-0.004,0.003c26.933-20.499,62.672-29.839,96.039-32.681
		c45.37-0.1,83.567,17.993,88.615,67.286c0-0.009,0-0.018,0-0.027c2.368,16.768,2.609,34.069-1.056,50.666
		c30.087,4.547,17.193,32.73-1.716,43.283c0.458,11.894-0.592,23.78,0.275,35.668c0-0.031,0-0.058,0-0.089
		c0.022,0.758,0.044,1.512,0.067,2.271c0-0.018,0-0.036,0-0.058c0.005,0.182,0.008,0.364,0.013,0.545c0-0.009,0-0.013,0-0.022
		c0.001,0.043,0.006,0.086,0.005,0.129c0-0.033,0-0.066-0.004-0.1c-1.167,31.129-0.071,62.279-1.19,93.401
		c-1.17,7.247,3.644,26.96-5.444,28.729C1268.423,1040.849,1266.83,1039.57,1266.139,1037.818z M1089.869,867.154
		c3.38,2.33,3.301,7.11,1.583,10.457c20.865-9.114-1.515-36.048-17.929-21.451c0.129-0.111,0.257-0.217,0.386-0.328
		c-0.707,0.581-1.366,1.219-1.996,1.876c-2.634,8.324-4.328,15.498,5.849,19.424c-0.751-3.22,1.089-7.13,4.35-8.093
		C1083.863,866.776,1087.302,865.379,1089.869,867.154z M1259.962,757.479c0.146-0.067,0.302-0.124,0.457-0.169
		c-0.47-0.714-0.936-1.423-1.397-2.146C1259.354,755.932,1259.665,756.699,1259.962,757.479z"/>
	<path style="fill:#231F20;" d="M1228.585,737.126c-3.981-0.438-5.865-5.182-4.591-8.652c-2.141,0.176-4.338-0.742-5.651-2.459
		c0.408,3.176-2.654,7.798-5.72,4.534c-2.972-10.695,0.125-22.868,2.274-33.615c4.552-16.531,12.331-32.107,22.756-45.717
		c12.42-23.47,65.226-42.168,67.04-2.776c0.708,32.291-45.909,77.254-74.375,88.609c0-0.005,0-0.01,0-0.015
		C1229.76,737.163,1229.167,737.198,1228.585,737.126z"/>
	<path style="fill:#231F20;" d="M1244.571,889.951c-1.519-3.227,3.09-5.892,4.119-8.825c7.035-10.834,10.993-23.597,19.06-33.704
		c2.198-4.247,8.085-3.984,5.935,1.522c-1.569,2.367-3.654,4.391-5.244,6.763C1263.952,861.118,1251.059,893.101,1244.571,889.951z"
		/>
	<path style="fill:#231F20;" d="M1267.614,1046.178c-2.159,0.054-4.215-1.123-5.202-3.062c0,0.001,0,0.001,0,0.002
		c-2.752-5.177,1.392-10.75,6.585-11.952c6.976-4.539,14.026-9.079,20.95-13.753c6.627-4.043,14.628-20.073,22.909-16.684
		c2.542,1.856,2.795,5.585,1.154,8.144C1301.525,1023.805,1285.592,1038.692,1267.614,1046.178z"/>
	<path style="fill:#231F20;" d="M1126.008,1039.184c-0.474-0.175-0.945-0.358-1.413-0.547c-5.066,0.406-8.384-4.619-12.889-6.171
		c-6.244-3.737-13.413-6.54-18.972-11.162c-2.732-3.633-0.332-9.477,4.019-10.453c11.835-1.314,20.253,9.011,28.981,15.268
		c-0.235-0.137-0.466-0.279-0.701-0.417c2.952,1.301,5.287,4.01,4.565,7.416C1139.103,1036.126,1133.268,1043.079,1126.008,1039.184
		z"/>
	<path style="fill:#231F20;" d="M1446.21,994.069c-8.632-5.827,1.994-21.553,2.69-29.934c9.656-30.302,19.527-60.507,26.804-91.506
		c23.744-72.442,39.946-147.251,65.461-219.096c-0.12,0.328-0.24,0.652-0.359,0.98c13.215-39.22,28.175-77.744,42.525-116.557
		c11.795-27.482,18.863-56.909,32.327-83.635c24.006-38.631,34.979-83.128,53.717-124.079c-0.029,0.057-0.058,0.113-0.087,0.17
		c0.16-0.309,0.322-0.618,0.483-0.927c-0.002,0.005-0.005,0.009-0.007,0.013c8.272-24.642,16.853-22.823,37.686-33.613
		c-3.651-0.013-7.27,0.294-10.905,0.728c0.144-0.017,0.288-0.033,0.433-0.051c-8.298-0.52-31.364,11.969-33.092-0.721
		c0.211-6.781,22.51-15.514,28.641-21.756c-12.709,3.674-23.626,11.123-35.048,17.462c-10.73,5.285-16.781-4.524-9.042-12.915
		c8.192-10.809,16.511-21.546,25.521-31.692c-15.745,9.326-29.639,21.835-40.413,36.641c-1.148,1.623-2.745,3.597-5.007,3.162
		c-13.59-6.726,25.314-42.004,25.433-54.338c-0.027,0.244-0.049,0.483-0.071,0.727c0.053-0.432,0.088-0.867,0.101-1.302
		c-24.568,16.085-37.342,45.126-52.687,69.375c0.068-0.134,0.137-0.267,0.206-0.4c-0.619,1.184-1.239,2.366-1.858,3.55
		c0.069-0.131,0.137-0.262,0.206-0.392c-3.393,6.652-6.67,13.366-10.129,19.992c0.16-0.306,0.319-0.612,0.479-0.918
		c-47.657,95.814-90.731,194.393-122.407,296.72c-20.397,59.077-46.111,116.2-66.411,175.346c0.053-0.142,0.105-0.284,0.157-0.424
		c-0.356,0.966-0.71,1.932-1.069,2.898c0.003-0.008,0.006-0.016,0.009-0.024c-0.057,0.153-0.112,0.303-0.168,0.456
		c0.022-0.058,0.043-0.116,0.065-0.174c-14.072,42.378-30.131,83.993-45.229,126c-2.319,3.305-10.77,42.266-15.301,29.897
		c-0.003,0.004-0.007,0.008-0.01,0.011c0.536-1.705-1.037-4.053,0.996-5.115c6.086-26.613,14.137-52.798,23.594-78.403
		c-0.097,0.262-0.195,0.523-0.293,0.785c25.434-78.134,52.645-155.646,83.695-231.761
		c34.691-111.048,79.013-218.834,131.557-322.638c-0.069,0.131-0.137,0.262-0.206,0.391c13.715-28.278,30.156-55.342,49.07-80.428
		c7.764-7.017,16.812-16.692,27.823-17.062c14.055,4.962,4.069,22.69-1.807,30.752c7.025-3.785,24.666-22.032,29.596-8.729
		c0.425,6.892-6.694,11.456-10.226,16.681c-5.79,7.265-11.197,14.847-16.399,22.54c13.827-8.481,28.91-17.41,45.521-17.999
		c13.844,7.123-8.779,20.429-14.818,25.269c9.865-2.515,41.568-6.298,28.211,12.165c-9.524,10.925-31.822,10.405-32.329,27.786
		c-18.966,45.323-32.7,93.181-58.804,135.318c-20.039,47.839-35.732,97.547-55.523,145.553c0.12-0.328,0.24-0.652,0.359-0.98
		c-7.256,20.781-13.829,41.784-21.818,62.31c0.041-0.111,0.083-0.221,0.123-0.331c-14.898,46.013-27.268,92.916-40.043,139.559
		c-8.527,30.993-19.777,61.158-26.783,92.579c-5.389,22.95-13.963,44.949-20.356,67.606
		C1457.365,977.207,1458.554,997.276,1446.21,994.069z"/>
	<path style="fill:#231F20;" d="M962.632,1090.74c-37.768-56.397-66.029-118.127-96.484-178.617
		c-14.979-32.548-34.493-62.693-50.371-94.748c0.081,0.18,0.162,0.361,0.245,0.542c-0.669-1.474-1.335-2.943-2.004-4.416
		c0.057,0.125,0.113,0.251,0.168,0.376c-19.513-41.77-38.227-83.755-53.445-127.312c-12.101-27.485-23.439-55.42-31.511-84.387
		c-11.799-34.159-13.185-71.078-26.73-104.539c-8.778-17.366-8.464-37.812-18.316-54.542c-4.877-12.118-15.253-20.619-21.076-32.071
		c-8.632-20.211,6.369-25.197,21.127-12.439c-12.869-28.397,7.573-36.653,23.664-12.172c-7.404-38.559,3.797-49.576,19.379-7.44
		c1.05-9.726-0.023-20.619,5.929-28.94c6.063-6.593,13.949,1.666,14.896,8.356c3.294,21.367,1.555,43.871,12.228,63.504
		c8.101,25.498,25.907,46.12,36.953,70.281c13.543,30.78,26.529,61.714,42.624,91.301c30.664,62.576,59.093,126.491,96.967,185.18
		c18.413,34.848,41.681,66.619,61.049,100.898c15.301,26.089,32.769,51.46,43.993,79.62c4.41,13.082,9.19,26.008,14.15,38.893
		c1.429,5.624,9.321,17.799-0.412,18.517c-18.251-22.266-22.186-53.522-38.893-77.112c0.173,0.275,0.346,0.545,0.515,0.816
		c-7.83-11.801-14.012-24.587-21.77-36.431c0.182,0.284,0.364,0.568,0.545,0.852c-38.662-61.946-77.345-123.856-111.745-188.333
		c-24.722-49.023-46.618-99.467-71.865-148.251c-14.489-29.66-24.394-61.471-42.396-89.399
		c-13.06-20.338-23.752-42.872-29.269-66.427c-3.048-14.3-1.318-29.111-3.244-43.444c-2.845,9.855-2.131,20.408-3.088,30.534
		c-7.176,21.904-18.286-21.695-22.712-27.087c0.292,9.601,2.294,19.169,4.559,28.48c0.807,3.462,3.247,6.67,2.965,10.309
		c-0.5,4.47-5.654,6.296-9.038,3.45c-7.81-6.211-10.345-17.614-20.152-21.69c1.512,10.264,9.718,17.857,12.094,27.753
		c-2.131,20.35-23.122-3.151-31.312-7.216c2.733,7.332,8.936,12.523,13.537,18.649c5.585,7.439,9.74,15.833,14.591,23.747
		c6.441,14.841,8.299,31.396,15.673,46.01c9.754,20.6,11.837,43.487,16.859,65.457c9.117,37.2,20.004,74.051,35.669,109.075
		c10.659,23.166,17.709,47.733,27.65,71.19c10.205,24.463,22.704,47.883,32.931,72.339c13.887,27.992,31.01,54.27,44.533,82.476
		c29.149,56.131,54.663,114.313,88.818,167.674c-0.004-0.007-0.009-0.014-0.013-0.021c3.796,9.035,19.362,21.687,11.195,31.229
		C969.625,1093.992,964.97,1093.886,962.632,1090.74z"/>
	<path style="fill:#231F20;" d="M1337.742,964.665c-12.338-3.465,0.757-23.16,1.311-31.668c5.868-18.635,12.326-37.168,20.01-55.137
		c6.775-19.655,18.937-9.956,10.293-3.648c-5.6,11.74-8.795,24.491-12.345,36.964c2.357,8.881-4.192,18.277-5.627,27.155
		C1347.547,945.827,1348.242,964.494,1337.742,964.665z"/>
	<path style="fill:#231F20;" d="M936.763,714.185c-4.254-8.838-5.64-18.797-9.877-27.67c-1.825-3.887-8.963-13.609-0.389-13.706
		c-0.04-0.008-0.08-0.017-0.12-0.025c9.251,9.694,12.217,24.487,18.068,36.523C946.557,713.894,939.734,719.273,936.763,714.185z"/>
	<path style="fill:#231F20;" d="M966.797,737.481c-2.209-0.219-2.646-2.719-3.503-4.359c0.067,0.146,0.133,0.293,0.2,0.439
		c-0.415-3.594-20.303-37.883-10.564-33.22C955.051,705.65,978.853,737.91,966.797,737.481z"/>
	<path style="fill:#231F20;" d="M735.862,739.071c-8.381-12.865-11.043-28.623-18.347-42.075c-2.515-0.783-1.914-4.875,0.502-5.389
		c5.169,0.709,6.241,9.367,8.835,13.281c4.262,9.922,8.278,20.038,14.337,29.039C743.802,737.249,738.959,742.802,735.862,739.071z"
		/>
	<path style="fill:#231F20;" d="M739.737,779.92c-3.77-1.449-4.156-6.95-6.311-10.066c-4.706-9.72-10.074-19.142-14.217-29.123
		c-2.112-3.614,2.164-7.863,2.869-2.222c-0.022-0.08-0.049-0.16-0.071-0.24c0.226,0.678,0.501,1.339,0.789,1.996
		c-0.006-0.012-0.011-0.024-0.017-0.036c4.341,9.06,9.611,17.637,14.89,26.17C739.817,770.124,747.973,778.481,739.737,779.92z"/>
	<path style="fill:#231F20;" d="M1413.538,647.158c0.039,0.008,0.077,0.015,0.116,0.023c-0.081-0.015-0.159-0.03-0.239-0.048
		c0.036,0.007,0.071,0.014,0.107,0.022c-0.097-0.021-0.19-0.047-0.279-0.077c0.014,0.007,0.027,0.013,0.041,0.02
		c-0.216-0.065-0.426-0.165-0.624-0.303c0.01,0.005,0.021,0.01,0.031,0.015c-2.868-2.611-0.71-7.228,0.226-10.348
		c-0.021,0.06-0.042,0.121-0.064,0.182c0.077-0.211,0.155-0.422,0.233-0.634c-0.019,0.05-0.038,0.1-0.058,0.151
		c0.129-0.341,0.253-0.683,0.377-1.024c-0.053,0.146-0.106,0.293-0.16,0.439c0.155-0.417,0.306-0.834,0.461-1.251
		c-0.053,0.146-0.106,0.293-0.16,0.439c3.978-10.42,9.146-20.377,12.479-31.047c1.509-3.233,1.372-10.178,6.399-9.366
		c7.274,4.24-8.329,28.14-10.384,34.95c-1.872,4.633-4.948,9.238-5.493,14.195C1417.02,645.294,1415.482,647.506,1413.538,647.158z"
		/>
	<path style="fill:#231F20;" d="M1406.21,618.199c0.124-1.024,0.475-2.062,0.829-3.029c-0.027,0.08-0.058,0.16-0.084,0.235
		c6.034-13.711,10.712-28.137,18.11-41.181c2.915-4.274,7.387,1.326,3.965,4.364c0.004-0.005,0.007-0.011,0.011-0.016
		c-1.831,2.589-3.521,5.266-5.075,8.029c0.003-0.006,0.006-0.012,0.009-0.018c-4.882,9.843-10.143,19.538-14.216,29.748
		c-0.627,1.263-0.321,3.533-2.135,3.721C1406.625,620.103,1406.099,619.089,1406.21,618.199z"/>
	<path style="fill:#231F20;" d="M1579.404,642.278c0.554-9.048,7.819-16.021,11.519-23.964c1.774-2.843,2.907-9.04,7.444-7.3
		c7.403,6.943-13.256,21.974-13.978,30.404c0-0.003,0-0.005,0-0.007C1584.732,644.675,1579.757,645.931,1579.404,642.278z"/>
	<path style="fill:#231F20;" d="M1601.049,652.194c-5.217-4.412,3.581-14.013,5.104-19.211c-0.019,0.036-0.038,0.073-0.057,0.11
		c3.827-6.189,6.406-14.122,12.11-18.718c4.298-1.519,6.602,4.358,3.956,7.309c-5.219,7.268-10.34,14.651-14.115,22.794
		C1606.334,647.359,1605.787,653.917,1601.049,652.194z"/>
	<path style="fill:#231F20;" d="M1116.558,963.28c-17.464-0.182-32.382-16.123-35.244-32.597
		c-4.784-9.242,24.034-14.792,30.209-17.489c14.431-4.567,29.803-3.435,44.547-5.974c-0.026,0.012-0.053,0.025-0.079,0.037
		c0.115-0.055,0.228-0.109,0.346-0.16c-0.062,0.028-0.123,0.057-0.185,0.085c4.977-1.589,4.24,5.886,4.26,8.921
		C1160.286,939.964,1142.098,964.718,1116.558,963.28z M1125.084,955.052c10.579-1.61,19.724-8.877,25.042-17.987
		c-0.012,0.023-0.024,0.045-0.037,0.068c0.066-0.128,0.137-0.26,0.204-0.39c-0.025,0.047-0.049,0.095-0.074,0.143
		c3.192-7.496,5.235-15.777,4.718-23.969c-13.193,2.777-26.784,2.714-39.847,6.18c0.142-0.04,0.284-0.08,0.421-0.124
		c-8.454,2.702-17.104,4.919-25.177,8.684C1095.579,942.778,1107.115,958.34,1125.084,955.052z"/>
	<path style="fill:#231F20;" d="M438.156,1552.928c-3.613-3.474-3.964-9.706-6.497-14.24c-0.618,0.158-1.284-0.24-1.41-0.856
		c-4.667-1.625-4.862-7.602-6.852-11.463c-4.074-10.549-7.861-21.219-12.333-31.615c-28.839-64.526-50.582-131.81-75.141-198.009
		c-7.28-15.162-7.197-33.732-16.81-47.434c-2.634-2.427-2.876-6.342-0.157-8.842c5.993-4.935,14.472-4.591,21.787-5.686
		c16.86-2.812,33.848-4.633,50.933-5.551c68.619-3.985,137.359-2.647,206.018-5.375c38.436-1.903,76.944-1.744,115.359,0.412
		c8.271,1.371,14.273-4.965,19.131,5.113l-0.004-0.004c0.105,0.166,0.202,0.334,0.306,0.497c-0.005,0-0.005-0.004-0.009-0.009
		c25.291,56.321,34.816,118.181,50.901,177.481c6.713,22.586,14.642,44.771,21.854,67.195c0.941,6.966,11.689,19.31,2.426,23.428
		c0.488,1.809,0.958,3.628,1.419,5.441c70.353-1.71,140.811-8.276,211.167-4.058c-0.16-0.009-0.324-0.022-0.492-0.031
		c32.64,1.927,65.377,0.872,97.576,7.096c-0.058-0.009-0.115-0.018-0.173-0.027c0.35,0.057,0.701,0.112,1.051,0.168
		c-0.293-0.048-0.585-0.093-0.878-0.141c0.044,0.007,0.089,0.014,0.133,0.021c-0.738-0.119-1.476-0.24-2.217-0.36
		c10.691,1.936,21.558,2.166,32.391,2.405c1.009,5.351,3.091,10.749,6.284,15.304c1.032,5.991,1.871,12.051,3.645,17.862
		c-43.713,8.265-89.725,5.457-134.281,5.937c-62.55,0.308-125.081,0.15-187.636-0.207c-41.149-1.713-82.282,1.478-123.431,0.955
		c-44.619,0.904-89.28-0.295-133.848,2.127C531.723,1552.545,484.47,1549.785,438.156,1552.928z"/>
	<path style="fill:#231F20;" d="M809.023,1512.455c-0.421-0.27-0.751-0.613-1.027-0.998c-4.343-1.616-4.528-16.071-7.169-20.92
		c-0.722-0.309-1.187-1.045-1.176-1.911c-0.001,0.012-0.001,0.023-0.002,0.035c-2.673-4.103,6.123-8.77,7.302-1.297
		c2.172,6.145,3.766,12.457,6.458,18.417C815.739,1508.996,813.216,1514.623,809.023,1512.455z"/>
	<path style="fill:#231F20;" d="M840.461,1512.102c-3.176-2.756-3.877-7.34-5.181-11.158c3.229,0.333,6.709,0.211,9.898-0.574
		C847.245,1504.828,848.311,1515.218,840.461,1512.102z"/>
	<path style="fill:#231F20;" d="M957.656,1502.47c-1.034-1.213-0.839-2.842-0.557-4.291c2.981,0.096,5.993-0.164,8.893-1.026
		C965.285,1500.606,961.258,1506.134,957.656,1502.47z"/>
	<path style="fill:#FFFFFF;" d="M540.093,1406.531c-6.164-0.977-13.232-2.068-18.218-6.026c-7.987-10.584-6.401-25.975,0.213-36.893
		c4.6-10.405,23.528-20.149,30.769-7.91C584.817,1364.63,569.747,1409.661,540.093,1406.531z M545.168,1396.987
		c27.216-5.284,19.724-36.964-6.85-30.891c-8.82,3.607-13.98,18.139-7.6,25.48c4.012,2.273,10.985,0.396,12.82,5.448
		C544.08,1397.027,544.622,1397.016,545.168,1396.987z"/>
	<path style="fill:#FFFFFF;" d="M1023.071,1141.686c-5.759-2.103,0.907-12.547,1.165-16.998c1.251-2.437,3.305-19.382,7.384-12.851
		c0.002-0.002,0.004-0.004,0.006-0.006C1030.467,1117.546,1029.724,1141.878,1023.071,1141.686z"/>
	<path style="fill:#FFFFFF;" d="M1046.757,1121.158c-5.174-1.031,6.573-17.683,5.823-23.477c-0.001,0.009-0.003,0.018-0.004,0.027
		C1057.353,1088.818,1052.309,1124.733,1046.757,1121.158z"/>
	<path style="fill:#FFFFFF;" d="M1099.96,1078.883c-3.014-5.944,6.847-8.079,11-6.834c2.502,0.777,1.209,4.717-1.147,4.548
		c0.12,0.022,0.24-0.008,0.36-0.015c-0.235,0.022-0.461,0.075-0.692,0.124c0.098-0.018,0.195-0.04,0.297-0.062
		c-0.452,0.115-0.896,0.244-1.339,0.377c0.106-0.036,0.213-0.075,0.315-0.115c-0.293,0.106-0.59,0.217-0.887,0.319
		c0.106-0.036,0.217-0.075,0.328-0.115C1105.459,1077.67,1102.546,1081.741,1099.96,1078.883z"/>
	<path style="fill:#FFFFFF;" d="M1101.464,1103.478c-6.449-7.143,9.541-6.772,13.379-8.603c1.296-0.355,2.599,0.368,2.888,1.707
		c-0.244,5.944-9.694,4.239-13.702,6.722c0.084-0.03,0.168-0.061,0.252-0.092c-0.119,0.041-0.239,0.087-0.359,0.129
		c0.015-0.005,0.029-0.01,0.044-0.015C1103.159,1103.654,1102.289,1103.855,1101.464,1103.478z"/>
	<path style="fill:#FFFFFF;" d="M1301.472,1095.018c-5.005-0.838-19.785-9.174-10.826-13.771c1.064-0.016,1.976,0.789,2.12,1.825
		c1.449,2.106,4.131,2.836,6.409,3.702c-0.124-0.049-0.253-0.093-0.377-0.137c2.932,1.039,8.502,1.158,7.078,5.685
		C1305.311,1094.058,1303.343,1095.601,1301.472,1095.018z"/>
	<path style="fill:#FFFFFF;" d="M1282.355,1119.98c-2.421-2.155-3.6-8.248,0.616-8.932c2.751,0.014,1.574,2.857,2.364,4.396
		C1288.325,1117.518,1285.28,1122.666,1282.355,1119.98z"/>
	<path style="fill:#FFFFFF;" d="M1232.77,708.076c0.034,0.264,0.21,0.476,0.328,0.709c-3.179-9.707,7.517-36.511,15.102-43.106
		c7.721-0.301,1.645,7.761-0.455,10.87c0.084-0.151,0.169-0.302,0.253-0.457c-0.157,0.285-0.317,0.569-0.475,0.852
		c0.01-0.017,0.02-0.035,0.029-0.052c-0.149,0.264-0.297,0.528-0.446,0.792c0.029-0.051,0.058-0.102,0.088-0.154
		c-0.028,0.05-0.056,0.101-0.084,0.151c0.018-0.032,0.036-0.063,0.054-0.094c-4.851,8.708-9.368,17.858-10.702,27.842
		C1238.787,707.829,1233.968,711.602,1232.77,708.076z"/>
	<path style="fill:#FFFFFF;" d="M1245.163,697.112c-4.103-2.847,2.369-8.633,3.671-11.88c2.732-2.841,4.614-10.654,9.362-9.403
		c3.428,3.988-4.353,7.915-5.809,11.571c0.067-0.084,0.129-0.173,0.195-0.262C1249.367,689.591,1249.343,697.237,1245.163,697.112z"
		/>
	<path style="fill:#FFFFFF;" d="M1233.649,756.202c-7.443-2.728,7.958-13.319,9.543-7.145c0.722,3.886-3.735,4.166-6.271,5.363
		C1235.919,755.151,1235.129,756.484,1233.649,756.202z"/>
	<path style="fill:#FFFFFF;" d="M1238.91,766.505c-2.138-2.692,5.327-8.636,7.219-5.5
		C1248.182,763.307,1240.219,768.933,1238.91,766.505z"/>
	<path style="fill:#FFFFFF;" d="M1247.455,777.119c-0.009-3.615,5.843-4.521,5.694-0.39
		C1253.159,780.344,1247.303,781.249,1247.455,777.119z"/>
	<path style="fill:#FFFFFF;" d="M1227.434,1304.936c-17.195-0.87-45.498-14.06-47.076-33.214c0.501-3.183,5.418-2.893,4.566,0.592
		c0.005-0.021,0.011-0.041,0.016-0.061c-0.001,0.005-0.002,0.009-0.003,0.013c0.011-0.043,0.023-0.086,0.034-0.129
		c4.999,15.292,24.535,22.865,39.225,25.65c-0.137-0.005-0.275-0.013-0.412-0.018c16.535,1.945,30.345-8.685,41.988-19.061
		c-0.032,0.027-0.065,0.054-0.098,0.081c1.14-0.967,2.279-1.938,3.424-2.905c-0.094,0.079-0.188,0.157-0.28,0.235
		c0.172-0.146,0.346-0.292,0.52-0.439c-0.021,0.017-0.042,0.034-0.063,0.051c0.779-0.662,1.548-1.313,2.329-1.976
		c-0.032,0.026-0.064,0.052-0.095,0.079c3.686-3.123,7.427-6.176,11.213-9.183c3.955-3.095,7.694,2.955,4.146,5.849
		c-2.74,2.408-5.463,4.838-8.244,7.197c0.029-0.025,0.057-0.05,0.086-0.074C1263.84,1289.963,1248.217,1305.737,1227.434,1304.936z"
		/>
	<path style="fill:#FFFFFF;" d="M1296.64,1284.681c-3.913-2.569,16.176-19.418,18.292-24.853c0.68-0.913,2.09-1.303,3.075-0.664
		c3.154,4.298-6.102,10.864-8.336,14.613C1306.233,1276.253,1300.912,1286.721,1296.64,1284.681z"/>
	<path style="fill:#FFFFFF;" d="M1330.285,1279.558c-2.847-2.461,1.348-5.696,2.518-8.022c1.937-2.01,3.646-7.125,7.127-5.504
		c3.562,3.72-3.513,7.515-5.028,10.796C1333.936,1278.4,1332.402,1280.823,1330.285,1279.558z"/>
	<path style="fill:#FFFFFF;" d="M1290.528,1429.492c-4.899-7.866,12.397-12.472,17.254-15.966c7.205-1.408,4.979,7.4-0.598,8.283
		C1302.12,1422.923,1294.565,1432.562,1290.528,1429.492z"/>
</g>
</svg>
