<?xml version="1.0" encoding="utf-8"?>
<!-- Generator: Adobe Illustrator 27.5.0, SVG Export Plug-In . SVG Version: 6.00 Build 0)  -->
<svg version="1.1" xmlns="http://www.w3.org/2000/svg" xmlns:xlink="http://www.w3.org/1999/xlink" x="0px" y="0px"
	 viewBox="0 0 1200 1200" style="enable-background:new 0 0 1200 1200;" xml:space="preserve">
<g id="BG">
	<rect style="fill:#FFFFFF;" width="1200" height="1200"/>
</g>
<g id="Object">
	<g>
		<g>
			<path style="fill:#B2702F;" d="M167.604,886.732c6.566,56.414,40.992,50.128,75.59,49.351
				c252.499-5.673,507.286-1.6,756.856-36.801c21.135-2.981,39.41-2.444,50.387-15.24c10.537-12.282,3.483-68.683,3-84.04
				c-4.5-142.978-15.122-294.131-31.152-436.355c-1.275-11.315-3.547-24.109-14.186-30.367c-7.263-4.272-16.613-4.292-25.365-4.161
				c-211.311,3.169-422.601,8.929-633.79,17.279c-62.318,2.464-154.658-0.849-183.251,14.367
				c-7.993,4.254-18.815,16.739-16.85,106.075C150.808,556.174,162.783,845.306,167.604,886.732z"/>
			<g>
				<path style="fill:#4C4C4D;" d="M165.367,886.823c2.099,16.689,6.847,35.174,21.996,44.741
					c12.15,7.673,27.437,7.608,41.296,7.223c57.995-1.611,116.012-2.35,174.023-3.208c125.007-1.848,250.084-3.812,374.877-11.868
					c62.19-4.015,124.295-9.542,186.131-17.33c15.057-1.897,30.07-4.206,45.144-5.953c10.603-1.229,21.858-1.915,31.709-6.396
					c15.097-6.867,17.144-19.92,17.747-35.036c0.707-17.73-1.085-35.432-2.282-53.099c-1.758-25.957-1.924-52.085-3.091-78.081
					c-2.732-60.839-6.458-121.634-11.17-182.351c-4.676-60.256-10.221-120.467-17.068-180.517
					c-1.091-9.567-2.407-19.949-8.663-27.699c-6.729-8.337-17.184-10.18-27.346-10.38c-30.717-0.605-61.619,0.886-92.337,1.45
					c-125.993,2.311-251.969,5.541-377.915,9.693c-60.965,2.01-121.921,4.935-182.895,6.583
					c-45.579,1.232-91.82-0.559-137.115,5.495c-17.215,2.301-37.491,4.249-44.385,22.36c-4.227,11.103-5.396,23.379-6.335,35.126
					c-1.73,21.651-1.476,43.436-0.949,65.13c1.615,66.418,4.394,132.82,7.194,199.196c2.725,64.601,5.211,129.278,9.669,193.788
					C164.09,872.74,164.562,879.802,165.367,886.823c0.326,2.846,4.803,2.685,4.474-0.184c-2.075-18.099-2.794-36.404-3.817-54.583
					c-1.801-32.002-3.33-64.019-4.794-96.038c-3.256-71.214-6.165-142.448-8.535-213.697c-1.038-31.223-2.478-62.558-1.614-93.795
					c0.434-15.679,1.105-31.782,4.865-47.083c1.433-5.831,3.375-12.79,8.12-16.893c7.568-6.544,20.821-7.942,30.225-9.372
					c20.348-3.094,41.051-3.904,61.596-4.534c50.392-1.544,100.765-2.36,151.154-4.239c120.971-4.511,241.974-8.172,362.996-10.983
					c61.005-1.417,122.014-2.618,183.027-3.604c14.216-0.23,29.475-2.047,43.583,0.067c15.68,2.349,21.139,14.582,23.03,28.826
					c3.735,28.129,6.18,56.502,8.898,84.744c11.17,116.057,18.653,232.494,22.445,349.025c0.53,16.285,2.346,32.493,2.812,48.784
					c0.442,15.434,2.8,36.86-12.868,45.567c-10.377,5.766-23.241,6.024-34.759,7.408c-14.739,1.771-29.427,4.003-44.158,5.85
					c-29.686,3.722-59.437,6.924-89.228,9.69c-119.999,11.139-240.521,15.189-360.971,17.528
					c-60.077,1.167-120.161,1.904-180.241,2.87c-29.76,0.479-59.526,0.916-89.28,1.685c-14.772,0.382-30.81,2.425-45.066-2.511
					c-19.074-6.604-25.125-26.465-27.42-44.713C169.484,883.801,165.007,883.959,165.367,886.823z"/>
			</g>
		</g>
		<g>
			<g>
				<path style="fill:#F3CC30;" d="M649.214,302.933c0.019-2.938,2.811-4.148,5.148-3.664c-0.443-5.83-0.976-14.382-1.413-21.753
					c-0.226,0.137-0.469,0.245-0.729,0.324c-0.495,0.243-1.028,0.353-1.598,0.328c-0.571,0.017-1.102-0.1-1.594-0.349
					c-0.513-0.162-0.955-0.436-1.328-0.821c-0.044-0.042-0.087-0.084-0.131-0.126c-0.51-0.494-0.862-1.074-1.054-1.742
					c-0.047-0.349-0.094-0.697-0.141-1.046c0.007-0.71,0.2-1.37,0.578-1.98c0.218-0.264,0.435-0.528,0.653-0.792
					c0.378-0.381,0.824-0.649,1.339-0.804c0.495-0.243,1.028-0.352,1.598-0.328c0.57-0.017,1.102,0.099,1.594,0.349
					c0.145,0.046,0.283,0.103,0.416,0.166c-0.271-4.732-0.45-7.994-0.45-7.994s-6.152,5.577-7.142,6.257
					c-0.991,0.68-15.385,15.589-15.385,15.589l-18.442-18.551c0,0-1.367,14.968-1.792,19.646c-0.424,4.678-0.334,21.34-0.165,25.834
					c0.066,1.771,0.194,8.34,0.323,15.787c2.277-0.3,4.83,0.965,4.812,3.779c-0.018,2.746-2.458,3.983-4.686,3.737
					c0.15,9.179,0.274,17.755,0.267,18.825c-0.014,2.246,0.056,52.981,0.219,58.224c0.047,1.493,0.047,5.146,0.025,9.607
					c0.478-0.397,1.024-0.683,1.646-0.844c0.367-0.044,0.735-0.089,1.102-0.133c0.571-0.017,1.102,0.099,1.594,0.349
					c0.513,0.162,0.955,0.436,1.328,0.821c0.402,0.359,0.685,0.782,0.849,1.271c0.256,0.47,0.372,0.976,0.347,1.517l-0.001,0.125
					c-0.007,0.71-0.2,1.37-0.578,1.981c-0.218,0.264-0.435,0.528-0.653,0.792c-0.52,0.484-1.132,0.817-1.835,0.999
					c-0.367,0.044-0.735,0.089-1.102,0.133c-0.571,0.017-1.102-0.099-1.594-0.349c-0.431-0.136-0.81-0.357-1.143-0.651
					c-0.081,10.238-0.222,21.503-0.222,21.503s7.136-5.249,10.511-8.597c1.473-1.461,4.224-4.57,6.858-7.61
					c-0.22-0.164-0.44-0.327-0.66-0.491c-0.51-0.494-0.862-1.074-1.054-1.742c-0.047-0.349-0.094-0.697-0.141-1.046
					c-0.018-0.541,0.104-1.045,0.367-1.512c0.17-0.486,0.458-0.906,0.865-1.26c0.378-0.381,0.824-0.649,1.339-0.804
					c0.495-0.243,1.028-0.353,1.598-0.328l0.132,0.001c0.748,0.007,1.444,0.19,2.088,0.55c0.234,0.174,0.467,0.347,0.701,0.521
					c0.849-1.002,1.376-1.629,1.376-1.629l1.617,1.407l5.879,6.216l11.345,15.237c0,0,0.528-20.777,0.749-24.52
					c0.146-2.475,0.645-19.677,0.919-32.458c-2.111,0.035-4.254-1.242-4.238-3.82c0.017-2.621,2.24-3.866,4.379-3.762
					c0.043-2.901,0.055-5.066,0.023-6.008c-0.059-1.733,0.078-10.754,0.246-21.845c-0.013,0.002-0.027,0.003-0.04,0.005
					c-0.748-0.007-1.444-0.19-2.088-0.55c-0.278-0.207-0.556-0.413-0.835-0.62c-0.402-0.359-0.685-0.782-0.849-1.271
					c-0.256-0.47-0.372-0.976-0.347-1.517c-0.018-0.542,0.104-1.046,0.367-1.512c0.17-0.486,0.458-0.906,0.865-1.26l0.132-0.124
					c0.52-0.484,1.132-0.817,1.835-0.999c0.36-0.043,0.719-0.087,1.079-0.131c0.254-17.39,0.489-36.657,0.166-41.009
					C652.604,307.367,649.193,306.183,649.214,302.933z M614.458,287.484c0.032-5.068,8.318-5.006,8.286,0.053
					C622.712,292.604,614.426,292.543,614.458,287.484z M638.386,299.306c-0.748-0.007-1.444-0.19-2.087-0.55
					c-0.278-0.207-0.556-0.413-0.835-0.62c-0.51-0.494-0.862-1.074-1.054-1.742c-0.047-0.349-0.094-0.697-0.141-1.046
					c-0.018-0.541,0.104-1.046,0.367-1.512c0.17-0.486,0.458-0.906,0.865-1.26c0.378-0.381,0.824-0.649,1.339-0.804
					c0.495-0.243,1.028-0.353,1.598-0.328l0.132,0.001c0.748,0.007,1.444,0.19,2.088,0.55c0.278,0.207,0.556,0.413,0.835,0.62
					c0.51,0.494,0.862,1.074,1.054,1.741c0.047,0.349,0.094,0.697,0.141,1.046c0.018,0.541-0.104,1.046-0.367,1.512
					c-0.17,0.486-0.458,0.906-0.865,1.26c-0.378,0.381-0.824,0.649-1.338,0.804c-0.495,0.243-1.028,0.352-1.598,0.328
					L638.386,299.306z M650.722,416.767c-0.032,5.068-8.318,5.006-8.286-0.053C642.468,411.647,650.754,411.708,650.722,416.767z
					 M628.854,401.65c-0.033,5.068-8.318,5.006-8.286-0.053C620.6,396.53,628.886,396.591,628.854,401.65z M619.469,380.774
					c0.512,0.162,0.955,0.436,1.328,0.822c0.402,0.359,0.685,0.782,0.848,1.271c0.256,0.47,0.372,0.976,0.347,1.517l-0.002,0.25
					c-0.007,0.71-0.2,1.37-0.578,1.981c-0.218,0.264-0.435,0.528-0.653,0.791c-0.52,0.484-1.132,0.817-1.835,0.999
					c-0.367,0.044-0.735,0.089-1.102,0.133c-0.57,0.017-1.102-0.1-1.594-0.349c-0.513-0.162-0.955-0.436-1.328-0.821
					c-0.402-0.359-0.685-0.782-0.849-1.271c-0.256-0.47-0.372-0.976-0.347-1.517l0.002-0.25c0.007-0.71,0.2-1.37,0.578-1.981
					c0.218-0.264,0.435-0.528,0.653-0.792c0.52-0.484,1.132-0.817,1.835-0.999c0.367-0.044,0.735-0.089,1.102-0.133
					C618.446,380.408,618.977,380.525,619.469,380.774z M640.311,371.297c0.513,0.162,0.955,0.436,1.328,0.821
					c0.044,0.042,0.087,0.084,0.131,0.126c0.51,0.494,0.862,1.074,1.054,1.741c0.047,0.349,0.094,0.697,0.141,1.046
					c-0.007,0.71-0.2,1.37-0.578,1.981c-0.218,0.264-0.435,0.528-0.653,0.792c-0.378,0.381-0.824,0.649-1.339,0.804
					c-0.495,0.243-1.028,0.352-1.598,0.328c-0.57,0.017-1.102-0.1-1.594-0.349c-0.513-0.162-0.955-0.436-1.328-0.821
					c-0.044-0.042-0.087-0.084-0.131-0.126c-0.51-0.494-0.862-1.074-1.054-1.741c-0.047-0.349-0.094-0.697-0.141-1.046
					c0.007-0.71,0.2-1.37,0.578-1.981c0.218-0.264,0.435-0.528,0.653-0.792c0.378-0.381,0.824-0.649,1.338-0.804
					c0.495-0.243,1.028-0.352,1.598-0.328C639.287,370.931,639.819,371.048,640.311,371.297z M623.743,354.077
					c-0.032,5.068-8.318,5.006-8.286-0.053C615.489,348.956,623.775,349.017,623.743,354.077z M636.399,342.602
					c0.748,0.007,1.444,0.19,2.088,0.55c0.278,0.207,0.556,0.413,0.835,0.62c0.51,0.494,0.862,1.074,1.054,1.742
					c0.047,0.349,0.094,0.697,0.141,1.046c0.018,0.541-0.104,1.046-0.367,1.512c-0.17,0.486-0.458,0.906-0.865,1.26
					c-0.378,0.381-0.824,0.649-1.338,0.804c-0.495,0.243-1.028,0.352-1.598,0.328l-0.132-0.001c-0.748-0.007-1.444-0.191-2.088-0.55
					c-0.278-0.207-0.556-0.413-0.834-0.62c-0.51-0.494-0.862-1.074-1.054-1.742c-0.047-0.349-0.094-0.697-0.141-1.046
					c-0.018-0.541,0.104-1.046,0.367-1.512c0.17-0.486,0.458-0.906,0.865-1.26c0.378-0.381,0.824-0.649,1.339-0.804
					c0.495-0.243,1.028-0.352,1.598-0.328L636.399,342.602z M644.088,322.872c-0.032,5.068-8.318,5.006-8.286-0.053
					C635.835,317.752,644.12,317.813,644.088,322.872z M621.324,311.188c0.513,0.162,0.955,0.435,1.328,0.821
					c0.097,0.072,0.194,0.144,0.29,0.216c0.51,0.494,0.862,1.074,1.054,1.741c0.047,0.349,0.094,0.697,0.141,1.046
					c-0.007,0.71-0.2,1.37-0.578,1.981c-0.218,0.264-0.435,0.528-0.653,0.791c-0.378,0.381-0.824,0.649-1.339,0.804
					c-0.495,0.243-1.028,0.352-1.598,0.328c-0.57,0.017-1.102-0.1-1.594-0.349c-0.513-0.162-0.955-0.436-1.328-0.821
					c-0.097-0.072-0.194-0.144-0.29-0.216c-0.51-0.494-0.862-1.074-1.054-1.742c-0.047-0.349-0.094-0.697-0.141-1.046
					c0.007-0.71,0.2-1.37,0.578-1.981c0.218-0.264,0.435-0.528,0.653-0.792c0.378-0.381,0.824-0.649,1.338-0.804
					c0.495-0.243,1.028-0.352,1.598-0.328C620.301,310.823,620.832,310.939,621.324,311.188z"/>
				<path style="fill:#FFFFFF;" d="M612.833,428.444c0.367-0.044,0.735-0.089,1.102-0.133c0.703-0.182,1.315-0.515,1.835-0.999
					c0.218-0.264,0.435-0.528,0.653-0.792c0.379-0.611,0.571-1.271,0.578-1.981l0.001-0.125c0.025-0.541-0.091-1.047-0.347-1.517
					c-0.164-0.488-0.447-0.912-0.849-1.271c-0.373-0.386-0.816-0.66-1.328-0.821c-0.492-0.249-1.023-0.366-1.594-0.349
					c-0.367,0.044-0.735,0.089-1.102,0.133c-0.621,0.161-1.167,0.447-1.646,0.844c-0.01,1.893-0.023,3.93-0.04,6.01
					c0.332,0.295,0.711,0.515,1.143,0.651C611.731,428.345,612.263,428.461,612.833,428.444z"/>
				<path style="fill:#FFFFFF;" d="M620.568,401.597c-0.032,5.059,8.253,5.121,8.286,0.053
					C628.886,396.591,620.6,396.53,620.568,401.597z"/>
				<path style="fill:#FFFFFF;" d="M642.436,416.714c-0.032,5.059,8.253,5.121,8.286,0.053
					C650.754,411.708,642.468,411.647,642.436,416.714z"/>
				<path style="fill:#FFFFFF;" d="M650.122,387.059c-0.016,2.578,2.127,3.855,4.238,3.82c0.06-2.809,0.109-5.403,0.141-7.582
					C652.363,383.193,650.139,384.439,650.122,387.059z"/>
				<path style="fill:#FFFFFF;" d="M614.938,381.558c-0.218,0.264-0.435,0.528-0.653,0.792c-0.379,0.611-0.571,1.271-0.578,1.981
					l-0.002,0.25c-0.025,0.541,0.091,1.047,0.347,1.517c0.164,0.488,0.447,0.912,0.849,1.271c0.373,0.386,0.815,0.66,1.328,0.821
					c0.492,0.249,1.024,0.366,1.594,0.349c0.367-0.045,0.735-0.089,1.102-0.133c0.703-0.182,1.314-0.516,1.835-0.999
					c0.218-0.264,0.435-0.528,0.653-0.791c0.379-0.611,0.571-1.271,0.578-1.981l0.002-0.25c0.025-0.541-0.091-1.047-0.347-1.517
					c-0.164-0.488-0.447-0.912-0.848-1.271c-0.373-0.386-0.816-0.66-1.328-0.822c-0.492-0.249-1.023-0.366-1.594-0.349
					c-0.367,0.044-0.735,0.089-1.102,0.133C616.07,380.741,615.458,381.074,614.938,381.558z"/>
				<path style="fill:#FFFFFF;" d="M615.457,354.024c-0.032,5.059,8.253,5.121,8.286,0.053
					C623.775,349.017,615.489,348.956,615.457,354.024z"/>
				<path style="fill:#FFFFFF;" d="M635.78,372.081c-0.218,0.264-0.435,0.528-0.653,0.792c-0.379,0.611-0.572,1.271-0.578,1.981
					c0.047,0.349,0.094,0.697,0.141,1.046c0.193,0.667,0.544,1.248,1.054,1.741c0.044,0.042,0.087,0.084,0.131,0.126
					c0.373,0.386,0.815,0.66,1.328,0.821c0.492,0.249,1.023,0.365,1.594,0.349c0.57,0.024,1.103-0.085,1.598-0.328
					c0.515-0.155,0.961-0.423,1.339-0.804c0.218-0.264,0.435-0.528,0.653-0.792c0.379-0.611,0.571-1.271,0.578-1.981
					c-0.047-0.349-0.094-0.697-0.141-1.046c-0.193-0.667-0.544-1.248-1.054-1.741c-0.043-0.042-0.087-0.084-0.131-0.126
					c-0.373-0.386-0.815-0.66-1.328-0.821c-0.492-0.249-1.023-0.366-1.594-0.349c-0.57-0.024-1.103,0.085-1.598,0.328
					C636.604,371.432,636.158,371.7,635.78,372.081z"/>
				<path style="fill:#FFFFFF;" d="M651.977,348.596l-0.132,0.124c-0.406,0.354-0.694,0.773-0.865,1.26
					c-0.262,0.467-0.385,0.971-0.367,1.512c-0.025,0.541,0.091,1.047,0.347,1.517c0.164,0.489,0.447,0.912,0.849,1.271
					c0.278,0.207,0.556,0.413,0.835,0.62c0.644,0.36,1.34,0.543,2.088,0.55c0.013-0.002,0.027-0.003,0.04-0.005
					c0.039-2.57,0.079-5.251,0.119-7.979c-0.359,0.043-0.719,0.087-1.079,0.131C653.108,347.779,652.497,348.112,651.977,348.596z"
					/>
				<path style="fill:#FFFFFF;" d="M635.802,322.819c-0.032,5.059,8.253,5.121,8.286,0.053
					C644.12,317.813,635.835,317.752,635.802,322.819z"/>
				<path style="fill:#FFFFFF;" d="M616.794,311.972c-0.218,0.264-0.435,0.528-0.653,0.792c-0.379,0.611-0.571,1.271-0.578,1.981
					c0.047,0.349,0.094,0.697,0.141,1.046c0.193,0.667,0.544,1.248,1.054,1.742c0.097,0.072,0.194,0.144,0.29,0.216
					c0.373,0.386,0.815,0.66,1.328,0.821c0.492,0.249,1.023,0.366,1.594,0.349c0.57,0.024,1.103-0.086,1.598-0.328
					c0.515-0.155,0.961-0.423,1.339-0.804c0.218-0.264,0.435-0.528,0.653-0.791c0.379-0.611,0.571-1.271,0.578-1.981
					c-0.047-0.349-0.094-0.697-0.141-1.046c-0.192-0.667-0.544-1.248-1.054-1.741c-0.097-0.072-0.193-0.144-0.29-0.216
					c-0.373-0.386-0.815-0.659-1.328-0.821c-0.492-0.249-1.024-0.366-1.594-0.349c-0.57-0.024-1.103,0.085-1.598,0.328
					C617.617,311.323,617.171,311.591,616.794,311.972z"/>
				<path style="fill:#FFFFFF;" d="M622.744,287.537c0.032-5.059-8.253-5.121-8.286-0.053
					C614.426,292.543,622.712,292.604,622.744,287.537z"/>
				<path style="fill:#FFFFFF;" d="M614.311,331.041c0.018-2.813-2.536-4.079-4.812-3.779c0.043,2.457,0.086,5.009,0.127,7.516
					C611.853,335.023,614.294,333.787,614.311,331.041z"/>
				<path style="fill:#FFFFFF;" d="M633.331,343.734c-0.406,0.354-0.694,0.773-0.865,1.26c-0.262,0.467-0.384,0.971-0.367,1.512
					c0.047,0.349,0.094,0.697,0.141,1.046c0.193,0.667,0.544,1.248,1.054,1.742c0.278,0.207,0.556,0.413,0.834,0.62
					c0.644,0.36,1.34,0.543,2.088,0.55l0.132,0.001c0.57,0.024,1.103-0.085,1.598-0.328c0.515-0.155,0.961-0.423,1.338-0.804
					c0.406-0.354,0.694-0.773,0.865-1.26c0.262-0.467,0.385-0.971,0.367-1.512c-0.047-0.349-0.094-0.697-0.141-1.046
					c-0.192-0.667-0.544-1.248-1.054-1.742c-0.278-0.207-0.556-0.413-0.835-0.62c-0.644-0.36-1.34-0.543-2.088-0.55l-0.132-0.001
					c-0.57-0.024-1.103,0.085-1.598,0.328C634.155,343.085,633.709,343.353,633.331,343.734z"/>
				<path style="fill:#FFFFFF;" d="M649.214,302.933c-0.021,3.25,3.39,4.434,5.842,3.524c-0.022-0.293-0.046-0.526-0.073-0.679
					c-0.158-0.897-0.376-3.289-0.621-6.509C652.024,298.784,649.232,299.995,649.214,302.933z"/>
				<path style="fill:#FFFFFF;" d="M641.454,298.174c0.406-0.353,0.695-0.773,0.865-1.26c0.262-0.467,0.385-0.971,0.367-1.512
					c-0.047-0.349-0.094-0.697-0.141-1.046c-0.193-0.667-0.544-1.248-1.054-1.741c-0.278-0.207-0.556-0.413-0.835-0.62
					c-0.644-0.36-1.34-0.543-2.088-0.55l-0.132-0.001c-0.57-0.024-1.103,0.085-1.598,0.328c-0.515,0.155-0.961,0.423-1.339,0.804
					c-0.406,0.354-0.695,0.773-0.865,1.26c-0.262,0.467-0.385,0.971-0.367,1.512c0.047,0.349,0.094,0.697,0.141,1.046
					c0.193,0.667,0.544,1.248,1.054,1.742c0.278,0.207,0.556,0.413,0.835,0.62c0.644,0.36,1.34,0.543,2.087,0.55l0.132,0.001
					c0.57,0.024,1.103-0.085,1.598-0.328C640.63,298.823,641.077,298.555,641.454,298.174z"/>
				<path style="fill:#FFFFFF;" d="M650.541,270.179c-0.57-0.024-1.103,0.085-1.598,0.328c-0.515,0.155-0.961,0.423-1.339,0.804
					c-0.218,0.264-0.435,0.528-0.653,0.792c-0.379,0.611-0.571,1.271-0.578,1.98c0.047,0.349,0.094,0.697,0.141,1.046
					c0.192,0.667,0.544,1.248,1.054,1.742c0.044,0.042,0.087,0.084,0.131,0.126c0.373,0.386,0.815,0.66,1.328,0.821
					c0.492,0.249,1.023,0.366,1.594,0.349c0.57,0.024,1.103-0.085,1.598-0.328c0.261-0.079,0.504-0.187,0.729-0.324
					c-0.146-2.454-0.28-4.774-0.398-6.821c-0.134-0.064-0.271-0.121-0.416-0.166C651.643,270.278,651.112,270.162,650.541,270.179z"
					/>
				<path style="fill:#FFFFFF;" d="M629.687,425.556l-0.132-0.001c-0.57-0.024-1.103,0.085-1.598,0.328
					c-0.515,0.155-0.961,0.423-1.339,0.804c-0.406,0.354-0.695,0.773-0.865,1.26c-0.262,0.467-0.385,0.971-0.367,1.512
					c0.047,0.349,0.094,0.697,0.141,1.046c0.193,0.667,0.544,1.248,1.054,1.742c0.22,0.164,0.44,0.327,0.66,0.491
					c2.027-2.34,3.981-4.635,5.232-6.112c-0.233-0.173-0.467-0.347-0.701-0.521C631.131,425.747,630.435,425.563,629.687,425.556z"
					/>
			</g>
			<path style="fill:#4C4C4D;" d="M651.907,261.367c-7.599,6.683-14.78,13.701-21.558,21.031
				c-6.158-6.227-12.31-12.46-18.458-18.695c-0.646-0.656-1.765-0.13-1.837,0.629c-2.773,29.122-2.196,58.359-1.49,87.549
				c0.656,27.113,0.909,54.192-0.003,81.294c-0.092,0.038-0.163,0.113-0.165,0.233c-0.016,1.278-0.004,2.557,0.018,3.836
				c-0.029,0.772-0.056,1.544-0.087,2.317c-0.006,0.146,0.052,0.255,0.14,0.332c0.015,0.653,0.03,1.305,0.044,1.957
				c0.037,1.785,0.01,3.591,0.216,5.371c-0.023,0.994-0.049,1.989-0.069,2.982c-0.017,0.852,1.228,1.367,1.933,0.745
				c8.537-7.528,16.571-15.458,24.14-23.743c5.284,7.102,10.953,13.965,17.025,20.567c0.658,0.716,1.925,0.133,1.972-0.675
				c2.791-48.039,3.47-96.17,1.96-144.26c-0.426-13.575-1.012-27.147-1.812-40.71C653.826,261.283,652.66,260.704,651.907,261.367z
				 M653.292,406.35c-0.416,12.666-1.001,25.327-1.714,37.981c-5.594-6.214-10.856-12.639-15.75-19.297
				c-0.502-0.683-1.433-0.638-1.976-0.037c-6.664,7.37-13.75,14.421-21.192,21.187c-0.057,0.257-0.268,0.411-0.515,0.468
				c-0.375,0.34-0.747,0.683-1.124,1.021c0.022-0.859,0.054-1.717,0.081-2.576c-0.035-0.565-0.094-1.129-0.162-1.693
				c-0.068-0.389-0.114-0.779-0.145-1.17c-0.115-0.937-0.215-1.875-0.21-2.818c0.001-0.132,0.042-0.245,0.111-0.338
				c-0.057-0.765-0.093-1.53-0.112-2.295c-0.015-0.568-0.02-1.136-0.018-1.705c0.013-5.048,0.585-10.107,0.37-15.157
				c-0.15-3.52-0.659-7.377-0.196-11.017c0.858-47.417-3.013-94.914,1.259-142.232c5.863,5.955,11.724,11.911,17.577,17.873
				c0.353,0.36,1.19,0.418,1.55,0.029c6.468-6.993,13.329-13.678,20.544-20.078C654.169,311.757,654.843,359.061,653.292,406.35z"/>
		</g>
		<g>
			<g>
				<path style="fill:#72A3D8;" d="M268.557,428.196c-10.686,1.147-21.644,0.753-32.336,1.843
					c-6.998,0.713-13.852,0.171-20.878-0.171c-6.554-0.319-12.934,1.214-19.466,0.596c-17.298-1.637-34.865,1.511-52.24,1.423
					c-18.092-0.091-37.556,1.153-54.272,0.056c-0.416-0.028,0.993,0.141,1.17,0.517c2.707,5.736,10.217,11.31,16.528,15.13
					c4.261,2.578,6.665,7.418,10.481,10.619c0.196,0.164,0.179,0.468-0.034,0.609l-25.353,16.716
					c-0.311,0.205-0.176,0.689,0.196,0.704c58.494,2.321,117.131,1.049,175.47-3.804c1.303-14.501,0.615-29.293,1.158-43.842
					C268.99,428.358,268.789,428.171,268.557,428.196z"/>
			</g>
			<g>
				<path style="fill:none;" d="M129.305,431.824c7.499,15.108,14.998,30.216,22.498,45.324c2.792-0.005,5.583-0.014,8.375-0.035
					c-6.262-15.518-13.369-30.681-21.284-45.42C135.72,431.714,132.518,431.762,129.305,431.824z"/>
				<path style="fill:none;" d="M117.632,432.062c8.987,14.661,17.35,29.7,25.061,45.073c2.62,0.012,5.24,0.019,7.861,0.016
					c-7.496-15.101-14.992-30.202-22.487-45.302C124.585,431.919,121.1,431.996,117.632,432.062z"/>
				<path style="fill:none;" d="M161.38,477.101c3.095-0.026,6.189-0.058,9.284-0.105c-6.576-15.28-13.476-30.417-20.696-45.403
					c-2.048,0.066-4.094,0.102-6.137,0.092c-1.216-0.006-2.439-0.005-3.666-0.001C148.055,446.424,155.135,461.589,161.38,477.101z"
					/>
				<path style="fill:none;" d="M205.864,476.033c-6.247-15.723-13.209-31.153-20.862-46.242c-2.986,0.006-5.977,0.103-8.971,0.25
					c7.476,15.071,14.111,30.546,19.873,46.351C199.225,476.283,202.545,476.164,205.864,476.033z"/>
				<path style="fill:none;" d="M219.156,475.445c-5.639-15.303-11.988-30.335-19.03-45.044c-1.347,0.021-2.697-0.011-4.054-0.139
					c-3.262-0.309-6.533-0.447-9.811-0.469c7.623,15.075,14.562,30.489,20.791,46.192
					C211.087,475.822,215.122,475.642,219.156,475.445z"/>
				<path style="fill:none;" d="M244.463,473.99c-6.077-14.844-12.65-29.479-19.711-43.88c-3.056-0.104-6.119-0.293-9.215-0.444
					c-0.319-0.016-0.637-0.023-0.955-0.03c5.9,15.119,12.038,30.144,18.411,45.07C236.818,474.482,240.641,474.244,244.463,473.99z"
					/>
				<path style="fill:none;" d="M231.807,474.773c-6.381-14.951-12.525-30.002-18.432-45.147c-4.035,0.025-8.019,0.585-12.026,0.742
					c7.021,14.703,13.356,29.727,18.982,45.02C224.157,475.198,227.982,474.993,231.807,474.773z"/>
				<path style="fill:none;" d="M105.359,432.193c7.989,15.042,16.166,29.984,24.521,44.826c3.851,0.052,7.702,0.089,11.553,0.11
					c-7.727-15.363-16.102-30.392-25.104-45.042C112.633,432.152,108.967,432.196,105.359,432.193z"/>
				<path style="fill:none;" d="M92.353,475.332c-0.311,0.205-0.176,0.689,0.196,0.704c3.358,0.133,6.716,0.251,10.075,0.361
					c-0.969-1.975-1.93-3.954-2.878-5.94L92.353,475.332z"/>
				<path style="fill:none;" d="M100.688,469.835c1.054,2.208,2.125,4.408,3.205,6.604c3.53,0.112,7.06,0.212,10.59,0.298
					c-1.899-4.08-3.799-8.16-5.699-12.24L100.688,469.835z"/>
				<path style="fill:none;" d="M89.56,431.74c-0.416-0.027,0.993,0.141,1.171,0.518c1.351,2.862,3.898,5.684,6.894,8.268
					c-1.33-2.857-2.66-5.713-3.989-8.569C92.262,431.896,90.899,431.828,89.56,431.74z"/>
				<path style="fill:none;" d="M194.723,476.43c-5.772-15.8-12.419-31.267-19.914-46.328c-4.725,0.252-9.455,0.615-14.182,0.93
					c8.907,14.647,16.755,29.921,23.481,45.695C187.647,476.641,191.185,476.543,194.723,476.43z"/>
				<path style="fill:none;" d="M182.904,476.758c-6.74-15.76-14.611-31.017-23.54-45.643c-2.727,0.176-5.452,0.331-8.174,0.435
					c7.214,14.993,14.109,30.139,20.681,45.425C175.549,476.917,179.227,476.844,182.904,476.758z"/>
				<path style="fill:none;" d="M255.099,473.241c-7.097-14.174-13.624-28.629-19.568-43.324c-3.188,0.278-6.35,0.311-9.514,0.231
					c7.027,14.366,13.572,28.963,19.626,43.767C248.795,473.702,251.947,473.474,255.099,473.241z"/>
				<path style="fill:none;" d="M94.892,432.006l4.727,10.154c2.489,1.949,5.157,3.724,7.64,5.227
					c4.261,2.578,6.665,7.418,10.48,10.618c0.196,0.164,0.179,0.469-0.034,0.609l-7.977,5.26l6,12.888
					c4.284,0.1,8.568,0.177,12.852,0.239c-8.347-14.838-16.513-29.777-24.494-44.814C100.965,432.174,97.894,432.119,94.892,432.006
					z"/>
				<path style="fill:none;" d="M268.018,472.231c0.372-4.143,0.579-8.309,0.701-12.487c-3.774-10.327-7.547-20.655-11.321-30.982
					c-3.874,0.157-7.758,0.255-11.628,0.429c7.251,14.154,13.992,28.563,20.203,43.203
					C266.655,472.338,267.337,472.288,268.018,472.231z"/>
				<path style="fill:none;" d="M264.799,472.487c-6.226-14.655-12.99-29.075-20.262-43.239c-2.624,0.13-5.24,0.304-7.841,0.563
					c5.956,14.704,12.499,29.164,19.614,43.344C259.142,472.942,261.971,472.716,264.799,472.487z"/>
				<path style="fill:none;" d="M269.176,428.388c0.009-0.233-0.192-0.421-0.424-0.395c-3.37,0.362-6.767,0.57-10.175,0.72
					c3.406,9.322,6.813,18.644,10.219,27.966C268.986,447.244,268.826,437.766,269.176,428.388z"/>
				<path style="fill:#C93D36;" d="M268.796,456.68c-3.406-9.322-6.812-18.644-10.219-27.966c-0.392,0.017-0.785,0.033-1.178,0.049
					c3.774,10.328,7.547,20.655,11.321,30.982C268.75,458.723,268.775,457.702,268.796,456.68z"/>
				<path style="fill:#C93D36;" d="M265.974,472.393c-6.211-14.64-12.952-29.049-20.203-43.203
					c-0.411,0.018-0.822,0.036-1.233,0.057c7.272,14.165,14.036,28.585,20.262,43.239
					C265.191,472.455,265.582,472.426,265.974,472.393z"/>
				<path style="fill:#C93D36;" d="M256.311,473.154c-7.116-14.18-13.659-28.64-19.614-43.344c-0.094,0.009-0.187,0.017-0.281,0.026
					c-0.296,0.03-0.59,0.055-0.885,0.081c5.944,14.695,12.471,29.149,19.568,43.324
					C255.503,473.211,255.907,473.184,256.311,473.154z"/>
				<path style="fill:#C93D36;" d="M245.642,473.914c-6.054-14.803-12.598-29.401-19.626-43.767
					c-0.421-0.011-0.843-0.024-1.264-0.038c7.061,14.401,13.633,29.036,19.711,43.88
					C244.856,473.964,245.249,473.941,245.642,473.914z"/>
				<path style="fill:#C93D36;" d="M232.994,474.706c-6.374-14.926-12.511-29.952-18.411-45.07c-0.403-0.009-0.805-0.012-1.207-0.01
					c5.906,15.145,12.05,30.196,18.432,45.147C232.202,474.75,232.598,474.729,232.994,474.706z"/>
				<path style="fill:#C93D36;" d="M220.331,475.388c-5.626-15.293-11.961-30.317-18.982-45.02
					c-0.408,0.016-0.816,0.027-1.224,0.034c7.042,14.709,13.391,29.74,19.03,45.044
					C219.547,475.426,219.939,475.407,220.331,475.388z"/>
				<path style="fill:#C93D36;" d="M207.052,475.985c-6.229-15.703-13.167-31.117-20.791-46.192
					c-0.419-0.003-0.839-0.003-1.259-0.002c7.652,15.089,14.614,30.519,20.862,46.242
					C206.26,476.018,206.656,476.001,207.052,475.985z"/>
				<path style="fill:#FFFFFF;" d="M195.905,476.391c-5.762-15.805-12.397-31.28-19.873-46.351c-0.407,0.02-0.815,0.04-1.222,0.062
					c7.495,15.061,14.141,30.528,19.914,46.328C195.117,476.418,195.511,476.404,195.905,476.391z"/>
				<path style="fill:#FFFFFF;" d="M184.109,476.727c-6.727-15.774-14.574-31.048-23.481-45.695
					c-0.421,0.028-0.842,0.055-1.264,0.083c8.929,14.626,16.8,29.883,23.54,45.643C183.306,476.749,183.707,476.737,184.109,476.727
					z"/>
				<path style="fill:#FFFFFF;" d="M171.872,476.975c-6.572-15.286-13.467-30.432-20.681-45.425
					c-0.408,0.016-0.815,0.03-1.222,0.043c7.22,14.985,14.12,30.123,20.696,45.403C171.067,476.99,171.469,476.981,171.872,476.975z
					"/>
				<path style="fill:#FFFFFF;" d="M138.894,431.693c7.915,14.739,15.022,29.902,21.284,45.42c0.401-0.003,0.802-0.009,1.202-0.012
					c-6.245-15.512-13.325-30.676-21.214-45.417C139.743,431.686,139.318,431.69,138.894,431.693z"/>
				<path style="fill:#FFFFFF;" d="M128.066,431.849c7.496,15.101,14.991,30.201,22.487,45.302c0.417,0,0.833-0.002,1.25-0.003
					c-7.499-15.108-14.999-30.216-22.498-45.324C128.893,431.832,128.48,431.841,128.066,431.849z"/>
				<path style="fill:#FFFFFF;" d="M116.329,432.087c9.002,14.65,17.377,29.679,25.104,45.042c0.42,0.002,0.84,0.005,1.26,0.007
					c-7.711-15.373-16.074-30.411-25.061-45.073C117.198,432.07,116.763,432.079,116.329,432.087z"/>
				<path style="fill:#FFFFFF;" d="M104.086,432.188c7.981,15.038,16.148,29.976,24.494,44.814c0.433,0.006,0.867,0.011,1.3,0.017
					c-8.355-14.842-16.532-29.784-24.521-44.826C104.933,432.192,104.51,432.189,104.086,432.188z"/>
				<path style="fill:#FFFFFF;" d="M93.635,431.956c1.33,2.856,2.66,5.713,3.989,8.569c0.646,0.557,1.314,1.102,1.994,1.635
					l-4.727-10.154C94.471,431.991,94.052,431.974,93.635,431.956z"/>
				<path style="fill:#FFFFFF;" d="M108.785,464.497c1.899,4.08,3.799,8.16,5.699,12.24c0.415,0.01,0.83,0.016,1.245,0.025
					l-6-12.888L108.785,464.497z"/>
				<path style="fill:#FFFFFF;" d="M99.746,470.457c0.948,1.986,1.909,3.964,2.878,5.94c0.423,0.014,0.846,0.029,1.27,0.043
					c-1.08-2.196-2.151-4.396-3.205-6.604L99.746,470.457z"/>
			</g>
			<path style="fill:#4C4C4D;" d="M88.495,432.506c8.397,9.427,17.964,17.739,28.434,24.784c-9.7,5.496-18.796,11.973-27.178,19.328
				c-0.645,0.566-0.06,1.596,0.702,1.597c46.631,0.081,93.268-0.739,139.863-2.584c8.284-0.328,16.567-0.732,24.844-1.226
				c4.443,0.19,8.886-0.026,13.277-0.747c0.218-0.036,0.429-0.33,0.4-0.549c-0.049-0.371-0.104-0.741-0.159-1.111
				c0.024-0.041,0.053-0.077,0.086-0.108c1.698-14.879,1.746-29.906,0.171-44.802c-0.067-0.637-0.592-1.06-1.236-0.901
				c-11.233,2.776-22.831,2.664-34.324,2.592c-11.728-0.073-23.456-0.057-35.183,0.048c-23.203,0.207-46.402,0.755-69.589,1.63
				c-13.151,0.496-26.291,0.979-39.446,0.349C88.231,430.764,87.974,431.921,88.495,432.506z M124.551,432.552
				c11.835-0.442,23.671-0.84,35.511-1.13c23.449-0.575,46.905-0.799,70.361-0.7c12.273,0.051,24.681,0.36,36.707-2.431
				c1.501,14.766,1.392,29.634-0.277,44.38c-22.469,0.573-44.928,1.526-67.395,2.18c-23.306,0.678-46.619,1.124-69.935,1.337
				c-12.186,0.111-24.372,0.154-36.559,0.141c8.127-6.913,16.921-12.988,26.257-18.163c0.662-0.367,0.524-1.262-0.035-1.63
				c-10.192-6.703-19.478-14.651-27.702-23.649C102.499,433.347,113.54,432.963,124.551,432.552z"/>
			<path style="fill:#4C4C4D;" d="M88.495,432.506c8.397,9.427,17.964,17.739,28.434,24.784c-9.7,5.496-18.796,11.973-27.178,19.328
				c-0.645,0.566-0.06,1.596,0.702,1.597c46.631,0.081,93.268-0.739,139.863-2.584c8.284-0.328,16.567-0.732,24.844-1.226
				c4.443,0.19,8.886-0.026,13.277-0.747c0.218-0.036,0.429-0.33,0.4-0.549c-0.049-0.371-0.104-0.741-0.159-1.111
				c0.024-0.041,0.053-0.077,0.086-0.108c1.698-14.879,1.746-29.906,0.171-44.802c-0.067-0.637-0.592-1.06-1.236-0.901
				c-11.233,2.776-22.831,2.664-34.324,2.592c-11.728-0.073-23.456-0.057-35.183,0.048c-23.203,0.207-46.402,0.755-69.589,1.63
				c-13.151,0.496-26.291,0.979-39.446,0.349C88.231,430.764,87.974,431.921,88.495,432.506z M124.551,432.552
				c11.835-0.442,23.671-0.84,35.511-1.13c23.449-0.575,46.905-0.799,70.361-0.7c12.273,0.051,24.681,0.36,36.707-2.431
				c1.501,14.766,1.392,29.634-0.277,44.38c-22.469,0.573-44.928,1.526-67.395,2.18c-23.306,0.678-46.619,1.124-69.935,1.337
				c-12.186,0.111-24.372,0.154-36.559,0.141c8.127-6.913,16.921-12.988,26.257-18.163c0.662-0.367,0.524-1.262-0.035-1.63
				c-10.192-6.703-19.478-14.651-27.702-23.649C102.499,433.347,113.54,432.963,124.551,432.552z"/>
			<path style="fill:#4C4C4D;" d="M88.495,432.506c8.397,9.427,17.964,17.739,28.434,24.784c-9.7,5.496-18.796,11.973-27.178,19.328
				c-0.645,0.566-0.06,1.596,0.702,1.597c46.631,0.081,93.268-0.739,139.863-2.584c8.284-0.328,16.567-0.732,24.844-1.226
				c4.443,0.19,8.886-0.026,13.277-0.747c0.218-0.036,0.429-0.33,0.4-0.549c-0.049-0.371-0.104-0.741-0.159-1.111
				c0.024-0.041,0.053-0.077,0.086-0.108c1.698-14.879,1.746-29.906,0.171-44.802c-0.067-0.637-0.592-1.06-1.236-0.901
				c-11.233,2.776-22.831,2.664-34.324,2.592c-11.728-0.073-23.456-0.057-35.183,0.048c-23.203,0.207-46.402,0.755-69.589,1.63
				c-13.151,0.496-26.291,0.979-39.446,0.349C88.231,430.764,87.974,431.921,88.495,432.506z M124.551,432.552
				c11.835-0.442,23.671-0.84,35.511-1.13c23.449-0.575,46.905-0.799,70.361-0.7c12.273,0.051,24.681,0.36,36.707-2.431
				c1.501,14.766,1.392,29.634-0.277,44.38c-22.469,0.573-44.928,1.526-67.395,2.18c-23.306,0.678-46.619,1.124-69.935,1.337
				c-12.186,0.111-24.372,0.154-36.559,0.141c8.127-6.913,16.921-12.988,26.257-18.163c0.662-0.367,0.524-1.262-0.035-1.63
				c-10.192-6.703-19.478-14.651-27.702-23.649C102.499,433.347,113.54,432.963,124.551,432.552z"/>
		</g>
		<g>
			<path style="fill:#E26D64;" d="M919.837,718.109c0,0,13.208-1.696,23.382-2.306c10.174-0.61,65.318-2.665,71.645-3.221
				c6.327-0.556,48.412-1.986,48.412-1.986l13.827-0.699l26.71,27.22l-27.699,19.033c0,0-111.443,8.806-119.719,8.761
				c-8.276-0.045-36.385,1.954-36.385,1.954S917.995,720.109,919.837,718.109z"/>
			<g>
				<path style="fill:none;" d="M1075.136,755.702c-0.095-0.979-0.186-1.959-0.274-2.94c-0.653-4.972-0.934-9.968-1.009-14.976
					c-0.064-1.398-0.122-2.796-0.168-4.195c-0.005-0.162-0.011-0.325-0.016-0.488c-0.6-7.653-0.742-15.334-0.431-23.012
					l-9.963,0.504c0,0-42.084,1.43-48.412,1.986c-6.328,0.556-61.471,2.611-71.646,3.221c-3.155,0.189-6.6,0.483-9.854,0.798
					c0.204,2.885,0.011,5.9,0.055,8.743c0.209,13.53,0.417,27.061,0.626,40.591c8.308-0.515,18.029-1.049,22.349-1.025
					c7.834,0.043,108.085-7.843,118.792-8.687C1075.172,756.049,1075.15,755.875,1075.136,755.702z"/>
				<path style="fill:none;" d="M1084.748,718.323l0.003,0c0.104-0.105,0.222-0.196,0.344-0.281l-0.75-0.764
					c0.145,0.214,0.262,0.463,0.334,0.757C1084.703,718.13,1084.725,718.227,1084.748,718.323z"/>
				<path style="fill:none;" d="M1083.831,716.753l-1.23-1.253c0.089,0.29,0.181,0.579,0.264,0.87
					C1083.214,716.423,1083.544,716.552,1083.831,716.753z"/>
				<path style="fill:none;" d="M920.01,766.864c0,0,0.221-0.016,0.622-0.044c-0.272-1.151-0.526-2.304-0.764-3.461
					C919.953,765.549,920.01,766.864,920.01,766.864z"/>
				<path style="fill:#EFB4B1;" d="M1073.67,733.104c0.005,0.162,0.011,0.326,0.016,0.488c0.046,1.399,0.104,2.797,0.168,4.195
					c0.075,5.008,0.356,10.004,1.009,14.976c0.087,0.98,0.178,1.96,0.274,2.94c0.014,0.173,0.035,0.346,0.051,0.52
					c0.605-0.048,0.927-0.073,0.927-0.073l27.699-19.033l-18.718-19.075c-0.122,0.085-0.24,0.177-0.344,0.281l-0.002,0
					c-0.024-0.096-0.046-0.193-0.07-0.289c-0.072-0.294-0.189-0.542-0.334-0.757l-0.515-0.524c-0.287-0.201-0.617-0.33-0.966-0.383
					c-0.083-0.291-0.175-0.581-0.264-0.87l-5.499-5.604l-3.864,0.195C1072.928,717.77,1073.07,725.451,1073.67,733.104z"/>
				<path style="fill:#EFB4B1;" d="M933.365,716.6c-7.24,0.701-13.528,1.509-13.528,1.509c-1.534,1.665-0.394,34.354,0.031,45.251
					c0.238,1.156,0.491,2.31,0.764,3.461c1.782-0.125,7.201-0.5,13.415-0.885c-0.209-13.53-0.417-27.061-0.626-40.591
					C933.376,722.5,933.569,719.485,933.365,716.6z"/>
			</g>
			<path style="fill:#4C4C4D;" d="M1105.157,737.2c-7.265-8.493-15.095-16.662-23.442-24.479c-1.488-1.394-2.903-3.235-5.325-3.586
				c-2.809-0.408-6.038,0.025-8.886,0.098c-6.741,0.173-13.481,0.367-20.221,0.581c-27.241,0.866-54.473,2.061-81.684,3.588
				c-15.429,0.866-30.853,1.822-46.263,2.929c-0.536,0.039-0.882,0.37-0.906,0.791c-0.458,8.039-0.521,16.103-0.055,24.136
				c-0.071,8.277,0.118,16.551,0.566,24.817c0.025,0.464,0.503,0.791,1.068,0.789c25.566-0.108,51.128-1.23,76.643-2.867
				c12.625-0.81,25.241-1.741,37.85-2.729c6.445-0.505,12.889-1.026,19.332-1.553c6.144-0.503,12.501-0.652,18.581-1.556
				c2.811-0.418,4.947-1.588,7.143-3.026c2.815-1.843,5.612-3.703,8.417-5.555c5.612-3.704,11.223-7.409,16.825-11.122
				C1105.265,738.15,1105.532,737.638,1105.157,737.2z M1082.247,751.057c-2.309,1.529-4.608,3.388-7.252,4.544
				c-2.808,1.228-6.383,1.164-9.467,1.431c-3.08,0.267-6.16,0.534-9.241,0.79c-6.302,0.522-12.606,1.039-18.91,1.542
				c-25.069,2-50.168,3.775-75.308,4.831c-13.694,0.575-27.396,0.928-41.098,1c-0.21-4.01-0.367-8.023-0.47-12.038
				c0.067-0.075,0.106-0.171,0.098-0.292c-0.057-0.844-0.104-1.688-0.156-2.532c-0.211-10.863-0.039-21.735,0.52-32.602
				c25.826-1.736,51.666-3.261,77.529-4.443c13.192-0.603,26.388-1.125,39.587-1.569c6.74-0.226,13.48-0.432,20.221-0.618
				c3.09-0.085,6.179-0.166,9.269-0.242c1.404-0.035,2.809-0.069,4.213-0.102c1.879-0.044,4.173-0.419,5.707,0.601
				c1.263,0.839,2.276,2.075,3.33,3.078c1.141,1.086,2.27,2.179,3.389,3.279c2.182,2.143,4.325,4.312,6.43,6.505
				c4.171,4.347,8.175,8.796,12.044,13.321c-4.66,3.073-9.316,6.151-13.969,9.232
				C1086.559,748.202,1084.403,749.629,1082.247,751.057z"/>
		</g>
		<g>
			<path style="fill:#72A3D8;" d="M923.425,789.076c0,0,10.315-2.638,17.731-3.246c7.416-0.608,74-1.777,74-1.777
				s68.333-3.076,69.591-2.875c1.257,0.201,22.248,19.353,24.296,22.348c2.047,2.995-7.301,14.347-7.301,14.347l-11.038,12.384
				c0,0-81.447,3.534-91.397,4.904c-9.95,1.37-47.525,4.836-51.175,4.986c-3.65,0.15-17.484,0.717-17.484,0.717
				s12.898-14,17.206-16.87c4.308-2.871,12.509-9.365,12.509-9.365l3.275-2.791c0,0-14.267-7.149-16.675-9.552
				C944.556,799.883,924.14,790.073,923.425,789.076z"/>
			<g>
				<path style="fill:none;" d="M941.805,785.784c-2.348,3.149-4.642,6.336-6.887,9.557c5.062,2.654,10.215,5.419,11.79,6.716
					c3.126-5.492,6.081-11.078,8.86-16.754C949.128,785.476,944.08,785.643,941.805,785.784z"/>
				<path style="fill:none;" d="M947.854,823.994c-4.308,2.871-17.206,16.87-17.206,16.87s5.908-0.242,11.021-0.452
					c2.37-5.882,4.946-11.684,7.655-17.43C948.801,823.351,948.305,823.694,947.854,823.994z"/>
				<path style="fill:none;" d="M970.373,784.942c-4.127,7.963-8.341,15.925-12.423,23.955c3.13,1.659,5.687,2.941,5.687,2.941
					l-3.275,2.791c0,0-4.41,3.492-8.462,6.488c-3.037,6.334-5.924,12.732-8.559,19.227c2.03-0.083,3.792-0.156,4.79-0.197
					c0.626-0.026,2.249-0.149,4.559-0.342c9.42-18.474,19.044-36.842,28.867-55.105
					C977.829,784.778,974.051,784.859,970.373,784.942z"/>
				<path style="fill:none;" d="M1038.42,783.021c-8.596,17.035-17.192,34.069-25.789,51.104c4.205-0.26,9.097-0.538,14.344-0.82
					c7.689-16.93,15.378-33.859,23.067-50.789C1046.102,782.685,1042.16,782.857,1038.42,783.021z"/>
				<path style="fill:none;" d="M1066.891,781.803c-7.203,17.33-15.347,34.256-24.392,50.7c5.915-0.295,11.873-0.582,17.488-0.848
					c6.776-16.568,13.017-33.348,18.714-50.317C1075.601,781.451,1071.509,781.613,1066.891,781.803z"/>
				<path style="fill:none;" d="M923.425,789.076c0.335,0.468,5.01,2.877,10.126,5.551c2.032-2.917,4.107-5.805,6.222-8.664
					C932.523,786.749,923.425,789.076,923.425,789.076z"/>
				<path style="fill:none;" d="M996.089,784.408c-8.153,18.475-19.344,35.507-27.494,53.966c4.956-0.466,10.206-0.975,15.031-1.465
					c8.187-17.947,17.106-35.553,26.735-52.77C1006.929,784.202,1001.901,784.295,996.089,784.408z"/>
				<path style="fill:none;" d="M983.324,784.663c-9.808,18.224-19.419,36.554-28.827,54.988c3.346-0.288,7.682-0.679,12.372-1.117
					c8.101-18.534,19.285-35.612,27.53-54.094C990.897,784.509,987.15,784.584,983.324,784.663z"/>
				<path style="fill:none;" d="M1051.762,782.442c-7.686,16.924-15.372,33.847-23.058,50.771c3.871-0.206,7.91-0.414,11.989-0.619
					c9.086-16.448,17.271-33.381,24.512-50.72C1060.986,782.048,1056.395,782.242,1051.762,782.442z"/>
				<path style="fill:none;" d="M1024.202,783.649c-7.931,17.457-16.409,34.66-25.421,51.583c0.183-0.024,0.359-0.048,0.526-0.071
					c1.803-0.248,5.956-0.568,11.544-0.924c8.602-17.046,17.204-34.092,25.806-51.138
					C1031.992,783.303,1027.703,783.493,1024.202,783.649z"/>
				<path style="fill:none;" d="M1092.949,787.996c-4.909,14.272-9.819,28.544-14.728,42.816c4.332-0.196,7.795-0.35,9.964-0.445
					c4.153-11.77,8.306-23.54,12.459-35.31C1098.148,792.711,1095.427,790.215,1092.949,787.996z"/>
				<path style="fill:none;" d="M1084.748,781.178c-0.183-0.029-1.796,0.011-4.414,0.102c-5.683,16.959-11.905,33.734-18.659,50.296
					c5.466-0.257,10.557-0.491,14.902-0.689c5.045-14.665,10.089-29.33,15.133-43.995
					C1088.072,783.663,1085.189,781.248,1084.748,781.178z"/>
				<path style="fill:none;" d="M1015.157,784.053c0,0-1.094,0.019-3.015,0.054c-9.628,17.168-18.552,34.724-26.745,52.621
					c4.53-0.465,8.581-0.904,11.514-1.26c9.065-16.974,17.594-34.231,25.57-51.743
					C1017.977,783.926,1015.157,784.053,1015.157,784.053z"/>
				<path style="fill:none;" d="M957.3,785.257c-2.935,6.036-6.066,11.973-9.392,17.802c1.857,1.35,5.423,3.36,8.693,5.117
					c3.949-7.774,8.021-15.484,12.02-23.194C964.631,785.073,960.792,785.166,957.3,785.257z"/>
				<path style="fill:none;" d="M1109.043,803.526c-0.699-1.022-3.607-3.929-7.183-7.321c-4.009,11.363-8.019,22.726-12.028,34.09
					c0.568-0.025,0.872-0.038,0.872-0.038l11.038-12.384C1101.742,817.873,1111.09,806.521,1109.043,803.526z"/>
				<path style="fill:#C3E2EF;" d="M1091.711,786.892c-5.044,14.665-10.089,29.33-15.133,43.995c0.561-0.025,1.109-0.05,1.644-0.075
					c4.909-14.272,9.819-28.544,14.728-42.816C1092.528,787.619,1092.115,787.251,1091.711,786.892z"/>
				<path style="fill:#C3E2EF;" d="M1100.644,795.057c-4.153,11.77-8.306,23.54-12.459,35.31c0.681-0.03,1.234-0.054,1.647-0.072
					c4.009-11.363,8.019-22.727,12.028-34.09C1101.463,795.828,1101.057,795.444,1100.644,795.057z"/>
				<path style="fill:#C3E2EF;" d="M1078.7,781.338c-5.696,16.969-11.938,33.75-18.714,50.317c0.566-0.027,1.13-0.053,1.689-0.08
					c6.755-16.562,12.976-33.336,18.659-50.296C1079.826,781.297,1079.281,781.316,1078.7,781.338z"/>
				<path style="fill:#C3E2EF;" d="M1065.204,781.873c-7.241,17.339-15.426,34.273-24.512,50.72c0.601-0.03,1.204-0.06,1.806-0.091
					c9.045-16.443,17.189-33.37,24.392-50.7C1066.336,781.826,1065.774,781.849,1065.204,781.873z"/>
				<path style="fill:#C3E2EF;" d="M1050.042,782.516c-7.689,16.93-15.378,33.859-23.067,50.789
					c0.572-0.031,1.148-0.062,1.729-0.093c7.686-16.923,15.372-33.847,23.058-50.771
					C1051.189,782.466,1050.615,782.491,1050.042,782.516z"/>
				<path style="fill:#C3E2EF;" d="M1036.658,783.098c-8.602,17.046-17.204,34.092-25.806,51.138
					c0.578-0.037,1.172-0.074,1.779-0.112c8.596-17.035,17.192-34.069,25.789-51.104
					C1037.827,783.047,1037.24,783.073,1036.658,783.098z"/>
				<path style="fill:#C3E2EF;" d="M1022.481,783.725c-7.976,17.512-16.505,34.769-25.57,51.743c0.687-0.083,1.314-0.163,1.87-0.236
					c9.012-16.923,17.491-34.127,25.421-51.583C1023.605,783.675,1023.03,783.701,1022.481,783.725z"/>
				<path style="fill:#C3E2EF;" d="M1010.361,784.139c-9.628,17.216-18.548,34.822-26.735,52.77
					c0.598-0.061,1.188-0.121,1.771-0.181c8.194-17.897,17.117-35.453,26.745-52.621
					C1011.61,784.116,1011.015,784.127,1010.361,784.139z"/>
				<path style="fill:#C3E2EF;" d="M994.4,784.441c-8.245,18.482-19.43,35.56-27.53,54.094c0.571-0.053,1.146-0.107,1.726-0.162
					c8.151-18.459,19.342-35.49,27.494-53.966C995.533,784.419,994.97,784.43,994.4,784.441z"/>
				<path style="fill:#C3E2EF;" d="M981.557,784.7c-9.822,18.263-19.447,36.631-28.867,55.105c0.562-0.047,1.168-0.099,1.807-0.154
					c9.408-18.434,19.019-36.764,28.827-54.988C982.737,784.676,982.148,784.688,981.557,784.7z"/>
				<path style="fill:#C3E2EF;" d="M949.324,822.983c-2.709,5.746-5.285,11.548-7.655,17.43c0.571-0.023,1.131-0.046,1.673-0.069
					c2.635-6.495,5.522-12.893,8.559-19.227C951.007,821.778,950.131,822.413,949.324,822.983z"/>
				<path style="fill:#C3E2EF;" d="M968.62,784.982c-3.999,7.711-8.071,15.421-12.02,23.194c0.458,0.246,0.909,0.487,1.351,0.721
					c4.082-8.03,8.296-15.991,12.423-23.955C969.786,784.955,969.202,784.969,968.62,784.982z"/>
				<path style="fill:#C3E2EF;" d="M955.568,785.303c-2.779,5.676-5.734,11.263-8.86,16.754c0.099,0.082,0.186,0.159,0.256,0.228
					c0.221,0.22,0.543,0.482,0.944,0.773c3.326-5.829,6.458-11.766,9.392-17.802C956.712,785.272,956.135,785.288,955.568,785.303z"
					/>
				<path style="fill:#C3E2EF;" d="M941.157,785.83c-0.451,0.037-0.914,0.082-1.383,0.133c-2.115,2.859-4.19,5.747-6.222,8.664
					c0.453,0.237,0.909,0.475,1.366,0.715c2.245-3.221,4.539-6.409,6.887-9.557C941.555,785.799,941.338,785.815,941.157,785.83z"/>
			</g>
			<path style="fill:#4C4C4D;" d="M1111.065,804.041c-1.654-2.344-4.153-4.427-6.178-6.541c-4.166-4.349-8.301-8.72-12.499-13.045
				c-1.367-1.408-2.796-2.849-4.719-3.725c-2.2-1.002-4.723-1.023-7.167-0.939c-6.5,0.223-13,0.526-19.499,0.789
				c-13.404,0.543-26.807,1.087-40.211,1.63c-15.079,0.611-30.157,1.246-45.235,1.872c-7.111,0.295-14.234,0.57-21.355,0.895
				c-10.778-0.117-21.502,0.762-32.152,2.345c-0.843,0.125-1.617,1.126-0.735,1.687c13.014,8.264,26.31,16.201,39.87,23.806
				c-11.644,8.319-22.609,17.292-32.802,26.904c-0.714,0.674-0.096,1.646,0.893,1.662c26.697,0.419,53.396-3.569,79.961-5.631
				c13.384-1.039,26.784-1.903,40.194-2.593c6.705-0.345,13.412-0.646,20.121-0.903c3.019-0.116,6.038-0.224,9.058-0.324
				c3.271-0.109,6.81,0.117,10.038-0.395c2.198-0.349,3.462-1.441,4.78-2.923c2.19-2.463,4.292-4.988,6.436-7.48
				c1.755-2.04,3.51-4.08,5.266-6.121c1.958-2.276,4.257-4.51,5.941-6.94C1112.011,806.714,1112,805.365,1111.065,804.041z
				 M1106.295,810.227c-1.953,2.265-3.905,4.53-5.857,6.795c-1.757,2.039-3.515,4.077-5.272,6.116
				c-1.582,1.835-3.424,5.016-5.872,6.048c-2.445,1.031-6.57,0.526-9.258,0.61c-3.187,0.1-6.375,0.211-9.561,0.333
				c-6.374,0.245-12.746,0.529-19.116,0.853c-12.572,0.639-25.136,1.431-37.687,2.377c-14.038,1.058-28.042,2.375-42.049,3.721
				c-13.22,1.27-26.476,2.379-39.768,2.337c9.927-9.227,20.555-17.886,31.853-25.885c0.698-0.494,0.7-1.266-0.07-1.695
				c-13.161-7.34-26.068-15.001-38.712-22.969c6.371-0.87,12.78-1.479,19.206-1.88c20.553-0.426,41.134-1.509,61.659-2.292
				c25.054-0.956,50.13-2.319,75.192-2.934c3.085-0.076,5.526,0.31,7.782,2.214c2.303,1.944,4.227,4.286,6.271,6.427
				c3.969,4.158,7.939,8.315,11.909,12.473c1.032,1.081,2.11,1.812,2.05,3.262C1108.929,807.725,1107.388,808.959,1106.295,810.227z
				"/>
		</g>
		<g>
			<path style="fill:#00B4AB;" d="M906.464,646.467c0,0,83.508-3.501,87.57-3.593c4.062-0.091,70.519-0.582,74.139-1.544
				s32.859-4.731,32.859-4.731s-12.141,12.013-13.894,12.491c-1.753,0.479-17.118,10.285-17.118,10.285l21.514,18.94l11.822,8.939
				c0,0-9.088,0.983-11.436,0.469c-2.348-0.514-17.711-1.162-23.675-0.045c-5.964,1.117-111.42,4.571-111.42,4.571l-51.205,2.611
				l-1.76,1.033C903.859,695.894,904.483,650.132,906.464,646.467z"/>
			<path style="fill:#4C4C4D;" d="M1104.222,686.625c-10.917-8.802-21.838-17.601-32.747-26.412
				c10.621-6.386,20.572-13.799,29.722-22.161c0.538-0.492,0.053-1.526-0.668-1.442c-25.24,2.948-50.563,3.907-75.943,4.707
				c-25.423,0.802-50.846,1.604-76.269,2.427c-9.145,0.296-18.317,0.476-27.472,0.865c-2.684-0.23-5.39-0.24-8.081-0.258
				c-2.093-0.014-4.785-0.41-6.892,0.214c-0.429-0.447-1.472-0.211-1.537,0.634c-1.303,16.869-1.629,33.798-0.979,50.705
				c0.018,0.458,0.45,0.916,0.933,0.859c26.149-3.055,52.489-3.402,78.783-3.782c26.324-0.38,52.533-1.163,78.706-4.176
				c7.278-0.838,14.516-1.399,21.831-0.689c6.77,0.657,13.539,1.724,20.26,0.104
				C1104.544,688.058,1104.757,687.056,1104.222,686.625z M1083.275,686.187c-6.152-0.574-12.268-0.283-18.403,0.359
				c-12.796,1.34-25.535,2.698-38.392,3.347c-26.022,1.314-52.088,1.054-78.123,1.945c-14.444,0.495-28.88,1.363-43.239,3.033
				c-0.615-16.137-0.331-32.289,0.845-48.394c12.647,0.194,25.326-0.413,37.968-0.802c12.842-0.396,25.684-0.788,38.526-1.195
				c25.226-0.799,50.488-1.276,75.695-2.555c13.32-0.676,26.604-1.802,39.854-3.303c-8.802,7.827-18.336,14.781-28.488,20.764
				c-0.456,0.269-0.54,1.012-0.118,1.355c10.683,8.673,21.354,17.359,32.027,26.043
				C1095.408,687.763,1089.314,686.75,1083.275,686.187z"/>
			<path style="fill:#FBE999;" d="M920.592,653.813c-2.09,0.086-1.96,3.333,0.133,3.247
				C922.815,656.975,922.685,653.727,920.592,653.813z"/>
			<path style="fill:#FBE999;" d="M950.21,655.58c-2.09,0.086-1.96,3.333,0.133,3.247
				C952.432,658.741,952.302,655.494,950.21,655.58z"/>
			<path style="fill:#FBE999;" d="M934.203,668.434c-2.089,0.086-1.96,3.333,0.133,3.247
				C936.425,671.596,936.295,668.348,934.203,668.434z"/>
			<path style="fill:#FBE999;" d="M917.618,682.938l-0.168,0.007c-2.089,0.086-1.96,3.333,0.133,3.247l0.168-0.007
				C919.84,686.1,919.711,682.853,917.618,682.938z"/>
			<path style="fill:#FBE999;" d="M956.743,682.688c-0.878,0.076-1.594,0.78-1.557,1.69l0.011,0.271
				c0.035,0.849,0.815,1.632,1.69,1.557c0.878-0.076,1.594-0.78,1.557-1.69l-0.011-0.271
				C958.398,683.396,957.618,682.613,956.743,682.688z"/>
			<path style="fill:#FBE999;" d="M975.017,648.328l-0.168,0.007c-2.089,0.086-1.96,3.333,0.133,3.247l0.167-0.007
				C977.24,651.489,977.11,648.242,975.017,648.328z"/>
			<path style="fill:#FBE999;" d="M966.36,666.031c-0.878,0.076-1.594,0.78-1.557,1.69l0.011,0.271
				c0.035,0.849,0.815,1.632,1.69,1.557c0.878-0.076,1.594-0.78,1.557-1.69l-0.011-0.271
				C968.015,666.738,967.235,665.955,966.36,666.031z"/>
			<path style="fill:#FBE999;" d="M984.549,679.921c-2.09,0.086-1.96,3.333,0.133,3.247
				C986.771,683.083,986.641,679.836,984.549,679.921z"/>
			<path style="fill:#FBE999;" d="M996.512,660.999l-0.271,0.011c-0.849,0.035-1.632,0.815-1.557,1.69
				c0.076,0.878,0.78,1.594,1.69,1.557l0.271-0.011c0.849-0.035,1.632-0.815,1.557-1.69
				C998.127,661.677,997.422,660.961,996.512,660.999z"/>
			<path style="fill:#FBE999;" d="M1013.883,648.359c-2.089,0.086-1.96,3.333,0.133,3.247
				C1016.106,651.521,1015.976,648.273,1013.883,648.359z"/>
			<path style="fill:#FBE999;" d="M1024.346,665.549c-2.09,0.086-1.96,3.333,0.133,3.247
				C1026.569,668.71,1026.439,665.463,1024.346,665.549z"/>
			<path style="fill:#FBE999;" d="M1008.295,677.321c-2.089,0.086-1.96,3.333,0.133,3.247
				C1010.518,680.482,1010.388,677.235,1008.295,677.321z"/>
			<path style="fill:#FBE999;" d="M1042.037,647.475c-2.089,0.086-1.96,3.333,0.133,3.247
				C1044.259,650.637,1044.13,647.389,1042.037,647.475z"/>
			<path style="fill:#FBE999;" d="M1069.152,647.718c-2.089,0.086-1.96,3.333,0.133,3.247
				C1071.375,650.88,1071.245,647.632,1069.152,647.718z"/>
			<path style="fill:#FBE999;" d="M1046.977,662.181c-0.878,0.076-1.594,0.78-1.557,1.69l0.011,0.271
				c0.035,0.849,0.815,1.632,1.69,1.557c0.878-0.075,1.594-0.78,1.557-1.69l-0.011-0.271
				C1048.632,662.888,1047.852,662.105,1046.977,662.181z"/>
			<path style="fill:#FBE999;" d="M1068.821,672.669c-2.089,0.086-1.96,3.333,0.133,3.247
				C1071.043,675.83,1070.914,672.583,1068.821,672.669z"/>
			<path style="fill:#FBE999;" d="M1085.683,680.651c-2.089,0.086-1.96,3.333,0.133,3.247
				C1087.906,683.812,1087.776,680.565,1085.683,680.651z"/>
			<path style="fill:#FBE999;" d="M1039.221,677.949c-0.878,0.076-1.594,0.78-1.557,1.69l0.011,0.271
				c0.035,0.849,0.815,1.632,1.69,1.557c0.878-0.075,1.594-0.78,1.557-1.69l-0.011-0.271
				C1040.876,678.657,1040.097,677.874,1039.221,677.949z"/>
		</g>
		<g>
			<g>
				<path style="fill:#FFFFFF;" d="M203.73,867.044c6.128,54.828,37.529,48.804,69.099,48.133
					c230.403-4.899,462.916-0.323,690.575-33.919c19.28-2.845,35.958-2.279,45.944-14.685c9.585-11.908,3.012-66.725,2.533-81.647
					c-4.453-138.929-14.513-285.816-29.487-424.041c-1.191-10.997-3.295-23.433-13.019-29.539c-6.639-4.169-15.17-4.21-23.157-4.104
					c-192.823,2.566-385.62,7.65-578.319,15.249c-56.862,2.243-141.134-1.201-167.19,13.514
					c-7.284,4.113-17.128,16.218-15.119,103.022C187.6,545.831,199.23,826.783,203.73,867.044z"/>
				<g>
					<path style="fill:none;" d="M565.387,335.608c-65.839,2.008-131.669,4.288-197.487,6.883
						c-56.862,2.243-141.134-1.201-167.19,13.514c-7.284,4.114-17.129,16.219-15.119,103.022
						c2.01,86.803,13.639,367.756,18.139,408.017c6.128,54.828,37.529,48.804,69.098,48.133
						c105.154-2.236,210.747-2.507,316.119-5.325L565.387,335.608z"/>
					<path style="fill:#F4F4ED;" d="M963.403,881.258c19.279-2.846,35.958-2.279,45.944-14.686
						c9.585-11.907,3.011-66.725,2.533-81.647c-4.453-138.929-14.513-285.816-29.487-424.04
						c-1.191-10.997-3.295-23.433-13.018-29.539c-6.638-4.169-15.171-4.211-23.157-4.104c-126.962,1.689-230.51,3.792-357.429,7.665
						l23.55,573.985C737.846,905.535,839.646,899.52,963.403,881.258z"/>
				</g>
				<g>
					<path style="fill:#4C4C4D;" d="M201.493,867.135c1.889,15.611,5.853,33.347,19.486,43.018
						c10.765,7.636,24.549,7.997,37.252,7.714c53.988-1.202,107.977-2.046,161.975-2.753
						c117.856-1.544,235.798-3.242,353.414-11.495c58.619-4.113,117.139-9.86,175.337-18.032c12.581-1.767,25.38-2.929,37.874-5.216
						c8.41-1.54,16.852-4.288,22.823-10.736c8.667-9.36,7.252-26.652,7.073-38.375c-0.232-15.245-1.905-30.387-2.579-45.605
						c-1.22-27.568-1.974-55.156-3.263-82.723c-2.683-57.391-6.218-114.742-10.601-172.028
						c-4.343-56.755-9.158-113.557-15.653-170.111c-1.056-9.195-2.431-19.303-8.66-26.604c-6.33-7.42-15.719-9.009-25.006-9.198
						c-29.382-0.598-58.943,0.781-88.326,1.283c-119.268,2.037-238.52,5.037-357.74,9c-55.542,1.846-111.104,4.829-166.669,5.728
						c-22.586,0.365-45.183,0.46-67.754,1.424c-18.312,0.783-37.033,1.72-54.937,5.938c-6.956,1.639-15.348,3.684-20.351,9.257
						c-4.229,4.711-6.109,11.401-7.488,17.417c-7.281,31.745-4.875,66.079-3.977,98.338c1.794,64.508,4.438,128.998,7.18,193.471
						c2.563,60.271,4.901,120.607,9.002,180.798C200.346,854.145,200.779,860.657,201.493,867.135
						c0.314,2.849,4.79,2.687,4.474-0.184c-5.102-46.346-5.801-93.466-7.934-140.008c-3.092-67.46-5.854-134.938-8.201-202.429
						c-0.923-26.541-1.997-53.106-2.235-79.664c-0.172-19.174-0.098-38.602,2.495-57.637c1.085-7.967,2.294-17.109,6.616-24.104
						c3.278-5.306,8.867-7.269,14.679-9.021c16.582-5.002,34.538-5.916,51.729-6.829c44.825-2.38,89.811-1.977,134.674-3.686
						c114.73-4.37,229.495-7.848,344.279-10.435c57.142-1.287,114.29-2.354,171.441-3.199c13.929-0.206,28.288-1.427,42.177-0.238
						c15.859,1.357,21.948,12.636,23.966,27.099c3.702,26.521,5.661,53.415,8.154,80.073
						c10.219,109.264,17.26,218.842,21.17,328.513c0.595,16.703,1.732,33.297,2.663,49.978c0.803,14.399,3.141,32.544-2.223,46.329
						c-3.785,9.727-15.601,13.021-24.914,14.573c-12.312,2.05-24.82,3.323-37.185,5.051c-27.636,3.861-55.347,7.178-83.105,10.033
						c-112.784,11.602-226.185,15.596-339.492,17.711c-56.513,1.055-113.033,1.639-169.55,2.451
						c-27.97,0.402-55.951,0.721-83.914,1.463c-13.558,0.36-28.592,2.317-41.469-3.03c-17.014-7.065-21.814-26.409-23.822-42.992
						C205.623,864.11,201.146,864.269,201.493,867.135z"/>
				</g>
			</g>
			<g style="opacity:0.3;">
				<path style="fill:#4C4C4D;" d="M633.889,433.109c77.934-0.907,155.841-3.887,233.614-8.976
					c21.796-1.426,43.581-3.02,65.353-4.772c0.955-0.077,0.899-1.569-0.061-1.491c-77.688,6.249-155.54,10.431-233.452,12.501
					c-21.835,0.58-43.674,0.992-65.515,1.246C632.866,431.629,632.928,433.12,633.889,433.109L633.889,433.109z"/>
			</g>
			<g style="opacity:0.3;">
				<path style="fill:#4C4C4D;" d="M634.635,486.585c77.824-7.756,155.821-13.756,233.917-17.961
					c22.065-1.188,44.138-2.23,66.216-3.137c0.96-0.039,0.9-1.531-0.061-1.492c-78.143,3.207-156.213,8.178-234.129,14.94
					c-22.014,1.91-44.016,3.966-66.004,6.158C633.622,485.188,633.677,486.68,634.635,486.585L634.635,486.585z"/>
			</g>
			<g style="opacity:0.3;">
				<path style="fill:#4C4C4D;" d="M629.883,535.325c81.386-3.959,162.728-8.793,244.008-14.518
					c22.976-1.618,45.947-3.308,68.912-5.066c0.956-0.073,0.899-1.565-0.061-1.491c-81.244,6.219-162.555,11.564-243.914,16.019
					c-22.998,1.259-46.001,2.446-69.006,3.565C628.862,533.88,628.922,535.372,629.883,535.325L629.883,535.325z"/>
			</g>
			<g style="opacity:0.3;">
				<path style="fill:#4C4C4D;" d="M635.912,589.369c80.565-9.263,161.325-16.811,242.213-22.607
					c22.688-1.626,45.386-3.111,68.092-4.466c0.958-0.057,0.9-1.549-0.061-1.492c-80.952,4.829-161.799,11.38-242.468,19.68
					c-22.627,2.328-45.239,4.795-67.836,7.394C634.902,587.986,634.955,589.479,635.912,589.369L635.912,589.369z"/>
			</g>
			<g style="opacity:0.3;">
				<path style="fill:#4C4C4D;" d="M636.979,636.252c83.977-7.687,167.954-15.375,251.931-23.062
					c23.711-2.171,47.422-4.341,71.133-6.512c0.953-0.087,0.898-1.579-0.061-1.491c-83.977,7.687-167.954,15.374-251.931,23.062
					c-23.711,2.171-47.422,4.341-71.133,6.512C635.964,634.847,636.02,636.339,636.979,636.252L636.979,636.252z"/>
			</g>
			<g style="opacity:0.3;">
				<path style="fill:#4C4C4D;" d="M640.043,674.065c82.067-1.726,164.072-6.175,245.84-13.379c23.151-2.04,46.281-4.305,69.39-6.78
					c0.95-0.102,0.896-1.594-0.061-1.491c-81.618,8.742-163.521,14.775-245.542,18.045c-23.222,0.926-46.453,1.625-69.688,2.114
					C639.021,672.594,639.083,674.085,640.043,674.065L640.043,674.065z"/>
			</g>
			<g style="opacity:0.3;">
				<path style="fill:#4C4C4D;" d="M641.961,720.756c82.167-3.89,164.267-9.15,246.257-15.8c23.214-1.883,46.418-3.88,69.613-5.982
					c0.953-0.086,0.898-1.578-0.061-1.491c-81.923,7.426-163.969,13.485-246.095,18.152c-23.253,1.321-46.511,2.529-69.775,3.63
					C640.941,719.31,641,720.802,641.961,720.756L641.961,720.756z"/>
			</g>
			<g style="opacity:0.3;">
				<path style="fill:#4C4C4D;" d="M650.109,772.832c79.485-7.052,158.971-14.104,238.456-21.156
					c22.216-1.971,44.433-3.942,66.649-5.913c0.954-0.085,0.898-1.577-0.061-1.492c-79.485,7.052-158.971,14.104-238.456,21.156
					c-22.216,1.971-44.433,3.942-66.649,5.913C649.094,771.425,649.15,772.917,650.109,772.832L650.109,772.832z"/>
			</g>
			<g style="opacity:0.3;">
				<path style="fill:#4C4C4D;" d="M655.089,822.11c81.732-5.913,163.464-11.826,245.196-17.738
					c23.281-1.684,46.562-3.368,69.844-5.053c0.956-0.069,0.899-1.561-0.061-1.492c-81.732,5.913-163.464,11.826-245.196,17.738
					c-23.281,1.684-46.562,3.368-69.844,5.053C654.072,820.688,654.129,822.18,655.089,822.11L655.089,822.11z"/>
			</g>
			<path style="fill:#4C4C4D;" d="M608.447,439.421c-1.368-5.032-5.739-8.281-10.839-8.98c-6.729-0.922-12.815,2.95-18.005,6.719
				c-2.321,1.686,0.076,5.471,2.417,3.771c5.671-4.117,19.109-11.372,22.161-0.142C604.936,443.568,609.203,442.203,608.447,439.421
				z"/>
			<path style="fill:#4C4C4D;" d="M612.347,479.452c-6.255-11.935-22.423-11.859-29.088-0.395c-1.453,2.499,2.51,4.587,3.956,2.1
				c5.095-8.764,16.744-8.098,21.361,0.712C609.913,484.419,613.679,481.993,612.347,479.452z"/>
			<path style="fill:#4C4C4D;" d="M585.85,518.874c-1.326,2.565,2.716,4.494,4.039,1.934c4.448-8.604,16.353-7.179,19.092,1.933
				c0.83,2.762,5.052,1.268,4.224-1.488C609.288,508.223,592.022,506.935,585.85,518.874z"/>
			<path style="fill:#4C4C4D;" d="M612.289,557.237c-5.488-11.5-21.912-10.869-26.55,0.977c-1.041,2.659,2.907,4.78,3.956,2.1
				c3.481-8.891,14.721-9.254,18.823-0.66C609.756,562.247,613.518,559.812,612.289,557.237z"/>
			<path style="fill:#4C4C4D;" d="M616.926,591.824c-6.265-12.58-23.613-12.274-29.774,0.202c-1.277,2.585,2.678,4.687,3.956,2.1
				c4.779-9.678,17.293-9.431,22.047,0.115C614.437,596.816,618.201,594.384,616.926,591.824z"/>
			<path style="fill:#4C4C4D;" d="M614.688,626.287c-1.995-5.709-7.632-9.774-13.81-8.872c-6.238,0.912-10.325,6.444-10.666,12.477
				c-0.163,2.875,4.313,2.672,4.474-0.184c0.521-9.2,12.771-10.537,15.736-2.055C611.37,630.366,615.642,629.018,614.688,626.287z"
				/>
			<path style="fill:#4C4C4D;" d="M621.011,659.2c-8.32-11.598-26.482-7.599-28.186,6.932c-0.333,2.836,4.028,3.871,4.363,1.013
				c1.219-10.395,13.71-14.368,20.052-5.528C618.913,663.949,622.697,661.551,621.011,659.2z"/>
			<path style="fill:#4C4C4D;" d="M621.401,698.783c-5.36-14.146-23.815-15.638-31.421-2.548c-1.452,2.499,2.51,4.587,3.956,2.1
				c5.622-9.674,19.219-8.69,23.199,1.815C618.152,702.831,622.427,701.489,621.401,698.783z"/>
			<path style="fill:#4C4C4D;" d="M622.833,734.582c-4.829-14.092-25.1-12.777-27.53,2.14c-0.462,2.834,3.9,3.859,4.363,1.012
				c1.687-10.36,15.425-11.928,18.901-1.786C619.5,738.669,623.771,737.319,622.833,734.582z"/>
			<path style="fill:#4C4C4D;" d="M623.043,775.543c-5.812-15.251-27.454-11.638-28.249,4.569c-0.141,2.877,4.334,2.676,4.474-0.184
				c0.551-11.24,15.539-13.435,19.508-3.019C619.799,779.589,624.073,778.247,623.043,775.543z"/>
			<path style="fill:#4C4C4D;" d="M628.081,808.525c-4.914-5.178-10.829-11.087-18.526-10.943c-5.763,0.108-10.834,3.3-12.394,8.946
				c-0.769,2.784,3.598,3.784,4.363,1.013c1.476-5.345,7.683-6.356,12.217-4.652c4.591,1.725,8.004,5.45,11.306,8.93
				C627.034,813.914,630.058,810.609,628.081,808.525z"/>
			<path style="opacity:0.3;fill:#4C4C4D;" d="M610.298,436.169c-1.853-1.566-4.632-1.582-6.328,0.26l-0.477,0.517
				c-1.589,1.725-1.588,4.766,0.26,6.328c1.853,1.566,4.632,1.582,6.328-0.26c0.159-0.172,0.318-0.345,0.477-0.518
				C612.147,440.772,612.146,437.731,610.298,436.169z"/>
			<path style="opacity:0.3;fill:#4C4C4D;" d="M583.908,436.256l-0.518-0.477c-1.725-1.59-4.766-1.588-6.328,0.26
				c-1.566,1.853-1.582,4.632,0.26,6.328c0.172,0.159,0.345,0.318,0.517,0.477c1.726,1.589,4.766,1.588,6.328-0.26
				C585.734,440.73,585.749,437.952,583.908,436.256z"/>
			<path style="opacity:0.3;fill:#4C4C4D;" d="M585.386,476.714l-0.497,0.02c-2.341,0.096-4.498,2.246-4.291,4.658
				c0.208,2.42,2.149,4.394,4.658,4.291l0.497-0.02c2.341-0.096,4.498-2.246,4.291-4.658
				C589.836,478.585,587.895,476.612,585.386,476.714z"/>
			<path style="opacity:0.3;fill:#4C4C4D;" d="M611.28,476.648c-2.42,0.208-4.394,2.15-4.291,4.658l0.02,0.497
				c0.096,2.34,2.246,4.498,4.658,4.291c2.42-0.208,4.394-2.15,4.291-4.658l-0.02-0.497
				C615.842,478.598,613.692,476.44,611.28,476.648z"/>
			<path style="opacity:0.3;fill:#4C4C4D;" d="M592.539,520.398c-0.261-1.781-1.482-3.343-3.37-3.767
				c-2.956-0.664-5.826,1.682-5.67,4.738c0.152,2.989,3.115,5.235,6.043,4.254C591.63,524.922,593.079,522.582,592.539,520.398z"/>
			<path style="opacity:0.3;fill:#4C4C4D;" d="M612.557,519.921c-5.758,0.236-5.4,9.185,0.367,8.949
				C618.682,528.634,618.325,519.685,612.557,519.921z"/>
			<path style="opacity:0.3;fill:#4C4C4D;" d="M587.595,554.809c-5.758,0.236-5.401,9.186,0.367,8.949
				C593.72,563.522,593.362,554.573,587.595,554.809z"/>
			<path style="opacity:0.3;fill:#4C4C4D;" d="M613.011,555.26c-2.42,0.208-4.394,2.15-4.291,4.658l0.041,0.995
				c0.096,2.34,2.246,4.498,4.658,4.291c2.42-0.208,4.394-2.15,4.291-4.658l-0.041-0.994
				C617.573,557.211,615.423,555.053,613.011,555.26z"/>
			<path style="opacity:0.3;fill:#4C4C4D;" d="M590.859,590.172c-2.075-0.99-5.026-0.423-6.056,1.856
				c-0.153,0.338-0.306,0.676-0.458,1.014c-0.964,2.132-0.42,4.97,1.856,6.056c2.076,0.99,5.026,0.423,6.056-1.856
				c0.153-0.338,0.306-0.676,0.458-1.014C593.679,594.096,593.136,591.258,590.859,590.172z"/>
			<path style="opacity:0.3;fill:#4C4C4D;" d="M614.854,588.053c-2.42,0.208-4.394,2.15-4.291,4.658l0.041,0.995
				c0.096,2.34,2.246,4.498,4.658,4.291c2.42-0.208,4.394-2.15,4.291-4.658l-0.041-0.994
				C619.417,590.003,617.266,587.845,614.854,588.053z"/>
			<path style="opacity:0.3;fill:#4C4C4D;" d="M596.966,628.971c-0.805-2.177-3.288-3.79-5.632-2.899
				c-0.491,0.186-0.981,0.372-1.471,0.558c-2.186,0.83-3.769,3.28-2.899,5.632c0.804,2.178,3.287,3.79,5.632,2.899
				c0.49-0.186,0.981-0.372,1.471-0.559C596.252,633.773,597.835,631.324,596.966,628.971z"/>
			<path style="opacity:0.3;fill:#4C4C4D;" d="M614.273,622.438c-5.758,0.236-5.401,9.185,0.367,8.949
				C620.399,631.151,620.041,622.202,614.273,622.438z"/>
			<path style="opacity:0.3;fill:#4C4C4D;" d="M594.445,661.1l-0.497,0.02c-2.341,0.096-4.498,2.246-4.291,4.658
				c0.208,2.42,2.15,4.394,4.658,4.291l0.497-0.02c2.341-0.096,4.498-2.246,4.291-4.658
				C598.896,662.971,596.954,660.997,594.445,661.1z"/>
			<path style="opacity:0.3;fill:#4C4C4D;" d="M622.52,657.573c-0.787-1.244-1.836-1.824-3.218-2.316
				c-1.022-0.364-2.558,0.034-3.429,0.592c-0.906,0.581-1.747,1.682-1.947,2.758c-0.214,1.156-0.105,2.44,0.593,3.429
				c0.023,0.032,0.049,0.054,0.072,0.086c0.535,1.388,1.734,2.552,3.182,2.82c2.476,0.458,4.7-0.934,5.376-3.351
				C623.523,660.257,623.254,658.736,622.52,657.573z"/>
			<path style="opacity:0.3;fill:#4C4C4D;" d="M592.809,694.035l-0.497,0.02c-2.341,0.096-4.498,2.246-4.291,4.658
				c0.208,2.42,2.15,4.394,4.658,4.291l0.497-0.02c2.341-0.096,4.498-2.246,4.291-4.658
				C597.259,695.906,595.317,693.932,592.809,694.035z"/>
			<path style="opacity:0.3;fill:#4C4C4D;" d="M619.24,694.942c-2.42,0.208-4.394,2.15-4.291,4.658l0.02,0.497
				c0.096,2.341,2.246,4.498,4.658,4.291c2.42-0.208,4.394-2.15,4.291-4.658l-0.02-0.497
				C623.802,696.893,621.652,694.735,619.24,694.942z"/>
			<path style="opacity:0.3;fill:#4C4C4D;" d="M597.921,733.665l-0.497,0.02c-2.34,0.096-4.498,2.246-4.291,4.658
				c0.208,2.42,2.149,4.394,4.658,4.291l0.497-0.02c2.34-0.096,4.498-2.246,4.291-4.658
				C602.371,735.536,600.43,733.562,597.921,733.665z"/>
			<path style="opacity:0.3;fill:#4C4C4D;" d="M624.049,734.901c-0.173-0.159-0.345-0.318-0.517-0.477
				c-1.726-1.589-4.766-1.588-6.328,0.26c-1.566,1.853-1.581,4.632,0.26,6.328c0.173,0.159,0.345,0.318,0.518,0.477
				c1.725,1.589,4.766,1.588,6.328-0.26C625.875,739.376,625.89,736.597,624.049,734.901z"/>
			<path style="opacity:0.3;fill:#4C4C4D;" d="M597.148,775.528c-5.758,0.236-5.401,9.186,0.367,8.949
				C603.274,784.241,602.916,775.291,597.148,775.528z"/>
			<path style="opacity:0.3;fill:#4C4C4D;" d="M619.977,773.596c-5.758,0.236-5.4,9.185,0.367,8.949
				C626.103,782.308,625.745,773.359,619.977,773.596z"/>
			<path style="opacity:0.3;fill:#4C4C4D;" d="M598.808,803.846l-0.497,0.02c-2.341,0.096-4.498,2.246-4.291,4.658
				c0.208,2.42,2.15,4.394,4.658,4.291l0.497-0.02c2.341-0.096,4.498-2.246,4.291-4.658
				C603.258,805.717,601.317,803.743,598.808,803.846z"/>
			<path style="opacity:0.3;fill:#4C4C4D;" d="M624.804,806.265c-5.758,0.236-5.401,9.186,0.367,8.949
				C630.929,814.978,630.571,806.029,624.804,806.265z"/>
			<path style="fill:#4C4C4D;" d="M626.338,839.077c-1.368-5.032-5.739-8.281-10.839-8.98c-6.729-0.922-12.815,2.95-18.005,6.719
				c-2.321,1.685,0.076,5.471,2.417,3.771c5.671-4.117,19.109-11.372,22.161-0.143C622.828,843.223,627.094,841.859,626.338,839.077
				z"/>
			<path style="fill:#4C4C4D;" d="M606.511,373.617c-6.255-11.934-22.423-11.859-29.088-0.395c-1.453,2.499,2.51,4.587,3.956,2.1
				c5.095-8.764,16.744-8.098,21.361,0.712C604.077,378.586,607.843,376.159,606.511,373.617z"/>
			<path style="fill:#4C4C4D;" d="M582.629,403.968c-1.326,2.565,2.716,4.494,4.039,1.934c4.448-8.604,16.353-7.179,19.092,1.933
				c0.83,2.762,5.052,1.268,4.224-1.488C606.067,393.318,588.802,392.03,582.629,403.968z"/>
			<path style="opacity:0.3;fill:#4C4C4D;" d="M628.19,835.825c-1.853-1.566-4.632-1.581-6.328,0.26l-0.477,0.517
				c-1.589,1.725-1.588,4.766,0.26,6.328c1.853,1.566,4.631,1.581,6.328-0.26c0.159-0.172,0.318-0.345,0.477-0.518
				C630.038,840.427,630.038,837.387,628.19,835.825z"/>
			<path style="opacity:0.3;fill:#4C4C4D;" d="M601.799,835.912l-0.517-0.477c-1.725-1.59-4.766-1.589-6.328,0.26
				c-1.566,1.853-1.582,4.632,0.26,6.328c0.172,0.159,0.345,0.318,0.517,0.477c1.726,1.589,4.766,1.588,6.328-0.26
				C603.625,840.386,603.64,837.608,601.799,835.912z"/>
			<path style="opacity:0.3;fill:#4C4C4D;" d="M579.55,370.88l-0.497,0.02c-2.341,0.096-4.498,2.246-4.291,4.658
				c0.208,2.42,2.149,4.394,4.658,4.291l0.497-0.02c2.341-0.096,4.498-2.246,4.291-4.658C584,372.751,582.059,370.777,579.55,370.88
				z"/>
			<path style="opacity:0.3;fill:#4C4C4D;" d="M605.443,370.814c-2.42,0.208-4.394,2.15-4.291,4.658l0.02,0.497
				c0.096,2.34,2.246,4.498,4.658,4.291c2.419-0.208,4.394-2.15,4.291-4.658l-0.02-0.497
				C610.005,372.764,607.855,370.607,605.443,370.814z"/>
			<path style="opacity:0.3;fill:#4C4C4D;" d="M589.318,405.493c-0.261-1.781-1.482-3.343-3.37-3.767
				c-2.956-0.664-5.826,1.682-5.67,4.738c0.152,2.989,3.115,5.235,6.043,4.254C588.41,410.017,589.859,407.676,589.318,405.493z"/>
			<path style="opacity:0.3;fill:#4C4C4D;" d="M609.336,405.016c-5.758,0.236-5.4,9.186,0.367,8.949
				C615.462,413.729,615.104,404.779,609.336,405.016z"/>
			<path style="fill:#4C4C4D;" d="M626.95,871.772c-6.255-11.935-22.423-11.859-29.088-0.395c-1.453,2.499,2.51,4.587,3.956,2.1
				c5.095-8.764,16.744-8.097,21.361,0.712C624.516,876.74,628.282,874.313,626.95,871.772z"/>
			<path style="opacity:0.3;fill:#4C4C4D;" d="M599.989,869.035l-0.497,0.02c-2.341,0.096-4.498,2.246-4.291,4.658
				c0.208,2.42,2.15,4.394,4.658,4.291l0.497-0.02c2.341-0.096,4.498-2.246,4.291-4.658
				C604.439,870.906,602.497,868.932,599.989,869.035z"/>
			<path style="opacity:0.3;fill:#4C4C4D;" d="M625.882,868.969c-2.42,0.208-4.394,2.15-4.291,4.658l0.02,0.497
				c0.096,2.34,2.246,4.498,4.658,4.291c2.42-0.208,4.394-2.149,4.291-4.658l-0.02-0.497
				C630.444,870.919,628.294,868.761,625.882,868.969z"/>
		</g>
		<path style="opacity:0.2;fill:#6E6A5F;" d="M513.776,543.894c1.641,2.98,10.553-1.957,10.803,4.128
			c0.25,6.084,33.663,154.029,32.584,164.739c-1.08,10.71-28.502,8.788-58.646,14.595c-30.143,5.808-131.439,17.582-147.934,22.83
			c-16.495,5.248-39.43,1.618-42.401,3.263c-2.971,1.645-1.953-10.585-5.049-11.982s-13.457,8.229-13.285-26.089
			c0.173-34.318-5.775-142.252-5.775-142.252L513.776,543.894z"/>
		<g>
			<g>
				<path style="fill:#F5F5E3;" d="M276.537,561.892c1.595-0.297,63.675-7.106,75.157-10.035
					c11.482-2.929,63.943-10.751,70.782-11.349c6.84-0.597,52.385-5.007,56.625-5.193c4.24-0.185,29.207-0.966,29.207-0.966
					l1.734,3.545l8.506,1.126c0,0,15.005,107.57,16.422,117.592c1.416,10.023,6.083,45.959,6.083,45.959l2.016,9.476
					c0,0-91.476,9.953-104.151,13.128c-12.675,3.175-82.448,9.133-87.434,11.76c-4.986,2.627-52.086,7.234-52.086,7.234l2.109-10.51
					c0,0-8.368,6.24-9.262-2.944C291.352,721.531,276.537,561.892,276.537,561.892z"/>
			</g>
			<g>
				<g>
					<path style="fill:#FFFFFF;" d="M449.967,562.274c-0.052-0.535-0.683-0.866-1.146-0.763c-0.556,0.123-0.78,0.644-0.728,1.181
						c0.069,0.706,0.056,1.417,0,2.122c-0.101,1.275,1.816,1.387,1.917,0.114C450.081,564.04,450.054,563.162,449.967,562.274z"/>
				</g>
				<g>
					<path style="fill:#FFFFFF;" d="M469.929,563.325c-0.057-0.534-0.679-0.866-1.146-0.763c-0.551,0.122-0.786,0.645-0.728,1.181
						c0.081,0.751,0.056,1.507-0.029,2.255c-0.06,0.533,0.418,1.02,0.911,1.049c0.548,0.033,0.946-0.4,1.006-0.935
						C470.049,565.179,470.03,564.259,469.929,563.325z"/>
				</g>
				<g>
					<path style="fill:#4C4C4D;" d="M449.967,562.274c-0.052-0.535-0.683-0.866-1.146-0.763c-0.556,0.123-0.78,0.644-0.728,1.181
						c0.069,0.706,0.056,1.417,0,2.122c-0.101,1.275,1.816,1.387,1.917,0.114C450.081,564.04,450.054,563.162,449.967,562.274z"/>
				</g>
				<g>
					<path style="fill:#4C4C4D;" d="M469.929,563.325c-0.057-0.534-0.679-0.866-1.146-0.763c-0.551,0.122-0.786,0.645-0.728,1.181
						c0.081,0.751,0.056,1.507-0.029,2.255c-0.06,0.533,0.418,1.02,0.911,1.049c0.548,0.033,0.946-0.4,1.006-0.935
						C470.049,565.179,470.03,564.259,469.929,563.325z"/>
				</g>
				<g>
					<path style="fill:#4C4C4D;" d="M449.967,562.274c-0.052-0.535-0.683-0.866-1.146-0.763c-0.556,0.123-0.78,0.644-0.728,1.181
						c0.069,0.706,0.056,1.417,0,2.122c-0.101,1.275,1.816,1.387,1.917,0.114C450.081,564.04,450.054,563.162,449.967,562.274z"/>
				</g>
				<g>
					<path style="fill:#4C4C4D;" d="M469.929,563.325c-0.057-0.534-0.679-0.866-1.146-0.763c-0.551,0.122-0.786,0.645-0.728,1.181
						c0.081,0.751,0.056,1.507-0.029,2.255c-0.06,0.533,0.418,1.02,0.911,1.049c0.548,0.033,0.946-0.4,1.006-0.935
						C470.049,565.179,470.03,564.259,469.929,563.325z"/>
				</g>
				<g>
					<path style="fill:#F3CC30;" d="M446.014,548.951c0,0,6.455-4.292,15.812-2.941c9.357,1.352,14.453,7.325,17.105,10.169
						c2.651,2.844,4.925,9.545,5.477,12.065c0.552,2.52-0.476,11.91-3.016,14.744c-2.54,2.834-9.64,14.549-20.267,13.62
						c-10.627-0.93-16.911-2.198-21.303-8.826c-4.392-6.628-6.811-12.305-6.509-16.584c0.302-4.279,1.872-10.951,4.728-14.363
						C440.896,553.422,444.108,549.962,446.014,548.951z"/>
				</g>
				<g>
					<path style="fill:#4C4C4D;" d="M449.967,562.274c-0.052-0.535-0.683-0.866-1.146-0.763c-0.556,0.123-0.78,0.644-0.728,1.181
						c0.069,0.706,0.056,1.417,0,2.122c-0.101,1.275,1.816,1.387,1.917,0.114C450.081,564.04,450.054,563.162,449.967,562.274z"/>
				</g>
				<g>
					<path style="fill:#4C4C4D;" d="M469.929,563.325c-0.057-0.534-0.679-0.866-1.146-0.763c-0.551,0.122-0.786,0.645-0.728,1.181
						c0.081,0.751,0.056,1.507-0.029,2.255c-0.06,0.533,0.418,1.02,0.911,1.049c0.548,0.033,0.946-0.4,1.006-0.935
						C470.049,565.179,470.03,564.259,469.929,563.325z"/>
				</g>
				<g>
					<path style="fill:#4C4C4D;" d="M472.952,574.577c-2.471,5.468-8.173,9.064-14.021,8.891
						c-6.005-0.177-11.437-4.087-14.207-9.528c-0.577-1.134-2.283-0.236-1.704,0.903c3.155,6.198,9.504,10.667,16.366,10.615
						c6.589-0.05,12.619-4.113,15.39-10.244C475.297,574.06,473.467,573.435,472.952,574.577z"/>
				</g>
				<g>
					<path style="fill:#4C4C4D;" d="M480.359,555.917c-6.308-8.665-17.593-12.896-27.758-10.63
						c-10.151,2.263-17.974,11.21-19.819,21.6c0.071-0.024,0.143-0.041,0.216-0.056c-1.041,7.552,1.018,15.201,5.77,21.079
						c-0.029,0.048-0.055,0.099-0.085,0.147c0.372,0.372,0.758,0.735,1.151,1.091c0.061,0.067,0.117,0.137,0.178,0.203
						c0.106,0.114,0.221,0.192,0.338,0.246c2.818,2.453,6.071,4.498,9.251,5.933c10.155,4.583,22.543,0.822,29.628-7.604
						C486.735,579,487.306,565.459,480.359,555.917z M478.697,585.256c-6.247,8.612-18.253,12.669-28.065,8.441
						c-3.033-1.307-6.3-3.291-9.083-5.722c-0.008-0.01-0.013-0.02-0.022-0.029c-5.445-5.829-7.879-14.046-6.335-21.98
						c0.034-0.172,0.028-0.333-0.005-0.481c1.931-7.644,7.326-14.22,14.558-17.119c9.072-3.636,20.14-0.818,26.943,6.36
						C484.529,562.999,485.379,576.043,478.697,585.256z"/>
				</g>
			</g>
			<g>
				<g>
					<path style="fill:#4C4C4D;" d="M293.486,735.917c-7.004-57.871-12.517-115.916-16.533-174.071
						c-0.365,0.454-0.729,0.908-1.094,1.362c27.547-3.949,55.137-7.633,82.58-12.27c25.85-4.367,51.626-8.502,77.809-10.277
						c11.192-0.759,22.208-1.887,33.349-3.198c5.561-0.654,11.104-0.971,16.701-1.138c3.143-0.094,6.286-0.162,9.429-0.242
						c1.565-0.04,3.131-0.081,4.696-0.13c1.354-0.042,4.645-0.727,5.92-0.224c2.27,0.896,2.525,6.106,2.736,7.893
						c0.406,3.442,0.821,6.882,1.243,10.322c0.806,6.573,1.638,13.142,2.486,19.709c1.736,13.441,3.543,26.872,5.359,40.302
						c4.073,30.116,8.221,60.225,11.737,90.412c0.365-0.454,0.729-0.908,1.094-1.362c-61.884,9.778-124.291,15.634-186.343,24.177
						c-17.312,2.383-34.592,4.986-51.818,7.933c-1.56,0.267-1.303,2.724,0.267,2.456c61.76-10.564,124.158-16.592,186.26-24.692
						c17.33-2.26,34.638-4.691,51.9-7.418c0.656-0.104,1.175-0.671,1.094-1.362c-3.253-27.925-7.048-55.784-10.821-83.642
						c-1.884-13.914-3.768-27.829-5.585-41.753c-1.733-13.281-2.977-26.747-5.145-39.924c-0.664-4.038-0.854-5.68-5.384-5.478
						c-6.906,0.308-13.82,0.383-20.728,0.607c-11.247,0.365-22.272,2.166-33.451,3.285c-13.039,1.305-26.148,1.691-39.187,3.144
						c-13.212,1.472-26.359,3.462-39.467,5.67c-32.267,5.435-64.612,10.101-97.001,14.744c-0.681,0.098-1.142,0.675-1.094,1.361
						c4.016,58.155,9.529,116.2,16.533,174.071C291.221,737.762,293.677,737.498,293.486,735.917L293.486,735.917z"/>
				</g>
			</g>
			<g>
				<g>
					<path style="fill:#4C4C4D;" d="M298.727,735.936c-0.183,2.679-0.365,5.357-0.548,8.036c-0.054,0.787,0.497,1.52,1.353,1.425
						c33.151-3.669,65.951-9.803,98.975-14.382c16.598-2.301,33.31-3.49,49.911-5.694c16.423-2.18,32.684-5.427,49.138-7.49
						c9.285-1.164,18.59-2.172,27.907-3.042c3.859-0.361,7.744-0.849,11.62-0.928c2.018-0.041,4.577,0.257,6.441-0.664
						c0.44-0.217,0.902-0.736,0.773-1.282c-1.819-7.673-2.752-15.358-3.76-23.18c-1.544-11.975-3.139-23.943-4.768-35.907
						c-3.281-24.103-6.701-48.188-10.116-72.272c-1.969-13.888-3.936-27.776-5.877-41.669c-0.068-0.49-0.486-1.057-1.03-1.086
						c-2.332-0.124-4.664-0.248-6.997-0.372c-1.573-0.084-1.981,2.355-0.395,2.439c2.332,0.124,4.665,0.248,6.997,0.372
						c-0.343-0.362-0.687-0.724-1.03-1.086c6.742,48.264,13.818,96.482,20.107,144.808c1.234,9.478,2.206,18.912,4.413,28.22
						c0.258-0.427,0.515-0.855,0.773-1.282c-1.716,0.848-4.257,0.459-6.123,0.51c-3.528,0.096-7.064,0.531-10.577,0.857
						c-8.126,0.753-16.242,1.609-24.344,2.583c-16.475,1.98-32.756,4.886-49.145,7.406c-16.315,2.509-32.858,3.447-49.224,5.629
						c-16.28,2.171-32.497,4.78-48.72,7.331c-18.361,2.888-36.738,5.68-55.215,7.725c0.451,0.475,0.902,0.95,1.353,1.425
						c0.183-2.679,0.365-5.357,0.548-8.036C301.273,734.756,298.835,734.35,298.727,735.936L298.727,735.936z"/>
				</g>
			</g>
			<g>
				<path style="fill:#72A3D8;" d="M481.42,528.027c1.728-3.591,3.731-8.641,6.363-11.604c3.783-4.258,10.24-1.575,13.188,0.392
					c5.139,3.43,2.929,8.595,0.727,15.539c-3.088,9.739-6.311,19.603-10.638,28.968c-1.097,2.374-2.109,4.354-4.341,4.857
					c-2.554,0.575-6.322-0.763-8.02-2.485c-4.179-4.238,1.984-17.262,4.617-22.863c0.558-1.187,1.913-0.562,1.353,0.628
					c-1.885,4.009-3.473,8.098-4.58,12.337c-0.924,3.539-1.765,6.451,0.898,9.056c0.967,0.947,3.648,1.935,4.969,1.405
					c3.763-1.509,5.3-6.977,6.84-10.845c1.552-3.898,2.969-7.838,4.313-11.796c1.269-3.739,2.464-7.496,3.647-11.253
					c0.497-1.578,1.301-3.528,1.591-5.139c0.832-4.622-0.867-5.871-3.351-7.239c-2.541-1.4-6.429-2.747-9.491-0.524
					c-2.824,2.05-5.082,7.766-6.733,11.196c-3.453,7.177-6.362,14.608-8.783,22.138c-2.166,6.737-5.433,15.682-1.164,20.327
					c1.811,1.971,4.522,3.013,6.982,3.734c4.491,1.315,8.148,0.779,11.331-5.311c3.71-7.098,6.45-14.681,8.463-22.309
					c0.33-1.252,1.864-1.14,1.533,0.114c-2.26,8.562-5.432,18.038-10.184,25.689c-3.617,5.822-8.536,4.813-12.686,3.441
					c-4.632-1.531-9.205-4.269-9.171-11.025c0.038-7.576,3.824-16.724,6.628-24.119C477.43,536.827,479.326,532.38,481.42,528.027z"
					/>
				<path style="fill:#72A3D8;" d="M484.583,578.249c-2.57,0.28-4.999-0.523-6.559-1.038c-4.182-1.383-9.739-4.105-9.701-11.763
					c0.035-7.035,3.152-15.173,5.901-22.354L475,541.06c1.744-4.601,3.671-9.098,5.724-13.367l0,0
					c0.341-0.709,0.693-1.476,1.058-2.272c1.518-3.305,3.237-7.051,5.424-9.511c4.056-4.566,10.829-1.982,14.192,0.263
					c5.218,3.482,3.52,8.728,1.554,14.802c-0.17,0.527-0.344,1.064-0.519,1.613c-3.175,10.011-6.379,19.766-10.673,29.058
					c-1.013,2.191-2.16,4.675-4.873,5.286c-2.934,0.658-6.959-0.891-8.738-2.696c-4.532-4.595,1.514-17.451,4.42-23.63l0.048-0.103
					c0.488-1.034,1.459-1.258,2.126-0.946c0.664,0.312,1.108,1.2,0.624,2.23c-2.035,4.329-3.518,8.321-4.531,12.203l-0.063,0.241
					c-0.887,3.388-1.528,5.836,0.754,8.068c0.831,0.813,3.199,1.617,4.141,1.241c2.922-1.172,4.426-5.17,5.753-8.698
					c0.224-0.594,0.441-1.171,0.658-1.717c1.401-3.52,2.808-7.367,4.299-11.759c1.324-3.903,2.574-7.847,3.642-11.237
					c0.156-0.495,0.341-1.026,0.532-1.573c0.415-1.189,0.845-2.418,1.035-3.472c0.747-4.15-0.64-5.146-2.964-6.426
					c-2.454-1.351-5.948-2.548-8.665-0.576c-2.197,1.595-4.177,5.902-5.623,9.047c-0.306,0.664-0.594,1.293-0.867,1.859
					c-3.318,6.895-6.26,14.31-8.743,22.04l-0.393,1.214c-2.072,6.378-4.651,14.314-0.938,18.355
					c1.754,1.908,4.464,2.881,6.631,3.515c4.206,1.233,7.418,0.836,10.43-4.929c3.426-6.553,6.252-14.005,8.4-22.148
					c0.187-0.708,0.674-1.234,1.301-1.404c0.514-0.137,1.032-0.012,1.385,0.338c0.38,0.377,0.505,0.951,0.34,1.574
					c-2.889,10.948-6.25,19.419-10.275,25.899C489.545,576.764,487.001,577.986,484.583,578.249z M475.017,545.342
					c-2.521,6.623-5.119,13.896-5.15,20.114c-0.033,6.577,4.601,8.954,8.642,10.289c3.955,1.309,8.454,2.253,11.788-3.116
					c2.998-4.827,5.626-10.804,7.966-18.14c-1.822,5.539-3.978,10.702-6.44,15.411c-3.707,7.089-8.264,6.856-12.232,5.694
					c-2.358-0.691-5.322-1.765-7.333-3.953c-4.322-4.704-1.59-13.117,0.607-19.876l0.391-1.209
					C473.82,548.802,474.408,547.063,475.017,545.342z M482.398,544.669c-2.673,6.004-6.238,15.351-3.15,18.483
					c1.462,1.482,4.963,2.803,7.301,2.273c1.761-0.397,2.63-1.898,3.682-4.152c-1.013,1.653-2.278,3.014-3.988,3.699
					c-1.691,0.68-4.684-0.482-5.795-1.569c-2.922-2.86-2.07-6.116-1.168-9.563l0.063-0.24
					C480.099,550.708,481.106,547.761,482.398,544.669z M492.403,515.562c2.071-0.225,4.449,0.359,6.966,1.745
					c2.241,1.235,3.99,2.509,3.963,5.86c0.158-2.339-0.526-4.199-2.79-5.71c-2.949-1.968-8.832-4.292-12.182-0.522
					c-1.129,1.27-2.145,2.955-3.078,4.751c1.107-2.01,2.355-3.825,3.771-4.853C490.037,516.12,491.165,515.696,492.403,515.562z"/>
			</g>
		</g>
	</g>
</g>
</svg>
