<?xml version="1.0" encoding="utf-8"?>
<!-- Generator: Adobe Illustrator 27.5.0, SVG Export Plug-In . SVG Version: 6.00 Build 0)  -->
<svg version="1.1" xmlns="http://www.w3.org/2000/svg" xmlns:xlink="http://www.w3.org/1999/xlink" x="0px" y="0px"
	 viewBox="0 0 500 500" style="enable-background:new 0 0 500 500;" xml:space="preserve">
<g id="BACKGROUND">
	<rect style="fill:#FFFFFF;" width="500" height="500"/>
	<rect style="fill:#FFFFFF;" width="500" height="500"/>
</g>
<g id="OBJECTS">
	<g>
		<g>
			<g>
				<g>
					<path style="fill:#2D3962;" d="M250,68.442c-0.425,0-0.77-0.345-0.77-0.77V0.973c0-0.425,0.345-0.77,0.77-0.77
						s0.77,0.345,0.77,0.77v66.699C250.77,68.097,250.425,68.442,250,68.442z"/>
				</g>
				<g>
					<path style="fill:#F4B04E;" d="M289.219,95.132c0-21.66-17.559-39.219-39.219-39.219s-39.219,17.559-39.219,39.219H289.219z"/>
				</g>
				<g>
					<defs>
						<path id="SVGID_1_" d="M289.219,95.132c0-21.66-17.559-39.219-39.219-39.219s-39.219,17.559-39.219,39.219H289.219z"/>
					</defs>
					<clipPath id="SVGID_00000161607699720907364910000007548358407616116128_">
						<use xlink:href="#SVGID_1_"  style="overflow:visible;"/>
					</clipPath>
					<g style="opacity:0.47;clip-path:url(#SVGID_00000161607699720907364910000007548358407616116128_);">
						<g>
							<path style="fill:#FFFFFF;" d="M278.357,58.649c-6.323,4.962-15.177,6.5-22.803,3.961c-1.959-0.652-3.875-1.561-5.935-1.696
								c-4.853-0.318-8.978,3.647-13.789,4.355c-5.531,0.815-10.661-2.737-15.123-6.106c0,0,15.197-14.484,30.545-11.489
								S278.357,58.649,278.357,58.649z"/>
						</g>
					</g>
					<g style="opacity:0.52;clip-path:url(#SVGID_00000161607699720907364910000007548358407616116128_);">
						<g>
							<path style="fill:#D89741;" d="M205.114,81.706c8.753-3.921,19.048-4.262,28.042-0.929c4.945,1.833,9.702,4.764,14.977,4.75
								c4.716-0.013,9.08-2.399,13.711-3.287c4.047-0.776,8.313-0.376,12.145,1.139c1.651,0.653,3.24,1.512,4.984,1.845
								c2.761,0.528,5.58-0.316,8.388-0.439c4.493-0.197,9.038,1.555,12.235,4.719l-1.221,16.696l-94.026-5.589L205.114,81.706z"/>
						</g>
					</g>
				</g>
			</g>
			<g style="opacity:0.15;">
				<polygon style="fill:#F4CE2C;" points="210.428,95.395 91.336,447.141 414.625,447.141 288.866,95.395 				"/>
			</g>
		</g>
		<g>
			<path style="fill:#56B2A1;" d="M178.217,354.061c3.215,0.012,5.958-2.336,6.427-5.517c1.619-10.992,1.036-50.256-8.113-55.417
				c-17.111-9.652-29.396-2.632-39.926-10.091c-10.53-7.459-6.734-42.311-24.57-46.507c-29.835-7.02-57.214,2.501-57.214,2.501
				l-1.817,44.899l22.615,69.746L178.217,354.061z"/>
		</g>
		<g>
			<path style="fill:#2D3962;" d="M127.526,261.892c0,0-4.362,46.668,6.93,50.36c12.012,3.927,47.477-3.055,50.381,14.785
				c0,0,3.3-23.656-3.717-30.955c-13.417-13.956-36.822-7.087-42.216-12.066C133.511,279.037,127.526,261.892,127.526,261.892z"/>
		</g>
		<path style="fill:#2D3962;" d="M180.098,445.554l-57.971-31.751v-52.754h39.409c4.647,0,8.415-3.767,8.415-8.415H76.058
			c0,4.648,3.767,8.415,8.415,8.415h32.827v53.14l-57.266,31.365l9.85-0.208l47.416-14.881v14.99h4.826v-15.211l48.121,15.102
			L180.098,445.554z"/>
		<g>
			<g>
				<g>
					<polygon style="fill:#FFCEAB;" points="240.515,420.005 231.636,406.158 219.332,414.423 229.874,429.793 					"/>
				</g>
				<g>
					<polygon style="fill:#FFFFFF;" points="237.002,413.658 224.512,422.039 228.653,428.184 240.228,419.287 					"/>
				</g>
				<g>
					<path style="fill:#459687;" d="M267.101,414.801c-8.32,3.009-21.556,8.065-21.556,8.065l-4.248-4.962l-14.077,9.728
						c0,0,7.592,14.09,8.416,15.355c0.824,1.265,2.63,4.501,4.838,3.163c5.628-3.413,37.619-25.089,42.562-30.022
						c1.247-1.244-0.998-4.253-4.92-4.527C274.492,411.348,269.406,413.967,267.101,414.801z"/>
				</g>
				<g>
					<path style="fill:#2D3962;" d="M246.787,432.024c-0.732,0-1.361-0.415-1.793-1.192c-0.68-1.225-0.935-7.354-0.82-8.723
						c0.019-0.23,0.171-0.429,0.389-0.507c0.216-0.077,0.46-0.023,0.623,0.142c1.206,1.226,3.856,5.589,3.701,8.183
						c-0.07,1.178-0.711,1.915-1.803,2.076C246.983,432.017,246.884,432.024,246.787,432.024z M245.336,423.873
						c0.058,2.303,0.351,5.766,0.693,6.383c0.362,0.651,0.727,0.597,0.882,0.574c0.385-0.057,0.748-0.214,0.794-0.975
						C247.799,428.277,246.461,425.581,245.336,423.873z"/>
				</g>
				<g>
					<path style="fill:#2D3962;" d="M251.06,429.088c-0.311,0-0.669-0.073-1.075-0.264c-1.268-0.598-5.055-5.423-5.76-6.601
						c-0.119-0.198-0.111-0.448,0.019-0.639c0.131-0.19,0.36-0.282,0.589-0.25c1.695,0.291,6.393,2.284,7.783,4.48
						c0.631,0.997,0.542,1.969-0.251,2.737C252.123,428.787,251.689,429.088,251.06,429.088z M246.198,422.977
						c1.392,1.836,3.653,4.476,4.29,4.776c0.675,0.317,0.94,0.061,1.051-0.051c0.279-0.271,0.482-0.61,0.075-1.254
						C250.769,425.113,248.108,423.705,246.198,422.977z"/>
				</g>
				<g>
					<path style="fill:#2D3962;" d="M237.323,445.443c-0.188,0-0.373-0.089-0.488-0.256c-0.186-0.268-0.118-0.638,0.151-0.823
						l45.003-31.048c0.271-0.188,0.638-0.117,0.823,0.151c0.186,0.269,0.118,0.638-0.151,0.823l-45.002,31.048
						C237.556,445.409,237.439,445.443,237.323,445.443z"/>
				</g>
				<g>
					<path style="fill:#2D3962;" d="M259,421.697c-0.323,0-0.587-0.259-0.592-0.583c-0.046-3.165,0.666-4.461,0.747-4.599
						c0.167-0.281,0.528-0.374,0.811-0.208c0.279,0.166,0.373,0.525,0.211,0.806c-0.016,0.028-0.627,1.173-0.586,3.983
						c0.005,0.327-0.256,0.596-0.583,0.601C259.005,421.697,259.003,421.697,259,421.697z"/>
				</g>
				<g>
					<path style="fill:#2D3962;" d="M255.53,423.082c-0.323,0-0.587-0.259-0.592-0.583c-0.046-3.167,0.666-4.462,0.748-4.599
						c0.166-0.281,0.527-0.377,0.811-0.207c0.279,0.165,0.373,0.524,0.211,0.806c-0.018,0.031-0.627,1.176-0.586,3.983
						c0.005,0.327-0.256,0.596-0.583,0.6C255.536,423.082,255.533,423.082,255.53,423.082z"/>
				</g>
				<g>
					<path style="fill:#2D3962;" d="M252.313,424.184c-0.323,0-0.587-0.259-0.592-0.583c-0.047-3.165,0.665-4.461,0.746-4.599
						c0.167-0.281,0.528-0.374,0.811-0.208c0.279,0.166,0.373,0.525,0.211,0.806c-0.013,0.024-0.627,1.168-0.585,3.983
						c0.005,0.327-0.256,0.596-0.583,0.601C252.319,424.184,252.316,424.184,252.313,424.184z"/>
				</g>
			</g>
			<g>
				<path style="fill:#AACBF2;" d="M138.037,290.834c19.605,18.079,40.974,29.605,59.442,52.037
					c18.468,22.432,26.431,42.638,39.162,65.015c-5.501,4.089-16.254,12.917-20.428,11.81c-2.654-0.704-33.031-38.308-51.62-57.666
					c-9.939-10.349-38.193-13.747-54.011-21.463c-12.99-6.337-20.132-17.996-15.116-54.648"/>
			</g>
		</g>
		<g>
			<g>
				<polygon style="fill:#2D3962;" points="240.941,307.46 232.414,304.868 209.875,446.384 216.172,446.621 				"/>
			</g>
			<g>
				<rect x="227.319" y="305.909" style="fill:#468E80;" width="17.93" height="7.172"/>
			</g>
			<g>
				<polygon style="fill:#2D3962;" points="389.173,307.46 397.7,304.868 420.239,446.384 413.942,446.621 				"/>
			</g>
			<g>
				
					<rect x="384.865" y="305.909" transform="matrix(-1 -1.224647e-16 1.224647e-16 -1 787.6595 618.99)" style="fill:#468E80;" width="17.93" height="7.172"/>
			</g>
			<g>
				<rect x="224.282" y="299.684" style="fill:#56B2A1;" width="181" height="9.569"/>
			</g>
		</g>
		<g>
			<g>
				<path style="fill:#FFFFFF;" d="M240.005,282.734c0,0,6.277-9.436,4.534-16.993c-0.917-3.974-4.101-6.74-6.926-9.429
					c-3.543-3.373-4.597-5.294-4.752-10.335c-0.066-2.152-0.233-4.382-1.273-6.268c-1.039-1.885-3.187-3.325-5.294-2.883
					c-1.909,0.4-3.266,2.239-3.631,4.155c-0.366,1.916,0.08,3.891,0.667,5.751c1.258,3.987,3.216,7.823,6.01,10.956
					c2.527,2.833,6.824,4.866,8.576,8.277C241.921,273.762,240.005,282.734,240.005,282.734z"/>
			</g>
			<g>
				<path style="fill:#FFFFFF;" d="M228.682,264.689c1.57-0.64,3.477,0.377,4.807,1.43c1.329,1.054,1.876,3.272,0.645,4.439
					c-0.934,0.885-2.45,0.797-3.63,0.285c-1.366-0.592-2.56-1.771-2.795-3.241C227.474,266.133,227.971,264.979,228.682,264.689z"/>
			</g>
			<g>
				<path style="fill:#FFFFFF;" d="M238.759,248.299c1.613-0.845,4.766,0.167,4.472,2.346c-0.114,0.84-0.777,1.556-1.583,1.819
					c-0.806,0.263-1.718,0.101-2.438-0.346c-0.661-0.411-1.183-1.077-1.322-1.842C237.708,249.284,238.108,248.64,238.759,248.299z"
					/>
			</g>
			<g>
				<g>
					<path style="fill:#F4B04E;" d="M252.534,283.116c-0.012,0-0.025,0-0.038,0c-0.342,0.003-0.675,0.042-0.999,0.109l0.444-3.652
						l-21.914,0.051l2.24,19.924c3.079,1.409,17.186,0.485,17.186,0.485l0.866-7.123c0.685,0.328,1.432,0.519,2.213,0.519
						c0.013,0,0.027,0,0.04,0c1.378-0.01,2.669-0.555,3.636-1.536c0.966-0.981,1.493-2.281,1.483-3.658
						C257.671,285.404,255.361,283.116,252.534,283.116z M254.635,290.342c-0.552,0.561-1.291,0.873-2.079,0.879
						c-0.008,0-0.015,0-0.024,0c-0.714,0-1.383-0.264-1.919-0.728l0.588-4.834c0.396-0.203,0.837-0.33,1.311-0.333
						c0.008,0,0.015,0,0.023,0c1.615,0,2.936,1.308,2.948,2.926C255.489,289.038,255.188,289.781,254.635,290.342z"/>
				</g>
				<g>
					<defs>
						<path id="SVGID_00000047034278990763572190000006627924166622974650_" d="M252.534,283.116c-0.012,0-0.025,0-0.038,0
							c-0.342,0.003-0.675,0.042-0.999,0.109l0.444-3.652l-21.914,0.051l2.24,19.924c3.079,1.409,17.186,0.485,17.186,0.485
							l0.866-7.123c0.685,0.328,1.432,0.519,2.213,0.519c0.013,0,0.027,0,0.04,0c1.378-0.01,2.669-0.555,3.636-1.536
							c0.966-0.981,1.493-2.281,1.483-3.658C257.671,285.404,255.361,283.116,252.534,283.116z M254.635,290.342
							c-0.552,0.561-1.291,0.873-2.079,0.879c-0.008,0-0.015,0-0.024,0c-0.714,0-1.383-0.264-1.919-0.728l0.588-4.834
							c0.396-0.203,0.837-0.33,1.311-0.333c0.008,0,0.015,0,0.023,0c1.615,0,2.936,1.308,2.948,2.926
							C255.489,289.038,255.188,289.781,254.635,290.342z"/>
					</defs>
					<clipPath id="SVGID_00000169531421177222069340000000611646584723069323_">
						<use xlink:href="#SVGID_00000047034278990763572190000006627924166622974650_"  style="overflow:visible;"/>
					</clipPath>
					<g style="opacity:0.52;clip-path:url(#SVGID_00000169531421177222069340000000611646584723069323_);">
						<g>
							<path style="fill:#D89741;" d="M255.664,290.391c-2.327-0.963-4.988-0.335-7.364,0.501c-2.375,0.836-4.781,1.886-7.294,1.733
								c-1.518-0.092-2.992-0.624-4.512-0.623c-2.895,0.001-5.405,1.889-7.673,3.687c-0.203,0.161,0.208,0.453-0.05,0.443
								l0.455,7.371l25.679-2.868L255.664,290.391z"/>
						</g>
					</g>
					<g style="opacity:0.47;clip-path:url(#SVGID_00000169531421177222069340000000611646584723069323_);">
						<g>
							<path style="fill:#FFFFFF;" d="M226.676,283.328c1.914,0.429,3.643,1.429,5.461,2.167c1.818,0.737,3.881,1.211,5.726,0.545
								c1.928-0.695,3.371-2.547,5.398-2.85c0.851-0.127,1.714,0.039,2.571,0.11c3.025,0.251,6.135-0.737,8.46-2.689l-0.889-5.451
								l-26.08,0.652L226.676,283.328z"/>
						</g>
					</g>
				</g>
			</g>
		</g>
		<g>
			<g>
				<polygon style="fill:#2D3962;" points="345.32,279.459 350.859,299.634 299.035,299.634 318.024,294.492 312.881,279.854 				
					"/>
			</g>
			<g>
				<g>
					<path style="fill:#56B2A1;" d="M277.685,282.317h109.061c6.482,0,11.996-5.612,12.99-13.221l7.494-57.368
						c1.236-9.465-4.926-18.009-12.99-18.009H285.179c-6.482,0-11.996,5.612-12.99,13.221l-7.494,57.368
						C263.459,273.773,269.622,282.317,277.685,282.317z"/>
				</g>
				<g>
					<path style="fill:#2D3962;" d="M264.696,264.308c-1.236,9.465,4.926,18.009,12.99,18.009h109.061
						c6.482,0,11.996-5.612,12.99-13.221l0.593-4.201L264.696,264.308z"/>
				</g>
				<g>
					<g>
						<path style="fill:#FFFFFF;" d="M303.136,253.557h56.228c3.342,0,6.185-2.893,6.697-6.816l3.864-29.577
							c0.637-4.88-2.54-9.285-6.697-9.285h-56.228c-3.342,0-6.185,2.893-6.697,6.816l-3.864,29.577
							C295.801,249.152,298.979,253.557,303.136,253.557z"/>
					</g>
					<g>
						<path style="fill:#E8E8E8;" d="M314.986,244.549h34.051c2.024,0,3.745-1.752,4.056-4.128l2.34-17.911
							c0.386-2.955-1.538-5.623-4.056-5.623h-34.051c-2.024,0-3.745,1.752-4.056,4.128l-2.34,17.911
							C310.545,241.881,312.469,244.549,314.986,244.549z"/>
					</g>
					<g>
						<path style="fill:#56B2A1;" d="M355.395,222.02c0.386-2.955-1.501-5.133-4.018-5.133h-34.051c-2.024,0-3.669,1.45-4.215,4.997
							L355.395,222.02z"/>
					</g>
					<g>
						<defs>
							<path id="SVGID_00000055673183119328357670000011557562158423253179_" d="M314.986,244.549h34.051
								c2.024,0,3.745-1.752,4.056-4.128l2.34-17.911c0.386-2.955-1.538-5.623-4.056-5.623h-34.051
								c-2.024,0-3.745,1.752-4.056,4.128l-2.34,17.911C310.545,241.881,312.469,244.549,314.986,244.549z"/>
						</defs>
						<clipPath id="SVGID_00000116217468631343717180000010707939923902973080_">
							<use xlink:href="#SVGID_00000055673183119328357670000011557562158423253179_"  style="overflow:visible;"/>
						</clipPath>
						<g style="clip-path:url(#SVGID_00000116217468631343717180000010707939923902973080_);">
							<path style="fill:#F4B04E;" d="M331.203,229.495c2.118-1.856,5.339-1.644,7.195,0.473c1.856,2.118,1.644,5.339-0.473,7.195
								c-2.118,1.856-5.339,1.644-7.195-0.473C328.873,234.572,329.085,231.351,331.203,229.495z"/>
						</g>
						<g style="clip-path:url(#SVGID_00000116217468631343717180000010707939923902973080_);">
							<path style="fill:#2D3962;" d="M350.97,245.846c-1.073-5.104-6.264-17.148-7.235-18.276
								c-3.496,3.412-5.885,5.871-9.211,9.273c-1.775-2.115-8.401-12.087-8.607-12.051c-0.259,0.045-12.87,19.593-13.293,20.847
								L350.97,245.846z"/>
						</g>
					</g>
					<g>
						<circle style="fill:#F4B04E;" cx="306.864" cy="210.282" r="0.71"/>
					</g>
					<g>
						<path style="fill:#56B2A1;" d="M310.211,210.282c0,0.392-0.318,0.71-0.71,0.71s-0.71-0.318-0.71-0.71
							c0-0.392,0.318-0.71,0.71-0.71S310.211,209.89,310.211,210.282z"/>
					</g>
					<g>
						<path style="fill:#F4B04E;" d="M317.883,218.709c0,0.392-0.318,0.71-0.71,0.71c-0.392,0-0.71-0.318-0.71-0.71
							s0.318-0.71,0.71-0.71C317.566,218,317.883,218.317,317.883,218.709z"/>
					</g>
					<g>
						<path style="fill:#FFFFFF;" d="M320.521,218.709c0,0.392-0.318,0.71-0.71,0.71s-0.71-0.318-0.71-0.71s0.318-0.71,0.71-0.71
							S320.521,218.317,320.521,218.709z"/>
					</g>
				</g>
				<g>
					<path style="fill:#56B2A1;" d="M335.369,275.148h-12.912c-0.829,0-1.501-0.672-1.501-1.501l0,0
						c0-0.829,0.672-1.501,1.501-1.501h12.912c0.829,0,1.501,0.672,1.501,1.501l0,0
						C336.871,274.475,336.198,275.148,335.369,275.148z"/>
				</g>
			</g>
		</g>
		<g>
			<path style="fill:#2D3962;" d="M55.339,238.722c0,0-2.254,40.365,14.429,44.314s41.031-0.439,47.794,14.917
				c6.763,15.356,5.862,56.16,5.862,56.16l-46.893-0.439c0,0-32.106,1.839-32.464-34.222
				C43.795,292.194,37.303,249.691,55.339,238.722z"/>
		</g>
		<g>
			<g>
				<g>
					<path style="fill:#2D3962;" d="M330.525,80.799c-0.338,0-0.611-0.274-0.611-0.612V73.81c0-0.338,0.273-0.612,0.611-0.612
						s0.611,0.274,0.611,0.612v6.377C331.136,80.525,330.863,80.799,330.525,80.799z"/>
				</g>
				<g>
					<path style="fill:#2D3962;" d="M333.714,77.61h-6.377c-0.338,0-0.611-0.274-0.611-0.612c0-0.338,0.273-0.612,0.611-0.612h6.377
						c0.338,0,0.611,0.274,0.611,0.612C334.325,77.336,334.051,77.61,333.714,77.61z"/>
				</g>
			</g>
			<g>
				<path style="fill:#2D3962;" d="M150.987,117.121c-1.263,0-2.29-1.028-2.29-2.291c0-1.263,1.028-2.29,2.29-2.29
					s2.291,1.028,2.291,2.29C153.278,116.093,152.25,117.121,150.987,117.121z M150.987,113.763c-0.588,0-1.067,0.479-1.067,1.067
					s0.479,1.067,1.067,1.067c0.588,0,1.067-0.479,1.067-1.067S151.576,113.763,150.987,113.763z"/>
			</g>
			<g>
				<g>
					<path style="fill:#2D3962;" d="M245.239,123.995c-0.338,0-0.612-0.274-0.612-0.612v-6.377c0-0.338,0.274-0.612,0.612-0.612
						c0.338,0,0.612,0.274,0.612,0.612v6.377C245.851,123.721,245.577,123.995,245.239,123.995z"/>
				</g>
				<g>
					<path style="fill:#2D3962;" d="M248.428,120.807h-6.377c-0.338,0-0.612-0.274-0.612-0.612c0-0.338,0.274-0.612,0.612-0.612
						h6.377c0.338,0,0.612,0.274,0.612,0.612C249.04,120.533,248.766,120.807,248.428,120.807z"/>
				</g>
			</g>
			<g>
				<path style="fill:#2D3962;" d="M258.396,176.758c-1.263,0-2.29-1.028-2.29-2.29s1.027-2.29,2.29-2.29s2.29,1.027,2.29,2.29
					S259.659,176.758,258.396,176.758z M258.396,173.401c-0.589,0-1.067,0.478-1.067,1.066c0,0.588,0.478,1.067,1.067,1.067
					c0.589,0,1.067-0.479,1.067-1.067C259.464,173.879,258.985,173.401,258.396,173.401z"/>
			</g>
			<g>
				<g>
					<path style="fill:#2D3962;" d="M207.027,184.359c-0.338,0-0.612-0.274-0.612-0.612v-6.377c0-0.338,0.274-0.612,0.612-0.612
						s0.612,0.274,0.612,0.612v6.377C207.639,184.085,207.365,184.359,207.027,184.359z"/>
				</g>
				<g>
					<path style="fill:#2D3962;" d="M210.215,181.171h-6.377c-0.338,0-0.612-0.274-0.612-0.612s0.274-0.612,0.612-0.612h6.377
						c0.338,0,0.612,0.274,0.612,0.612S210.553,181.171,210.215,181.171z"/>
				</g>
			</g>
			<g>
				<path style="fill:#2D3962;" d="M194.162,254.425c-1.263,0-2.291-1.027-2.291-2.29s1.028-2.29,2.291-2.29
					c1.263,0,2.29,1.028,2.29,2.29S195.424,254.425,194.162,254.425z M194.162,251.068c-0.588,0-1.067,0.479-1.067,1.067
					c0,0.589,0.479,1.067,1.067,1.067c0.588,0,1.066-0.479,1.066-1.067C195.228,251.546,194.75,251.068,194.162,251.068z"/>
			</g>
			<g>
				<g>
					<path style="fill:#2D3962;" d="M175.565,72.253c-0.338,0-0.612-0.274-0.612-0.612v-6.377c0-0.338,0.274-0.612,0.612-0.612
						s0.612,0.274,0.612,0.612v6.377C176.177,71.979,175.903,72.253,175.565,72.253z"/>
				</g>
				<g>
					<path style="fill:#2D3962;" d="M178.754,69.064h-6.377c-0.338,0-0.612-0.274-0.612-0.612s0.274-0.612,0.612-0.612h6.377
						c0.338,0,0.612,0.274,0.612,0.612S179.091,69.064,178.754,69.064z"/>
				</g>
			</g>
			<g>
				<path style="fill:#2D3962;" d="M405.171,123.039c-1.263,0-2.29-1.028-2.29-2.291c0-1.263,1.027-2.29,2.29-2.29
					s2.289,1.027,2.289,2.29C407.461,122.011,406.434,123.039,405.171,123.039z M405.171,119.682c-0.589,0-1.067,0.478-1.067,1.066
					c0,0.588,0.479,1.067,1.067,1.067c0.588,0,1.066-0.479,1.066-1.067C406.238,120.16,405.759,119.682,405.171,119.682z"/>
			</g>
		</g>
		<g>
			<g>
				<g>
					<polygon style="fill:#FFCEAB;" points="213.402,408.169 214.42,391.752 199.61,391.149 199.034,409.78 					"/>
				</g>
				<g>
					<polygon style="fill:#FFFFFF;" points="214.318,400.974 199.29,400.355 199,407.759 213.594,407.421 					"/>
				</g>
				<g>
					<path style="fill:#56B2A1;" d="M237.925,419.681c-8.49-2.489-22.156-6.23-22.156-6.23l-0.495-6.514l-17.104-0.47
						c0,0-2.201,15.853-2.284,17.361c-0.083,1.507-0.538,5.185,2.034,5.41c6.557,0.573,45.174,1.988,52.077,0.929
						c1.741-0.267,1.708-4.021-1.295-6.559C245.928,421.262,240.278,420.37,237.925,419.681z"/>
				</g>
				<g>
					<path style="fill:#2D3962;" d="M212.638,422.003c-0.333,0-0.678-0.091-1.026-0.274c-0.766-0.403-1.119-1.178-0.994-2.179
						c0.175-1.39,3.59-6.485,4.492-7.521c0.152-0.174,0.394-0.241,0.613-0.18c0.222,0.065,0.386,0.254,0.419,0.482
						c0.249,1.702-0.191,6.787-1.849,8.789C213.809,421.705,213.241,422.003,212.638,422.003z M215.004,414.14
						c-1.314,1.891-3.123,4.858-3.211,5.559c-0.093,0.738,0.233,0.91,0.372,0.983c0.347,0.182,0.731,0.271,1.217-0.316
						C214.39,419.148,214.904,416.182,215.004,414.14z"/>
				</g>
				<g>
					<path style="fill:#2D3962;" d="M217.63,422.087c-0.74,0-1.371-0.421-1.8-1.208c-0.669-1.23-0.874-7.361-0.747-8.729
						c0.021-0.23,0.175-0.427,0.393-0.504c0.216-0.076,0.461-0.02,0.622,0.147c1.196,1.236,3.809,5.621,3.632,8.214
						c-0.081,1.177-0.727,1.908-1.821,2.061C217.815,422.081,217.722,422.087,217.63,422.087z M216.23,413.925
						c0.039,2.303,0.303,5.769,0.64,6.388c0.356,0.654,0.721,0.603,0.877,0.582c0.385-0.054,0.749-0.208,0.801-0.968
						C218.656,418.349,217.341,415.642,216.23,413.925z"/>
				</g>
				<g>
					<path style="fill:#2D3962;" d="M250.797,428.463c-0.006,0-0.012,0-0.017,0l-54.652-1.543c-0.327-0.009-0.585-0.281-0.575-0.608
						c0.009-0.327,0.322-0.579,0.608-0.575l54.652,1.543c0.327,0.009,0.584,0.281,0.576,0.608
						C251.379,428.209,251.116,428.463,250.797,428.463z"/>
				</g>
				<g>
					<path style="fill:#2D3962;" d="M227.664,420.572c-0.119,0-0.238-0.035-0.342-0.109c-0.267-0.188-0.329-0.559-0.14-0.825
						c1.833-2.582,3.174-3.206,3.321-3.27c0.301-0.129,0.649,0.013,0.777,0.313c0.128,0.299-0.009,0.645-0.306,0.774
						c-0.036,0.017-1.204,0.583-2.826,2.868C228.032,420.485,227.85,420.572,227.664,420.572z"/>
				</g>
				<g>
					<path style="fill:#2D3962;" d="M224.046,419.639c-0.119,0-0.238-0.035-0.342-0.109c-0.267-0.189-0.329-0.559-0.14-0.825
						c1.833-2.582,3.174-3.206,3.321-3.268c0.301-0.13,0.648,0.013,0.776,0.313c0.127,0.299-0.01,0.645-0.306,0.774
						c-0.033,0.016-1.201,0.579-2.826,2.867C224.414,419.552,224.231,419.639,224.046,419.639z"/>
				</g>
				<g>
					<path style="fill:#2D3962;" d="M220.799,418.627c-0.119,0-0.238-0.035-0.342-0.109c-0.267-0.189-0.329-0.559-0.14-0.825
						c1.833-2.582,3.174-3.206,3.321-3.27c0.3-0.13,0.648,0.013,0.777,0.313c0.127,0.299-0.009,0.645-0.306,0.774
						c-0.035,0.017-1.203,0.582-2.826,2.868C221.167,418.54,220.984,418.627,220.799,418.627z"/>
				</g>
			</g>
			<g>
				<g>
					<path style="fill:#9BBBEA;" d="M138.559,291.896c1.658,1.067,17.974,2.695,41.013,7.141
						c21.991,4.244,34.61,5.451,44.368,15.818c6.173,6.559,0.875,60.28-5.684,81.499c-10.869-1.328-11.814-0.947-22.763-0.772
						c0.13-18.83,1.514-55.03-0.489-57.579c-2.029-2.582-1.261-1.237-4.325-2.419L138.559,291.896z"/>
				</g>
				<g>
					<path style="fill:#2D3962;" d="M196.233,354.68c-0.284,0-0.515-0.228-0.517-0.513l-0.199-22.318
						c-0.002-0.286,0.227-0.52,0.513-0.522c0.001,0,0.003,0,0.004,0c0.284,0,0.515,0.228,0.518,0.513l0.199,22.318
						c0.003,0.286-0.227,0.52-0.513,0.522C196.236,354.68,196.235,354.68,196.233,354.68z"/>
				</g>
			</g>
		</g>
		<g>
			<g>
				<path style="fill:#97DDCF;" d="M424.13,395.862c-4.744,1.442-10.18,1.195-14.847-0.567
					c-18.534-6.997-20.053-27.394-16.958-42.983c2.075-10.452,5.733-20.672,6.559-31.268c1.266-16.235-3.897-33.867,4.857-48.03
					c1.842-2.981,4.444-5.791,7.989-6.881c5.217-1.604,11.142,1.101,14.286,5.238c3.145,4.137,4.025,9.363,4.232,14.401
					c0.465,11.315-2.023,22.631-1.167,33.927c1.097,14.481,8.654,28.11,9.558,42.604c0.609,9.78,0.268,23.207-8.335,30.312
					C428.511,394.097,426.4,395.173,424.13,395.862z"/>
			</g>
			<g>
				<path style="fill:#2D3962;" d="M414.925,403.017c-0.383,0-0.695-0.309-0.699-0.692l-0.887-97.236
					c-0.003-0.387,0.307-0.702,0.692-0.706c0.003,0,0.005,0,0.007,0c0.383,0,0.695,0.309,0.699,0.692l0.887,97.236
					c0.003,0.387-0.307,0.702-0.692,0.706C414.929,403.017,414.927,403.017,414.925,403.017z"/>
			</g>
			<g>
				<path style="fill:#56B2A1;" d="M427.592,398.084c-4.185,0.233-8.544-0.897-11.931-3.009
					c-13.451-8.389-10.005-23.677-3.914-34.618c4.083-7.336,9.4-14.225,12.501-21.884c4.753-11.736,4.604-25.623,14.965-34.527
					c2.181-1.874,4.938-3.489,8.068-3.673c4.606-0.271,8.798,2.756,10.404,6.352c1.605,3.596,1.122,7.599,0.134,11.345
					c-2.218,8.415-6.835,16.315-8.731,24.784c-2.431,10.857,0.581,22.214-2.01,33.047c-1.749,7.309-5.106,17.139-13.725,20.87
					C431.556,397.549,429.594,397.973,427.592,398.084z"/>
			</g>
			<g>
				<path style="fill:#2D3962;" d="M419.903,404.405c-0.021,0-0.04-0.001-0.061-0.003c-0.385-0.033-0.67-0.371-0.637-0.756
					c1.921-22.336,23.049-83.793,23.262-84.411c0.125-0.365,0.523-0.558,0.889-0.434c0.365,0.126,0.56,0.524,0.434,0.889
					c-0.213,0.617-21.285,61.911-23.191,84.075C420.567,404.129,420.261,404.405,419.903,404.405z"/>
			</g>
			<g>
				<path style="fill:#F4B04E;" d="M404.16,404.863l-9.965,41.777h45.971l-8.953-41.482c-0.279-1.294-1.417-2.223-2.741-2.237
					l-21.523-0.235C405.625,402.671,404.467,403.575,404.16,404.863z"/>
			</g>
			<g>
				<g>
					<defs>
						<path id="SVGID_00000106839403655846653200000015251207227493336502_" d="M404.16,404.863l-9.965,41.777h45.971l-8.953-41.482
							c-0.279-1.294-1.417-2.223-2.741-2.237l-21.523-0.235C405.625,402.671,404.467,403.575,404.16,404.863z"/>
					</defs>
					<clipPath id="SVGID_00000119088158283834076540000012086397648034778551_">
						<use xlink:href="#SVGID_00000106839403655846653200000015251207227493336502_"  style="overflow:visible;"/>
					</clipPath>
					<g style="opacity:0.47;clip-path:url(#SVGID_00000119088158283834076540000012086397648034778551_);">
						<g>
							<path style="fill:#FFFFFF;" d="M437.61,402.027c0.19,1.55-0.843,2.956-1.82,4.174c-1.454,1.815-2.977,3.685-5.061,4.718
								c-1.262,0.625-2.662,0.906-3.991,1.375c-3.925,1.385-7.18,4.391-11.217,5.404c-3.212,0.805-6.739,0.294-9.751,1.669
								c-3.91,1.785-6.016,6.323-9.938,8.081l2.328-28.154L437.61,402.027z"/>
						</g>
					</g>
					<g style="opacity:0.52;clip-path:url(#SVGID_00000119088158283834076540000012086397648034778551_);">
						<g>
							<path style="fill:#D89741;" d="M391.762,446.27c2.798-2.517,5.637-5.062,8.983-6.785s7.313-2.561,10.914-1.467
								c0.903,0.274,1.78,0.667,2.719,0.764c2.818,0.292,5.114-2.036,7.352-3.773c6.034-4.683,14.024-5.772,21.605-6.699
								l0.497,21.497l-51.776-0.211L391.762,446.27z"/>
						</g>
					</g>
				</g>
			</g>
		</g>
		<g>
			<g>
				<path style="fill:#FFD194;" d="M336.131,431.718c0,0-10.126-22.278,18.902-32.742l5.372-26.8c0.225-1.122,1.46-1.179,2.307-0.41
					c1.76,1.596,6.296,7.344,6.296,7.344l9.177-0.301c0,0,4.661-5.814,6.682-7.284c0.527-0.383,2.48-0.735,2.804,1.477
					c1.574,10.767,6.267,69.431,3.817,71.881c-2.7,2.7-57.383,0-57.383,0L336.131,431.718z"/>
			</g>
			<g>
				<path style="fill:#FFD194;" d="M337.043,426.757c0,0-11.463,10.189-5.859,17.831c2.21,3.014,13.464,2.001,25.94,1.99
					c19.16-0.018,41.59-0.278,41.59-0.278s3.919-6.874-0.667-9.167c-4.585-2.293-59.222-1.715-59.222-1.715"/>
			</g>
			<g>
				<path style="fill:#2D3962;" d="M398.548,446.818c-0.168,0-0.334-0.082-0.434-0.234c-0.156-0.239-0.089-0.56,0.15-0.717
					c1.005-0.656,2.055-2.611,2.016-4.473c-0.022-1.12-0.446-2.691-2.332-3.816c-2.294-1.369-9.389-0.708-17.6,0.058
					c-3.848,0.358-8.208,0.765-12.605,1.015c-13.904,0.792-27.615-0.654-27.752-0.669c-0.284-0.03-0.489-0.286-0.459-0.57
					c0.03-0.283,0.272-0.494,0.57-0.459c0.136,0.015,13.768,1.451,27.582,0.665c4.378-0.25,8.729-0.655,12.566-1.013
					c8.74-0.813,15.641-1.458,18.228,0.085c2.292,1.367,2.808,3.302,2.836,4.684c0.048,2.308-1.226,4.538-2.484,5.361
					C398.745,446.79,398.646,446.818,398.548,446.818z"/>
			</g>
			<g>
				<path style="fill:#2D3962;" d="M331.184,445.106c-0.159,0-0.316-0.073-0.417-0.212c-2.427-3.309-2.148-7.582,0.805-12.359
					c2.181-3.526,5.009-6.059,5.128-6.164c0.214-0.19,0.54-0.171,0.73,0.043c0.19,0.213,0.171,0.541-0.043,0.73
					c-0.11,0.099-11.045,9.966-5.786,17.139c0.17,0.23,0.12,0.554-0.111,0.723C331.398,445.074,331.291,445.106,331.184,445.106z"/>
			</g>
			<g>
				<path style="fill:#2D3962;" d="M372.215,387.467c0,0.828-0.672,1.5-1.5,1.5c-0.828,0-1.5-0.672-1.5-1.5
					c0-0.828,0.672-1.5,1.5-1.5C371.543,385.967,372.215,386.638,372.215,387.467z"/>
			</g>
			<g>
				<circle style="fill:#2D3962;" cx="377.275" cy="387.467" r="1.5"/>
			</g>
			<g>
				<g>
					<path style="fill:#2D3962;" d="M367.714,438.651c-0.247,0-0.466-0.178-0.509-0.43l-3.249-18.893
						c-0.049-0.282,0.141-0.55,0.422-0.598c0.285-0.057,0.549,0.14,0.598,0.422l3.249,18.892c0.049,0.282-0.141,0.55-0.422,0.598
						C367.773,438.649,367.744,438.651,367.714,438.651z"/>
				</g>
			</g>
			<g>
				<g>
					<path style="fill:#2D3962;" d="M381.592,437.241c-0.029,0-0.059-0.002-0.089-0.008c-0.281-0.048-0.471-0.315-0.422-0.598
						l3.248-18.893c0.048-0.282,0.311-0.477,0.598-0.422c0.281,0.048,0.471,0.316,0.422,0.598l-3.248,18.893
						C382.058,437.063,381.839,437.241,381.592,437.241z"/>
				</g>
			</g>
			<g>
				<path style="fill:#2D3962;" d="M374.943,437.285c-0.277,0-0.507-0.219-0.518-0.497l-0.604-15.513
					c-0.011-0.286,0.212-0.526,0.497-0.538c0.282,0.001,0.527,0.212,0.538,0.497l0.605,15.513c0.011,0.286-0.212,0.526-0.497,0.538
					C374.957,437.285,374.95,437.285,374.943,437.285z"/>
			</g>
			<g>
				<path style="fill:#2D3962;" d="M374.543,421.632c-1.457,0-2.861-0.24-3.119-0.286c-0.281-0.051-0.468-0.32-0.418-0.602
					c0.051-0.282,0.322-0.464,0.602-0.418c1.561,0.282,4.385,0.483,5.308-0.168c0.233-0.164,0.558-0.109,0.722,0.124
					c0.165,0.234,0.109,0.557-0.124,0.722C376.825,421.49,375.668,421.632,374.543,421.632z"/>
			</g>
			<g>
				<path style="fill:#2D3962;" d="M374.062,392.334c-0.134,0-0.267-0.052-0.366-0.151l-1.597-1.597
					c-0.137-0.138-0.186-0.34-0.127-0.525c0.06-0.185,0.217-0.32,0.408-0.353c0.874-0.145,2.982-0.446,3.662-0.104
					c0.23,0.115,0.375,0.331,0.386,0.578c0.01,0.21,0.033,0.77-2.096,2.075C374.249,392.309,374.155,392.334,374.062,392.334z
					 M373.564,390.587l0.57,0.569c0.354-0.234,0.686-0.479,0.923-0.679C374.67,390.478,374.128,390.52,373.564,390.587z"/>
			</g>
			<g>
				<path style="fill:#2D3962;" d="M367.75,379.94c-0.269,0-0.496-0.208-0.516-0.481c-0.02-0.285,0.194-0.532,0.48-0.553
					c0.396-0.027,9.73-0.687,12.25-0.455c0.285,0.026,0.494,0.278,0.469,0.563c-0.026,0.285-0.279,0.486-0.563,0.469
					c-2.438-0.222-11.987,0.45-12.084,0.457C367.775,379.94,367.762,379.94,367.75,379.94z"/>
			</g>
			<g style="opacity:0.47;">
				<path style="fill:#FFFFFF;" d="M360.798,371.249c-1.837,0.735-1.837,8.268-1.837,8.268s5.984,0.372,6.247-1.47
					c0.084-0.59-0.786-1.871-1.562-3.399C362.732,372.847,361.816,370.842,360.798,371.249z"/>
			</g>
			<g style="opacity:0.47;">
				<path style="fill:#FFFFFF;" d="M386.527,371.249c1.837,0.735,1.837,8.268,1.837,8.268s-5.984,0.372-6.247-1.47
					c-0.084-0.59,0.786-1.871,1.562-3.399C384.593,372.847,385.509,370.842,386.527,371.249z"/>
			</g>
			<g>
				<path style="fill:#2D3962;" d="M353.982,402.847c-0.158,0-0.311-0.073-0.408-0.197c-0.206-0.26-0.261-0.33,2.137-10.485
					c0.066-0.278,0.343-0.454,0.623-0.385c0.278,0.065,0.45,0.345,0.385,0.623c-0.824,3.492-2.135,9.168-2.221,9.877
					c0.001,0.017,0.002,0.033,0.002,0.05C354.5,402.616,354.268,402.847,353.982,402.847z"/>
			</g>
			<g>
				<path style="fill:#D89741;" d="M350.087,401.154c0.359,1.444,0.403,3.359,0.389,4.847s-0.445,3.029-1.479,4.099
					c-0.727,0.753-1.745,1.28-2.165,2.239c-0.215,0.492-0.243,1.041-0.337,1.569c-0.41,2.318-2.229,4.327-4.495,4.966
					c-2.266,0.638-5.258-0.485-6.818-2.248c0,0,2.129-6.861,6.802-10.949C345.925,402.229,350.087,401.154,350.087,401.154z"/>
			</g>
			<g>
				<g>
					<path style="fill:#56B2A1;" d="M350.392,419.392c0.065,0,0.051-0.1-0.013-0.1C350.314,419.292,350.328,419.392,350.392,419.392
						L350.392,419.392z"/>
				</g>
			</g>
			<g>
				<path style="fill:#D89741;" d="M351.703,415.542c-0.16-0.136-0.334-0.235-0.519-0.285c-1.348-0.36-2.892,0.203-3.441,1.549
					c-0.324,0.794-0.211,1.758,0.308,2.441c0.357,0.47,0.88,0.795,1.435,0.993c1.091,0.388,2.517,0.192,3.092-0.814
					C353.117,418.484,352.655,416.352,351.703,415.542z"/>
			</g>
		</g>
		<g>
			<path style="fill:#2D3962;" d="M464.032,447.463H35.968c-0.552,0-1-0.447-1-1s0.448-1,1-1h428.064c0.553,0,1,0.447,1,1
				S464.585,447.463,464.032,447.463z"/>
		</g>
		<g>
			<g>
				<g>
					<g>
						<path style="fill:#F4B04E;" d="M410.769,153.66h-44.252c-1.615,0-2.924,1.309-2.924,2.924v23.762
							c0,1.615,1.309,2.924,2.924,2.924h2.889v4.816c0,0.685,0.845,1.008,1.302,0.499l4.77-5.315h35.291
							c1.615,0,2.924-1.309,2.924-2.924v-23.762C413.693,154.969,412.384,153.66,410.769,153.66z"/>
					</g>
				</g>
				<g>
					<g>
						<path style="fill:#FFFFFF;" d="M406.037,161.521h-34.976c-0.344,0-0.623-0.279-0.623-0.623c0-0.344,0.279-0.623,0.623-0.623
							h34.976c0.344,0,0.623,0.279,0.623,0.623C406.66,161.242,406.381,161.521,406.037,161.521z"/>
					</g>
				</g>
				<g>
					<g>
						<path style="fill:#FFFFFF;" d="M406.037,169.239h-34.976c-0.344,0-0.623-0.279-0.623-0.623c0-0.344,0.279-0.623,0.623-0.623
							h34.976c0.344,0,0.623,0.279,0.623,0.623C406.66,168.961,406.381,169.239,406.037,169.239z"/>
					</g>
				</g>
				<g>
					<g>
						<path style="fill:#FFFFFF;" d="M398.693,176.916h-27.632c-0.344,0-0.623-0.279-0.623-0.623c0-0.344,0.279-0.623,0.623-0.623
							h27.632c0.344,0,0.623,0.279,0.623,0.623C399.316,176.637,399.037,176.916,398.693,176.916z"/>
					</g>
				</g>
			</g>
			<g>
				<g>
					<g>
						<path style="fill:#FFD194;" d="M368.272,136.885c0,1.153-0.935,2.088-2.088,2.088h-28.396c-1.153,0-2.088-0.935-2.088-2.088
							v-17.539c0-1.153,0.935-2.088,2.088-2.088h28.396c1.153,0,2.088,0.935,2.088,2.088V136.885z"/>
					</g>
				</g>
				<g>
					<defs>
						<path id="SVGID_00000139279594278800209110000004664321434074406073_" d="M368.272,136.885c0,1.153-0.935,2.088-2.088,2.088
							h-28.396c-1.153,0-2.088-0.935-2.088-2.088v-17.539c0-1.153,0.935-2.088,2.088-2.088h28.396c1.153,0,2.088,0.935,2.088,2.088
							V136.885z"/>
					</defs>
					<clipPath id="SVGID_00000072242491253216915760000015900362874845296275_">
						<use xlink:href="#SVGID_00000139279594278800209110000004664321434074406073_"  style="overflow:visible;"/>
					</clipPath>
					<g style="clip-path:url(#SVGID_00000072242491253216915760000015900362874845296275_);">
						<g>
							<polygon style="fill:#FFFFFF;" points="367.254,140.615 355.584,127.76 367.232,116.143 366.406,115.138 351.663,129.842 
								337.311,114.032 336.441,114.99 348.111,127.845 336.463,139.463 337.289,140.467 348.982,128.805 351.621,131.713 
								354.671,128.671 366.384,141.574 							"/>
						</g>
					</g>
				</g>
				<g>
					<g>
						<g>
							<circle style="fill:#56B2A1;" cx="365.038" cy="117.523" r="7.263"/>
						</g>
					</g>
					<g>
						<path style="fill:#FFFFFF;" d="M360.27,118.928h1.015v-2.569h-1.021v-0.536c0.189-0.021,0.421-0.08,0.695-0.176
							c0.275-0.097,0.522-0.208,0.74-0.334h0.447v3.615h0.926v0.706h-2.803V118.928z"/>
						<path style="fill:#FFFFFF;" d="M364.172,119.511c-0.217-0.132-0.383-0.362-0.498-0.689c-0.115-0.328-0.173-0.777-0.173-1.348
							c0-0.571,0.058-1.021,0.173-1.348c0.115-0.327,0.281-0.557,0.498-0.689c0.216-0.132,0.488-0.198,0.815-0.198
							c0.327,0,0.6,0.067,0.815,0.202c0.216,0.134,0.382,0.364,0.498,0.689c0.115,0.325,0.173,0.773,0.173,1.345
							c0,0.571-0.058,1.019-0.173,1.345c-0.116,0.325-0.282,0.555-0.498,0.689c-0.216,0.134-0.488,0.202-0.815,0.202
							C364.661,119.71,364.388,119.643,364.172,119.511z M365.363,118.869c0.086-0.09,0.145-0.228,0.176-0.413
							c0.031-0.185,0.048-0.439,0.048-0.762v-0.441c0-0.323-0.017-0.577-0.048-0.762c-0.031-0.185-0.09-0.322-0.176-0.413
							c-0.087-0.09-0.211-0.136-0.375-0.136c-0.164,0-0.289,0.045-0.375,0.136c-0.086,0.09-0.145,0.228-0.176,0.413
							c-0.032,0.185-0.048,0.438-0.048,0.762v0.441c0,0.323,0.016,0.578,0.048,0.762c0.031,0.185,0.09,0.322,0.176,0.413
							c0.086,0.09,0.211,0.135,0.375,0.135C365.152,119.004,365.276,118.959,365.363,118.869z"/>
						<path style="fill:#FFFFFF;" d="M367.009,119.408c0-0.239,0.053-0.455,0.158-0.646c0.104-0.191,0.233-0.358,0.387-0.501
							c0.153-0.143,0.354-0.304,0.602-0.485c0.214-0.164,0.383-0.3,0.507-0.409c0.124-0.109,0.228-0.229,0.313-0.359
							c0.104-0.163,0.157-0.348,0.157-0.554c0-0.134-0.05-0.253-0.148-0.356c-0.099-0.103-0.24-0.154-0.425-0.154
							c-0.416,0-0.624,0.2-0.624,0.599v0.258h-0.856c-0.004-0.013-0.009-0.042-0.016-0.088c-0.006-0.046-0.01-0.101-0.01-0.163
							c0-0.437,0.146-0.764,0.438-0.983c0.291-0.219,0.66-0.328,1.105-0.328c0.39,0,0.69,0.076,0.9,0.227
							c0.21,0.151,0.348,0.321,0.412,0.51c0.065,0.189,0.098,0.365,0.098,0.529c0,0.29-0.065,0.547-0.195,0.771
							c-0.13,0.225-0.284,0.414-0.463,0.567c-0.179,0.153-0.4,0.32-0.664,0.501c-0.202,0.139-0.352,0.252-0.454,0.34
							c-0.071,0.063-0.123,0.124-0.157,0.183h1.959v0.769h-3.023V119.408z"/>
					</g>
				</g>
			</g>
			<g>
				<g>
					<g>
						<path style="fill:#FFD194;" d="M311.362,185.449h-26.868c-1.107,0-2.004-0.897-2.004-2.004v-23.351
							c0-1.107,0.897-2.004,2.004-2.004h26.868c1.107,0,2.004,0.897,2.004,2.004v23.351
							C313.366,184.551,312.469,185.449,311.362,185.449z"/>
					</g>
				</g>
				<g>
					<g>
						<g>
							<path style="fill:#FFFFFF;" d="M307.409,165.603h-15.381c-0.393,0-0.712-0.319-0.712-0.712l0,0
								c0-0.393,0.319-0.712,0.712-0.712h15.381c0.393,0,0.712,0.319,0.712,0.712l0,0
								C308.122,165.284,307.803,165.603,307.409,165.603z"/>
						</g>
					</g>
					<g>
						<g>
							<path style="fill:#FFFFFF;" d="M288.973,164.89c0,0.578-0.469,1.047-1.047,1.047c-0.578,0-1.047-0.469-1.047-1.047
								c0-0.578,0.469-1.047,1.047-1.047C288.504,163.843,288.973,164.312,288.973,164.89z"/>
						</g>
					</g>
					<g>
						<g>
							<path style="fill:#FFFFFF;" d="M307.409,172.707h-15.381c-0.393,0-0.712-0.319-0.712-0.712l0,0
								c0-0.393,0.319-0.712,0.712-0.712h15.381c0.393,0,0.712,0.319,0.712,0.712l0,0
								C308.122,172.388,307.803,172.707,307.409,172.707z"/>
						</g>
					</g>
					<g>
						<g>
							<path style="fill:#FFFFFF;" d="M288.973,171.995c0,0.578-0.469,1.047-1.047,1.047c-0.578,0-1.047-0.469-1.047-1.047
								c0-0.578,0.469-1.047,1.047-1.047C288.504,170.948,288.973,171.417,288.973,171.995z"/>
						</g>
					</g>
					<g>
						<g>
							<path style="fill:#FFFFFF;" d="M307.409,179.812h-15.381c-0.393,0-0.712-0.319-0.712-0.712l0,0
								c0-0.393,0.319-0.712,0.712-0.712h15.381c0.393,0,0.712,0.319,0.712,0.712l0,0
								C308.122,179.493,307.803,179.812,307.409,179.812z"/>
						</g>
					</g>
					<g>
						<g>
							<path style="fill:#FFFFFF;" d="M288.973,179.1c0,0.578-0.469,1.047-1.047,1.047c-0.578,0-1.047-0.469-1.047-1.047
								c0-0.578,0.469-1.047,1.047-1.047C288.504,178.053,288.973,178.521,288.973,179.1z"/>
						</g>
					</g>
				</g>
			</g>
			<g>
				<g>
					<path style="fill:#97DDCF;" d="M355.035,176.2h-33.16c-1.284,0-2.325-1.041-2.325-2.325v-26.684
						c0-1.284,1.041-2.325,2.325-2.325h33.16c1.284,0,2.325,1.041,2.325,2.325v26.684C357.36,175.159,356.319,176.2,355.035,176.2z"
						/>
				</g>
				<g>
					<path style="fill:#56B2A1;" d="M357.36,153.848v-6.657c0-1.284-1.041-2.325-2.325-2.325h-33.16
						c-1.284,0-2.325,1.041-2.325,2.325v6.657C319.55,153.848,356.733,153.848,357.36,153.848z"/>
				</g>
				<g>
					<path style="fill:#FFFFFF;" d="M331.686,166.855H334v-5.864h-2.328v-1.221c0.432-0.048,0.961-0.182,1.588-0.403
						c0.628-0.22,1.19-0.474,1.688-0.761h1.021v8.249h2.113v1.609h-6.396V166.855z"/>
					<path style="fill:#FFFFFF;" d="M339.914,167.767c-0.628-0.58-0.941-1.368-0.941-2.364h2.026c0,0.508,0.127,0.905,0.381,1.193
						c0.254,0.287,0.605,0.431,1.056,0.431c0.44,0,0.788-0.151,1.042-0.453c0.254-0.302,0.381-0.745,0.381-1.33
						c0-0.536-0.129-0.943-0.388-1.222c-0.259-0.277-0.599-0.417-1.021-0.417c-0.287,0-0.531,0.063-0.732,0.187
						c-0.201,0.125-0.384,0.292-0.547,0.503l-1.868-0.23l0.389-5.461h5.705v1.753h-3.967l-0.129,2.185
						c0.229-0.144,0.479-0.261,0.747-0.352c0.269-0.091,0.594-0.137,0.978-0.137c0.843,0,1.53,0.271,2.062,0.812
						c0.532,0.542,0.798,1.335,0.798,2.378c0,1.073-0.307,1.907-0.92,2.501c-0.613,0.594-1.456,0.891-2.529,0.891
						C341.382,168.637,340.541,168.347,339.914,167.767z"/>
				</g>
				<g>
					<g>
						<path style="fill:#2D3962;" d="M329.063,147.985c-0.338,0-0.611-0.274-0.611-0.612v-3.097c0-0.338,0.273-0.612,0.611-0.612
							c0.338,0,0.611,0.274,0.611,0.612v3.097C329.674,147.711,329.401,147.985,329.063,147.985z"/>
					</g>
					<g>
						<path style="fill:#2D3962;" d="M338.455,147.985c-0.338,0-0.611-0.274-0.611-0.612v-3.097c0-0.338,0.273-0.612,0.611-0.612
							c0.338,0,0.611,0.274,0.611,0.612v3.097C339.066,147.711,338.793,147.985,338.455,147.985z"/>
					</g>
					<g>
						<path style="fill:#2D3962;" d="M347.847,147.985c-0.338,0-0.611-0.274-0.611-0.612v-3.097c0-0.338,0.273-0.612,0.611-0.612
							s0.611,0.274,0.611,0.612v3.097C348.459,147.711,348.185,147.985,347.847,147.985z"/>
					</g>
				</g>
			</g>
			<g>
				<g>
					<g>
						
							<ellipse transform="matrix(0.4313 -0.9022 0.9022 0.4313 51.2365 342.6994)" style="fill:#FFFFFF;" cx="297.455" cy="130.708" rx="18.565" ry="18.565"/>
					</g>
					<g>
						<path style="fill:#56B2A1;" d="M297.454,150.567c-10.949,0-19.858-8.909-19.858-19.859c0-10.95,8.909-19.859,19.858-19.859
							c10.951,0,19.86,8.909,19.86,19.859C317.314,141.658,308.405,150.567,297.454,150.567z M297.454,113.437
							c-9.523,0-17.271,7.748-17.271,17.271c0,9.524,7.748,17.271,17.271,17.271c9.524,0,17.272-7.748,17.272-17.271
							C314.727,121.184,306.979,113.437,297.454,113.437z"/>
					</g>
				</g>
				<g>
					<g>
						<path style="fill:#2D3962;" d="M305.457,132.599h-8.607c-0.437,0-0.791-0.355-0.791-0.791v-12.671
							c0-0.437,0.354-0.791,0.791-0.791c0.437,0,0.791,0.354,0.791,0.791v11.88h7.816c0.437,0,0.791,0.355,0.791,0.791
							S305.894,132.599,305.457,132.599z"/>
					</g>
				</g>
			</g>
		</g>
		<g>
			<g>
				<g>
					<path style="fill:#F4B04E;" d="M74.332,291.168c0,0-13.826-82.466,0.553-102.806c5.437-7.691,30.12-2.152,30.12-2.152
						c11.796,11.935,17.838,24.308,22.165,40.521c4.327,16.213,12.223,51.278,13.696,67.994
						C127.286,294.758,74.332,291.168,74.332,291.168z"/>
				</g>
				<g>
					<g>
						<g>
							<path style="fill:#FFCEAB;" d="M123.5,281.67c0,0,13.478,5.2,13.83,10.378c0.308,4.537-15.176,0.693-15.176,0.693
								L123.5,281.67z"/>
						</g>
						<g>
							<path style="fill:#2D3962;" d="M137.1,292.842c-0.125,0-0.25-0.045-0.35-0.136c-1.422-1.306-4.811-2.509-4.845-2.52
								c-0.27-0.095-0.412-0.391-0.316-0.66s0.392-0.41,0.66-0.316c0.147,0.052,3.624,1.287,5.201,2.733
								c0.21,0.193,0.225,0.522,0.031,0.731C137.379,292.785,137.239,292.842,137.1,292.842z"/>
						</g>
						<g>
							<path style="fill:#2D3962;" d="M134.675,294.418c-0.115,0-0.231-0.038-0.327-0.117c-1.248-1.02-3.937-1.963-3.964-1.972
								c-0.27-0.094-0.413-0.39-0.319-0.659c0.094-0.271,0.39-0.413,0.659-0.319c0.118,0.041,2.891,1.014,4.279,2.149
								c0.221,0.181,0.254,0.507,0.073,0.728C134.974,294.354,134.825,294.418,134.675,294.418z"/>
						</g>
					</g>
					<g>
						<g>
							<path style="fill:#F4B04E;" d="M90.28,222.242c-6.697,24.096-4.381,24.119-11.48,47.357
								c14.141,4.466,35.031,4.988,47.785,12.556c-0.322,2.641-1.232,9.902-1.906,10.583c-1.074,1.084-56.431,6.213-70.013-8.056
								c-10.977-11.533-2.993-79.816,21.245-97.448C83.561,181.667,90.28,222.242,90.28,222.242z"/>
						</g>
					</g>
					<g>
						<g>
							<path style="fill:#2D3962;" d="M107.521,295.267c-0.286,0-0.518-0.231-0.518-0.518c0-0.286,0.231-0.517,0.518-0.517
								c2.797,0,14.067-0.98,16.299-1.177l2.142-10.482c-8.328-3.534-18.424-5.7-28.194-7.796
								c-6.878-1.476-13.374-2.869-19.123-4.686c-0.271-0.085-0.422-0.373-0.339-0.645c3.757-12.299,4.889-18.17,6.087-24.386
								c1.101-5.714,2.24-11.622,5.391-22.957c0.076-0.276,0.361-0.441,0.637-0.36c0.275,0.076,0.437,0.362,0.36,0.637
								c-3.139,11.295-4.274,17.183-5.371,22.876c-1.187,6.16-2.309,11.983-5.963,24.001c5.583,1.728,11.882,3.079,18.54,4.507
								c9.97,2.139,20.28,4.351,28.774,8.023c0.225,0.098,0.351,0.339,0.302,0.579l-2.303,11.274
								c-0.046,0.225-0.233,0.392-0.461,0.412C123.741,294.102,110.66,295.267,107.521,295.267z"/>
						</g>
					</g>
				</g>
				<g>
					<g>
						<g>
							<g>
								<g>
									<path style="fill:#FFCEAB;" d="M167.619,172.521c-2.627-0.177-3.393,2.548-3.484-3.422
										c-0.048-3.141-1.52-6.722-1.796-9.368c-0.141-1.348,0.488-1.983,0.887-2.222c0.665-0.398,1.351-0.015,1.351-0.015
										c0.221-1.066,1.789-0.924,2.115-0.877c0.633,0.091,1.019,0.702,1.019,0.702s0.283-0.82,1.706-0.784
										c0.861,0.022,1.345,0.27,1.604,0.822c0,0,1.635-0.421,2.15,0.82c0.253,0.61,1.617,4.361,1.75,11.16
										c0.082,4.189-1.574,3.534-4.097,3.364L167.619,172.521z"/>
								</g>
							</g>
							<g>
								<g>
									<path style="fill:#2D3962;" d="M171.783,164.989c-0.318,0-0.581-0.253-0.59-0.573c-0.088-2.872-0.579-6.522-0.583-6.556
										c-0.046-0.319,0.171-0.618,0.489-0.669c0.322-0.049,0.619,0.159,0.677,0.475c0.004,0.025,0.507,3.731,0.599,6.714
										c0.01,0.326-0.246,0.599-0.573,0.609C171.796,164.989,171.789,164.989,171.783,164.989z"/>
								</g>
							</g>
							<g>
								<g>
									<path style="fill:#2D3962;" d="M168.87,164.854c-0.318,0-0.581-0.253-0.59-0.573c-0.089-2.876-0.827-6.669-0.834-6.707
										c-0.063-0.32,0.144-0.631,0.463-0.695c0.32-0.066,0.63,0.142,0.696,0.462c0.007,0.037,0.765,3.933,0.857,6.904
										c0.01,0.326-0.246,0.599-0.573,0.609C168.883,164.853,168.877,164.854,168.87,164.854z"/>
								</g>
							</g>
							<g>
								<g>
									<path style="fill:#2D3962;" d="M165.899,164.899c-0.318,0-0.581-0.253-0.59-0.573c-0.09-2.948-0.821-6.708-0.852-6.866
										c-0.061-0.313,0.134-0.625,0.444-0.697c0.311-0.074,0.619,0.105,0.703,0.412c0.004,0.017,0.01,0.041,0.013,0.058
										c0.032,0.163,0.78,4.015,0.873,7.058c0.01,0.326-0.247,0.599-0.573,0.609C165.911,164.898,165.905,164.899,165.899,164.899
										z"/>
								</g>
							</g>
						</g>
						<g>
							<path style="fill:#FFCEAB;" d="M159.916,163.611c-1.152,0.891,0.407,3.171,1.907,5.028c0.71,0.88,1.555,2.125,2.276,2.449
								c1.063,0.478,0.696-3.861,0.696-3.861S162.23,161.822,159.916,163.611z"/>
						</g>
						<g>
							<path style="fill:#2D3962;" d="M163.759,166.637c-0.219,0-0.43-0.122-0.532-0.332c-0.008-0.016-0.771-1.563-1.867-2.391
								c-0.261-0.196-0.312-0.567-0.116-0.828c0.197-0.26,0.568-0.313,0.828-0.116c1.327,1.001,2.183,2.743,2.218,2.817
								c0.143,0.293,0.02,0.646-0.273,0.789C163.934,166.618,163.846,166.637,163.759,166.637z"/>
						</g>
					</g>
					<g>
						<path style="fill:#F4B04E;" d="M161.377,172.043c0.303,7.293-4.756,40.628-8.365,40.628c-8.293,0-31.003-16.483-45.732-23.847
							l5.962,37.874c7.057,3.011,37.52,18.078,49.385,12.897c22.317-9.744,14.285-69.934,14.285-69.934L161.377,172.043z"/>
					</g>
				</g>
				<g>
					<path style="fill:#2D3962;" d="M131.003,246.207c-0.26,0-0.484-0.196-0.514-0.46c-4.011-36.1-23.384-56.362-23.579-56.562
						c-0.2-0.205-0.195-0.533,0.009-0.732c0.204-0.2,0.532-0.196,0.732,0.009c0.198,0.203,19.814,20.699,23.867,57.17
						c0.031,0.284-0.173,0.54-0.458,0.572C131.041,246.206,131.022,246.207,131.003,246.207z"/>
				</g>
			</g>
			<g>
				<g>
					<path style="fill:#2D3962;" d="M78.809,169.228c0,0-6.16-0.204-6.442-8.772c0,0,4.343,1.428,6.138,1.391
						C78.505,161.847,78.69,169.527,78.809,169.228z"/>
				</g>
				<g>
					<path style="fill:#FFCEAB;" d="M121.799,131.251c0.855,3.566,2.515,9.973,3.039,13.597c0.994,6.867,1.704,11.47,0.909,18.398
						c-0.446,3.89-1.711,7.789-4.2,11.03c-4.758,6.195-18.046,5.32-18.046,5.32l0.528,7.771c0,0-12.144,5.009-23.976-0.409
						l-1.82-23.715c0,0-4.958,0.009-8.061-2.28c-3.035-2.239-2.34-11.087,4.705-11.076c6.523,0.01,7.26,0.841,7.26,0.841
						l6.637-17.502L121.799,131.251z"/>
				</g>
				<g>
					<g>
						<path style="fill:#2D3962;" d="M73.39,156.476c-0.14,0-0.279-0.056-0.382-0.168c-0.193-0.21-0.179-0.538,0.032-0.731
							c1.741-1.596,5.079-2.026,5.22-2.044c0.291-0.037,0.543,0.166,0.578,0.45c0.035,0.284-0.166,0.542-0.45,0.578
							c-0.031,0.004-3.152,0.408-4.649,1.78C73.641,156.431,73.515,156.476,73.39,156.476z"/>
					</g>
					<g>
						<path style="fill:#2D3962;" d="M76.657,158.708c-0.198,0-0.387-0.114-0.473-0.306c-0.431-0.962-0.794-2.179-1.078-3.62
							c-0.055-0.281,0.127-0.553,0.408-0.608c0.28-0.057,0.553,0.128,0.608,0.408c0.335,1.699,0.732,2.784,1.006,3.396
							c0.117,0.261,0,0.567-0.26,0.684C76.8,158.694,76.728,158.708,76.657,158.708z"/>
					</g>
				</g>
				<g>
					<path style="fill:#2D3962;" d="M106.045,150.706c0.074,0.914,0.908,1.592,1.864,1.516c0.956-0.076,1.67-0.879,1.597-1.793
						c-0.074-0.914-0.908-1.592-1.864-1.516C106.686,148.99,105.972,149.792,106.045,150.706z"/>
				</g>
				<g>
					<path style="fill:#2D3962;" d="M117.542,150.952c0.728,0.592,1.824,0.505,2.447-0.195c0.623-0.7,0.539-1.748-0.189-2.34
						c-0.728-0.592-1.824-0.505-2.447,0.196C116.729,149.312,116.814,150.359,117.542,150.952z"/>
				</g>
				<g>
					<path style="fill:#2D3962;" d="M112.27,161.7c-0.538,0-1.087-0.067-1.626-0.203c-1.104-0.278-2.075-0.809-2.807-1.535
						c-0.203-0.201-0.205-0.529-0.004-0.732c0.201-0.203,0.529-0.205,0.732-0.003c0.592,0.587,1.42,1.037,2.331,1.266
						c1.002,0.252,2.036,0.227,2.913-0.07c0.269-0.09,0.565,0.053,0.656,0.324c0.092,0.27-0.053,0.564-0.324,0.656
						C113.559,161.601,112.922,161.7,112.27,161.7z"/>
				</g>
				<g>
					<path style="fill:#2D3962;" d="M103.552,182.43l-11.674-2.897c0,0,0.178-1.489,0.539-1.352
						c3.366,1.278,10.988,1.448,10.988,1.448L103.552,182.43z"/>
				</g>
				<g>
					<path style="fill:#2D3962;" d="M109.507,143.774c-1.179-0.879-4.272,0.025-5.139,0.482c0,0-0.597,0.873,0.163,1.657
						c0.885,0.913,3.769,0.133,4.846-0.012c0.088-0.012,0.179-0.025,0.25-0.075c0.087-0.061,0.129-0.164,0.163-0.261
						c0.13-0.37,0.229-0.767,0.139-1.146C109.864,144.141,109.716,143.93,109.507,143.774z"/>
				</g>
				<g>
					<path style="fill:#2D3962;" d="M121.038,142.986c-1.16-0.901-4.271-0.058-5.148,0.383c0,0-0.615,0.861,0.128,1.66
						c0.866,0.93,3.765,0.207,4.845,0.082c0.088-0.01,0.179-0.021,0.252-0.07c0.089-0.059,0.132-0.161,0.169-0.258
						c0.138-0.367,0.245-0.762,0.163-1.143C121.387,143.36,121.243,143.146,121.038,142.986z"/>
				</g>
				<g>
					<path style="fill:#2D3962;" d="M71.886,126.529c-4.85,7.827-3.917,18.966-1.694,25.123c0,0,7.099-3.323,12.604,0.106
						c1.81,1.128,1.136,6.532,6.303,5.991c4.769-0.5,2.914-11.835,2.399-20.854c0,0,25.204,0.995,30.094-5.62
						c1.698-2.297,1.887-6.747-3.273-10.78C110.594,114.458,75.74,120.309,71.886,126.529z"/>
				</g>
				<g>
					<path style="fill:#2D3962;" d="M91.907,190.586c-2.442,0-4.527-0.325-6.193-0.74c-4.431-1.103-6.898-3.019-7.001-3.1
						c-0.225-0.177-0.263-0.502-0.086-0.727c0.176-0.225,0.502-0.263,0.727-0.087c0.095,0.075,9.692,7.385,24.739,0.975
						c0.265-0.113,0.568,0.01,0.679,0.273c0.112,0.263-0.01,0.567-0.273,0.679C99.684,189.911,95.425,190.586,91.907,190.586z"/>
				</g>
			</g>
		</g>
	</g>
</g>
</svg>
