<svg fill="none" height="32" viewBox="0 0 32 32" width="32" xmlns="http://www.w3.org/2000/svg"><path d="m2 12.1333c0-3.54697 0-5.32047.69029-6.67524.6072-1.19169 1.57608-2.16057 2.76777-2.76777 1.35477-.69029 3.12827-.69029 6.67524-.69029h7.7334c3.547 0 5.3205 0 6.6752.69029 1.1917.6072 2.1606 1.57608 2.7678 2.76777.6903 1.35477.6903 3.12827.6903 6.67524v7.7334c0 3.547 0 5.3205-.6903 6.6752-.6072 1.1917-1.5761 2.1606-2.7678 2.7678-1.3547.6903-3.1282.6903-6.6752.6903h-7.7334c-3.54697 0-5.32047 0-6.67524-.6903-1.19169-.6072-2.16057-1.5761-2.76777-2.7678-.69029-1.3547-.69029-3.1282-.69029-6.6752z" fill="#001e36"/><g fill="#31a8ff"><path d="m8 22.5162v-12.3128c0-.0837.035-.1316.11667-.1316 1.20563 0 2.41073-.0718 3.61663-.0718 1.9569 0 4.0757.6691 4.8184 2.7162.175.5026.2683 1.0171.2683 1.5556 0 1.0291-.2333 1.8786-.7 2.5487-1.3036 1.8718-3.563 1.8427-5.5883 1.8427v3.8411c.0158.1137-.0811.1675-.175.1675h-2.2167c-.09333 0-.14-.0479-.14-.1556zm2.5433-10.135v4.0205c.8031.0588 1.6434.0652 2.415-.1914.8519-.2458 1.3184-.9831 1.3184-1.8667.0236-.7529-.3866-1.4753-1.085-1.747-.7623-.317-1.8255-.336-2.6484-.2154z"/><path d="m24.0967 15.6074c-.353-.1861-.729-.3222-1.1177-.4046-.4994-.1175-2.4692-.5291-2.47.5009.0175.575.9303.8567 1.3336 1.021 1.4159.4861 3.0181 1.355 2.9866 3.1017.0433 2.1744-2.0635 3.0437-3.8694 3.0439-.9401.0097-1.9195-.1359-2.7799-.5395-.0822-.0435-.135-.1364-.1315-.2312v-2.0806c-.0093-.0834.0803-.1563.1503-.0963.843.5098 1.8422.7574 2.8175.7706.4305 0 1.2837-.0417 1.2773-.6743 0-.607-1.0207-.8861-1.4276-1.0403-.5898-.2105-1.149-.5022-1.6623-.8669-.7174-.5117-1.1674-1.3321-1.1552-2.2347-.0042-2.0474 1.9351-2.9664 3.6816-2.9668.8164-.0068 1.6932.0537 2.4532.3853.1093.0321.1319.1473.1315.2504v1.9458c.0069.1208-.1272.1619-.218.1156z"/></g></svg>