<svg fill="none" height="32" viewBox="0 0 32 32" width="32" xmlns="http://www.w3.org/2000/svg"><path d="m2 12.1333c0-3.54697 0-5.32047.69029-6.67524.6072-1.19169 1.57608-2.16057 2.76777-2.76777 1.35477-.69029 3.12827-.69029 6.67524-.69029h7.7334c3.547 0 5.3205 0 6.6752.69029 1.1917.6072 2.1606 1.57608 2.7678 2.76777.6903 1.35477.6903 3.12827.6903 6.67524v7.7334c0 3.547 0 5.3205-.6903 6.6752-.6072 1.1917-1.5761 2.1606-2.7678 2.7678-1.3547.6903-3.1282.6903-6.6752.6903h-7.7334c-3.54697 0-5.32047 0-6.67524-.6903-1.19169-.6072-2.16057-1.5761-2.76777-2.7678-.69029-1.3547-.69029-3.1282-.69029-6.6752z" fill="#300"/><g fill="#ff9a00"><path d="m15.5686 19.5963h-4.3389l-.8828 2.8127c-.0245.1045-.1207.1785-.2254.1733h-2.19766c-.12533 0-.16915-.0706-.13148-.2119l3.75664-11.0966c.0376-.1156.0752-.2472.1127-.3949.0492-.2571.0743-.5183.0752-.7802-.0108-.0774.0572-.14576.1314-.13492h2.9866c.0875 0 .1375.03212.1502.09632l4.2639 12.3296c.0375.1285 0 .1927-.1127.1926h-2.4419c-.0856.0098-.1674-.0489-.1878-.1348zm-3.6627-2.4274h2.9678c-.4876-1.6662-1.0379-3.3105-1.4839-4.9896-.4812 1.682-1.0062 3.3572-1.4839 4.9896z"/><path d="m21.8045 12.0058c-.1916.0079-.3826-.0258-.5607-.0988-.178-.073-.339-.1838-.4724-.325-.133-.1474-.2364-.3202-.3041-.5087-.0677-.1884-.0984-.3887-.0904-.5894-.0068-.1987.0273-.3966.1001-.58085.0729-.18424.1828-.35065.3226-.48837.1384-.13629.3018-.24307.4808-.31416.1789-.0711.3698-.10509.5616-.10003.4509 0 .8046.13807 1.0613.41419.1296.1435.2303.3118.2964.49527.066.18345.0962.37855.0886.57395.0079.2014-.0238.4025-.0932.5911-.0693.1886-.175.361-.3106.507-.1417.1433-.3109.2549-.4967.3279-.1859.0729-.3845.1056-.5833.0959zm-1.2961 10.3838v-9.2086c0-.1156.0499-.1734.1503-.1734h2.3104c.1 0 .1501.0578.1502.1734v9.2086c0 .1286-.0501.1928-.1502.1927h-2.2916c-.1127 0-.1691-.0642-.1691-.1927z"/></g></svg>